<?xml version="1.0" encoding="UTF-8" standalone="no"?>
<!-- Created with Vectornator (http://vectornator.io/) -->

<svg
   height="1224884.8"
   stroke-miterlimit="10"
   style="clip-rule:evenodd;fill-rule:nonzero;stroke-linecap:round;stroke-linejoin:round"
   version="1.1"
   viewBox="0 0 1633955 1224884.8"
   width="1633955"
   xml:space="preserve"
   id="svg1037"
   xmlns:xlink="http://www.w3.org/1999/xlink"
   xmlns="http://www.w3.org/2000/svg"
   xmlns:svg="http://www.w3.org/2000/svg"
   xmlns:vectornator="http://vectornator.io">
<defs
   id="defs20"><path
     d="m 1990.22,358.268 c 0,-165.158 133.88,-299.0442 299.04,-299.0442 165.16,0 299.04,133.8862 299.04,299.0442 0,165.157 -133.88,299.044 -299.04,299.044 -165.16,0 -299.04,-133.887 -299.04,-299.044 z"
     id="Fill_3" /><linearGradient
     gradientTransform="translate(715.563,-423.037)"
     gradientUnits="userSpaceOnUse"
     id="LinearGradient_3"
     x1="1515.74"
     x2="1786.8"
     y1="691.38898"
     y2="691.38898">
<stop
   offset="0"
   stop-color="#f69855"
   id="stop15" />
<stop
   offset="1"
   stop-color="#d7471c"
   id="stop17" />
</linearGradient></defs>
<clipPath
   id="ArtboardFrame">
<rect
   height="2048"
   width="2732"
   x="0"
   y="0"
   id="rect22" />
</clipPath>
<g
   clip-path="url(#ArtboardFrame)"
   id="Camada-1"
   vectornator:layerName="Camada 1"
   transform="translate(-5437281,-121290.34)">
<g
   opacity="1"
   id="g982">
<use
   fill="#d6e8f5"
   fill-rule="nonzero"
   opacity="1"
   stroke="none"
   xlink:href="#Fill_3"
   id="use665" />
<clipPath
   id="ClipPath_3">
<use
   xlink:href="#Fill_3"
   id="use667" />
</clipPath>
<g
   clip-path="url(#ClipPath_3)"
   id="g980">
<path
   d="m 2231.3,268.352 c 0,-74.852 60.68,-135.531 135.53,-135.531 74.85,0 135.53,60.679 135.53,135.531 0,74.851 -60.68,135.53 -135.53,135.53 -74.85,0 -135.53,-60.679 -135.53,-135.53 z"
   fill="url(#LinearGradient_3)"
   fill-rule="nonzero"
   opacity="1"
   stroke="none"
   id="path670"
   style="fill:url(#LinearGradient_3)" />
<g
   opacity="1"
   id="g686">
<path
   d="m 2199.72,249.217 v 11.028 h 3.94 v 44.7 c 0,4.923 -1.18,7.09 -3.94,7.09 -2.75,0 -3.93,-1.97 -3.93,-6.302 V 200.184 c 0,-4.529 1.18,-6.301 3.93,-6.301 2.76,0 3.94,1.772 3.94,6.301 v 36.036 h 11.82 v -37.611 c 0,-9.649 -5.91,-15.754 -15.56,-15.754 -9.65,0 -15.95,6.105 -15.95,15.754 v 108.699 c 0,9.65 4.14,15.754 10.44,15.754 4.33,0 7.48,-3.348 8.86,-9.058 h 0.39 v 7.877 h 11.82 v -72.664 z"
   fill="#000000"
   fill-rule="nonzero"
   opacity="1"
   stroke="none"
   id="path672" />
<path
   d="m 2251.81,198.609 c 0,-9.649 -5.91,-15.754 -15.56,-15.754 -9.65,0 -15.95,6.105 -15.95,15.754 v 108.699 c 0,9.65 6.3,15.754 15.95,15.754 9.65,0 15.56,-6.104 15.56,-15.754 z m -11.82,1.575 v 105.549 c 0,4.332 -1.18,6.302 -3.93,6.302 -2.76,0 -3.94,-1.97 -3.94,-6.302 V 200.184 c 0,-4.529 1.18,-6.301 3.94,-6.301 2.75,0 3.93,1.772 3.93,6.301 z"
   fill="#000000"
   fill-rule="nonzero"
   opacity="1"
   stroke="none"
   id="path674" />
<path
   d="m 2384.8,199.992 c 0,-10.634 -4.92,-15.753 -15.55,-15.753 h -15.95 v 137.843 h 15.95 c 10.63,0 15.55,-5.119 15.55,-15.753 v -45.882 c 0,-7.09 -1.37,-9.846 -6.49,-12.013 v -0.393 c 5.12,-2.167 6.49,-4.923 6.49,-12.013 z m -11.81,0.985 v 36.036 c 0,4.332 -0.99,5.711 -3.94,5.711 h -3.94 v -47.458 h 3.94 c 2.95,0 3.94,1.575 3.94,5.711 z m 0,58.485 v 45.882 c 0,4.136 -0.99,5.711 -3.94,5.711 h -3.94 v -57.304 h 3.94 c 2.95,0 3.94,1.379 3.94,5.711 z"
   fill="#000000"
   fill-rule="nonzero"
   opacity="1"
   stroke="none"
   id="path676" />
<path
   d="m 2420.47,184.239 h -11.82 v 121.696 c 0,4.332 -1.18,6.301 -3.94,6.301 -2.76,0 -3.94,-1.969 -3.94,-6.301 V 184.239 h -11.81 V 307.51 c 0,9.649 6.3,15.754 15.95,15.754 9.65,0 15.56,-6.105 15.56,-15.754 z"
   fill="#000000"
   fill-rule="nonzero"
   opacity="1"
   stroke="none"
   id="path678" />
<path
   d="m 2440.96,249.419 v 11.028 h 3.94 v 44.7 c 0,4.923 -1.18,7.089 -3.94,7.089 -2.75,0 -3.93,-1.969 -3.93,-6.301 V 200.386 c 0,-4.529 1.18,-6.301 3.93,-6.301 2.76,0 3.94,1.772 3.94,6.301 v 36.036 h 11.82 v -37.611 c 0,-9.649 -5.91,-15.754 -15.56,-15.754 -9.65,0 -15.95,6.105 -15.95,15.754 V 307.51 c 0,9.649 4.14,15.754 10.44,15.754 4.33,0 7.48,-3.348 8.86,-9.058 h 0.39 v 7.876 h 11.82 v -72.663 z"
   fill="#000000"
   fill-rule="nonzero"
   opacity="1"
   stroke="none"
   id="path680" />
<path
   d="m 2477.22,249.419 v 11.028 h 3.93 v 44.7 c 0,4.923 -1.18,7.089 -3.93,7.089 -2.76,0 -3.94,-1.969 -3.94,-6.301 V 200.386 c 0,-4.529 1.18,-6.301 3.94,-6.301 2.75,0 3.93,1.772 3.93,6.301 v 36.036 h 11.82 v -37.611 c 0,-9.649 -5.91,-15.754 -15.56,-15.754 -9.65,0 -15.95,6.105 -15.95,15.754 V 307.51 c 0,9.649 4.14,15.754 10.44,15.754 4.33,0 7.48,-3.348 8.86,-9.058 h 0.39 v 7.876 h 11.82 v -72.663 z"
   fill="#000000"
   fill-rule="nonzero"
   opacity="1"
   stroke="none"
   id="path682" />
<path
   d="m 2528.43,184.239 h -12.21 l -3.93,47.457 -0.79,19.692 h -0.4 l -0.78,-19.692 -3.94,-47.457 h -12.21 l 11.22,92.552 v 45.291 h 11.82 v -45.291 z"
   fill="#000000"
   fill-rule="nonzero"
   opacity="1"
   stroke="none"
   id="path684" />
</g>
<g
   opacity="1"
   id="g692">
<path
   d="m 2547.43,595.208 c -11.55,13.042 -48.81,51.564 -110.06,76.29 -61.24,24.725 -130.73,23.208 -130.73,23.208 0,0 -28.3,1.81 -61.82,-7.151 -33.52,-8.96 -47.09,-16.004 -72.27,-28.692 -24.37,-12.28 -48.89,-27.211 -68.06,-44.993 -30.3,-28.107 -49.34,-58.324 -49.34,-58.324 l 97.6,-184.32 30.02,29.93 37.84,-65.391 29.35,-8.831 42.3,-76.934 48.22,94.217 20.79,-5.489 71.61,138.191 19.46,-29.238 c 0,0 29.75,47.254 57.63,86.797 17.59,24.937 38.91,39.089 37.46,60.73 z"
   fill="#ffffff"
   fill-rule="nonzero"
   opacity="1"
   stroke="none"
   vectornator:layerName="path"
   id="path688" />
<path
   d="m 2063.36,569.686 94.33,-165.626 29.26,29.268 106.08,-183.214 c 0,0 -7.8,-15.038 26.63,51.353 34.43,66.391 111.08,214.212 111.08,214.212 l 20.04,-30.078 89.27,122.295 11.59,-12.953 -99.32,-147.262 -19.47,29.188 -87.11,-168.015 -51.76,-99.822 -111.23,192.144 -30,-29.999 -99.01,185.769 z"
   fill="#ffffff"
   fill-rule="nonzero"
   opacity="0.997877"
   stroke="#000509"
   stroke-linecap="butt"
   stroke-linejoin="round"
   stroke-width="5.53492"
   vectornator:layerName="path"
   id="path690" />
</g>
<g
   opacity="1"
   id="g966">
<g
   opacity="1"
   id="g916">
<path
   d="m 2246.68,408.467 c -5.83,0.137 -12.79,2.116 -20.89,5.936 -10.79,5.094 -20.98,10.672 -30.57,16.734 -9.58,6.062 -18.49,16.71 -26.72,31.946 -8.23,15.235 -15.75,22.34 -22.56,21.313 -6.81,-1.026 -13.09,-0.712 -18.84,0.942 -5.75,1.654 -8.72,3.55 -8.9,5.69 -0.19,2.14 5.42,4.57 16.82,7.291 11.41,2.721 19.05,8.994 22.94,18.82 3.88,9.826 5.07,15.966 3.56,18.422 -0.75,1.228 -1.5,2.455 -2.26,3.683 1.05,0.307 2.1,0.615 3.15,0.922 2.11,0.615 3.1,1.564 2.99,2.848 -0.06,0.642 -0.11,1.284 -0.17,1.926 -1.23,-0.754 -2.45,-1.508 -3.68,-2.262 -1.23,-0.754 -2.46,-1.508 -3.68,-2.262 0.97,1.163 1.95,2.326 2.92,3.49 0.98,1.163 1.96,2.326 2.93,3.489 -1.01,-0.735 -2.02,-1.47 -3.04,-2.206 -2.03,-1.47 -3.72,-1.834 -5.08,-1.09 -0.68,0.372 -1.36,0.744 -2.03,1.115 -0.73,-1.572 -1.45,-3.145 -2.18,-4.717 -1.45,-3.145 -3.87,-5.081 -7.25,-5.808 -3.39,-0.727 -5.01,-1.947 -4.86,-3.658 0.08,-0.856 0.15,-1.712 0.23,-2.568 -1.29,-0.112 -2.57,-0.224 -3.86,-0.336 -2.56,-0.225 -4.33,0.268 -5.3,1.477 -0.97,1.209 -3.36,1.431 -7.17,0.667 -3.82,-0.765 -7.1,-0.189 -9.85,1.726 -2.76,1.916 -4.89,4.101 -6.4,6.556 -1.51,2.456 -2.77,7.088 -3.8,13.898 -1.03,6.809 -0.61,14.392 1.25,22.747 1.85,8.355 4.27,15.249 7.25,20.683 2.97,5.435 7.49,7.986 13.56,7.653 6.06,-0.332 9.3,-2.852 9.71,-7.56 0.41,-4.707 4.15,-8.045 11.23,-10.015 7.07,-1.969 11.27,-5.698 12.61,-11.186 1.35,-5.489 3.84,-9.367 7.49,-11.636 3.65,-2.268 6.75,-3.29 9.32,-3.066 2.57,0.224 4.6,1.695 6.08,4.412 0.75,1.359 1.49,2.717 2.24,4.076 3.11,0.552 6.23,1.115 9.35,1.666 4.1,0.725 8.2,1.44 12.3,2.166 7.22,1.277 14.44,2.555 21.66,3.832 0.12,-3.87 0.24,-7.74 0.37,-11.61 0.24,-7.74 2.27,-16.187 6.09,-25.339 3.82,-9.153 8.97,-16.249 15.44,-21.289 6.48,-5.04 13.45,-8.312 20.91,-9.816 7.46,-1.504 13.94,-1.585 19.43,-0.244 5.48,1.342 10.04,3.465 13.67,6.369 3.63,2.904 6.92,4.701 9.88,5.391 2.96,0.689 4.73,2.569 5.33,5.64 0.59,3.07 1.51,4.875 2.76,5.415 1.24,0.54 2.59,2.383 4.04,5.528 0.73,1.572 1.45,3.145 2.18,4.717 2.02,-0.901 4.03,-1.803 6.05,-2.704 4.04,-1.804 6.68,-2.435 7.93,-1.895 0.62,0.27 1.25,0.54 1.87,0.81 -0.5,0.819 -1.01,1.637 -1.51,2.456 -1,1.636 -3.29,3.161 -6.87,4.574 -3.57,1.413 -4.88,4.101 -3.93,8.064 0.94,3.964 1.21,8.299 0.8,13.006 -0.21,2.354 -0.41,4.708 -0.62,7.061 4.04,-1.803 8.08,-3.606 12.12,-5.409 8.08,-3.607 13.54,-9.382 16.39,-17.326 1.42,-3.972 2.85,-7.943 4.27,-11.915 0.38,0.679 0.75,1.358 1.12,2.037 0.74,1.359 0,4.959 -2.24,10.801 -2.23,5.841 -5.44,10.519 -9.63,14.034 -4.19,3.515 -8.05,5.765 -11.59,6.75 -3.53,0.985 -5.79,2.081 -6.75,3.29 -0.97,1.209 -2.31,1.739 -4.02,1.59 -0.86,-0.075 -1.71,-0.15 -2.57,-0.225 0.09,-1.069 0.19,-2.139 0.28,-3.209 0.09,-1.07 0.19,-2.14 0.28,-3.21 -1.09,0.121 -2.18,0.241 -3.27,0.362 -1.08,0.12 -2.17,0.241 -3.26,0.361 0.07,-0.855 0.15,-1.711 0.22,-2.567 0.15,-1.712 1.34,-2.902 3.55,-3.571 2.21,-0.669 3.38,-1.645 3.49,-2.929 0.11,-1.284 -1.31,-2.271 -4.27,-2.96 -2.96,-0.69 -4.36,-1.891 -4.21,-3.602 0.15,-1.712 1.31,-2.688 3.49,-2.93 1.09,-0.12 2.17,-0.241 3.26,-0.361 -0.14,-0.875 -0.28,-1.749 -0.41,-2.624 -0.28,-1.749 -1.92,-2.754 -4.92,-3.016 -2.99,-0.262 -4.63,-1.267 -4.91,-3.016 -0.27,-1.749 0.69,-2.958 2.91,-3.627 1.1,-0.335 2.21,-0.669 3.32,-1.004 -0.59,-0.698 -1.17,-1.396 -1.76,-2.093 -1.17,-1.396 -3.25,-2.225 -6.25,-2.487 -1.5,-0.131 -2.99,-0.262 -4.49,-0.392 0.05,-0.642 0.11,-1.284 0.17,-1.926 0.05,-0.642 0.11,-1.284 0.16,-1.926 0.86,0.075 1.72,0.15 2.57,0.224 0.86,0.075 1.71,0.15 2.57,0.225 -0.18,-0.447 -0.35,-0.893 -0.53,-1.34 -0.35,-0.893 -2.22,-1.703 -5.61,-2.43 -3.39,-0.727 -5.24,-1.752 -5.55,-3.073 -0.32,-1.321 -0.01,-2.372 0.92,-3.153 0.47,-0.391 0.93,-0.781 1.4,-1.172 -1.93,-0.168 -3.86,-0.336 -5.78,-0.504 -1.93,-0.169 -3.85,-0.337 -5.78,-0.505 0.04,-0.428 0.08,-0.856 0.11,-1.284 0.04,-0.428 0.08,-0.856 0.12,-1.284 0.64,0.056 1.28,0.112 1.92,0.169 0.64,0.056 1.29,0.112 1.93,0.168 -0.18,-0.447 -0.36,-0.894 -0.53,-1.34 -0.36,-0.893 -5.67,-1.789 -15.94,-2.686 -10.27,-0.897 -19.26,0.904 -26.99,5.404 -7.72,4.5 -12.78,8.154 -15.19,10.962 -2.4,2.809 -4.7,6.92 -6.89,12.334 -2.2,5.413 -3.46,12.418 -3.78,21.014 -0.32,8.596 0.17,15.322 1.47,20.179 1.3,4.857 3.46,9.789 6.47,14.795 3.01,5.006 8.4,10.004 16.15,14.994 7.76,4.989 15.7,7.839 23.84,8.549 8.13,0.711 16.02,-0.756 23.66,-4.4 7.65,-3.644 13.22,-8.116 16.7,-13.418 3.48,-5.301 5.86,-10.268 7.12,-14.901 1.27,-4.632 6.61,-6.537 16.02,-5.715 9.42,0.823 15.06,0.453 16.92,-1.109 1.86,-1.562 4.87,-1.515 9.04,0.143 4.17,1.658 6.2,5.501 6.11,11.529 -0.03,1.843 -0.51,3.352 -1.29,4.617 -0.48,1.233 -1.37,2.219 -2.56,2.889 1.64,1.937 2.48,2.807 3.08,3.099 1.24,0.606 2.55,1.18 5.5,2.38 0.6,0.245 0.93,0.342 1.25,0.473 0.34,0.141 0.52,0.262 0.85,0.398 0.27,-0.035 0.57,-0.213 0.83,-0.21 0.87,0.009 1.71,0.226 2.54,0.545 0.38,0.145 0.73,0.355 1.08,0.539 2.01,-0.125 4.06,-0.298 5.88,-0.214 4.17,0.192 7.61,0.93 10.33,2.56 0.17,0.098 0.26,0.255 0.41,0.359 0.36,0.054 0.74,-0.011 1.09,0.095 1.49,0.459 2.79,1.391 3.89,2.644 0.21,0.077 0.46,0.099 0.67,0.18 2.79,1.086 5.08,2.569 6.72,4.589 1.13,1.406 1.83,2.992 2.09,4.67 1.79,0.19 3.76,0.344 5.49,0.641 1.3,0.223 2.74,0.469 4.49,0.797 1.64,-0.892 3.32,-1.64 5.05,-2.267 1.14,-0.409 2.32,-0.721 3.49,-1.03 1.15,-0.866 2.19,-1.578 3.55,-2.721 4.66,-3.906 8.06,-8.352 10.22,-13.337 2.16,-4.986 3.15,-11.367 2.97,-19.145 -0.18,-7.777 -1.59,-13.937 -4.21,-18.478 -2.62,-4.541 -6.58,-8.552 -11.88,-12.033 -5.3,-3.482 -10.95,-5.484 -16.94,-6.008 -5.99,-0.523 -11.4,-0.349 -16.22,0.524 -2.41,0.436 -4.82,0.873 -7.23,1.309 4.61,-5.85 9.22,-11.7 13.83,-17.55 4.6,-5.85 9.21,-11.699 13.82,-17.549 -1.83,-1.238 -3.67,-2.476 -5.5,-3.714 -3.66,-2.477 -13.21,-6.76 -28.63,-12.85 -15.42,-6.091 -24.92,-13.388 -28.49,-21.893 -3.57,-8.504 -8.14,-15.372 -13.72,-20.602 -5.58,-5.231 -20.99,-13.908 -46.24,-26.03 -25.24,-12.123 -41.25,-18.912 -48.02,-20.366 -1.69,-0.363 -3.51,-0.522 -5.46,-0.476 z"
   fill="#000000"
   fill-rule="nonzero"
   opacity="1"
   stroke="none"
   id="path694" />
<path
   d="m 2254.78,430.519 c 2.77,12.746 4.49,20.226 5.16,22.441 0.67,2.214 1.43,3.359 2.28,3.434 0.43,0.037 0.86,0.074 1.29,0.112 -1.56,-6.82 -3.12,-13.64 -4.68,-20.46 -3.12,-13.639 -5.27,-21.157 -6.44,-22.553 -0.59,-0.698 -1.17,-1.396 -1.76,-2.094 1.39,6.373 2.77,12.746 4.15,19.12 z"
   fill="#ffffff"
   fill-rule="nonzero"
   opacity="1"
   stroke="none"
   id="path696" />
<path
   d="m 2265.06,416.54 c 4.48,2.979 16.05,8.733 34.71,17.262 9.33,4.264 18.66,8.529 27.99,12.794 -2.03,-1.471 -4.05,-2.942 -6.08,-4.413 -4.06,-2.941 -15.63,-8.695 -34.71,-17.261 -9.55,-4.284 -19.09,-8.567 -28.63,-12.85 2.24,1.489 4.48,2.979 6.72,4.468 z"
   fill="#ffffff"
   fill-rule="nonzero"
   opacity="1"
   stroke="none"
   id="path698" />
<path
   d="m 2222.21,425.733 c -7.68,4.072 -15.37,8.144 -23.05,12.215 8.51,3.762 17.02,7.524 25.53,11.286 8.51,3.762 17.02,7.524 25.53,11.285 -1.21,-0.968 -2.42,-1.936 -3.63,-2.904 -2.41,-1.936 -10.28,-5.641 -23.6,-11.117 -6.66,-2.738 -13.32,-5.476 -19.98,-8.213 6.79,-3.719 13.58,-7.437 20.38,-11.156 13.58,-7.437 21,-10.886 22.24,-10.346 1.25,0.54 2.54,3.025 3.88,7.454 0.67,2.214 1.34,4.429 2.01,6.643 -0.28,-1.749 -0.56,-3.498 -0.84,-5.247 -0.55,-3.499 -1.6,-6.392 -3.12,-8.681 -1.52,-2.29 -9.97,0.638 -25.35,8.781 z"
   fill="#ffffff"
   fill-rule="nonzero"
   opacity="1"
   stroke="none"
   id="path700" />
<path
   d="m 2256.43,419.02 c -0.05,0.642 -0.11,1.284 -0.16,1.926 0.66,-0.158 1.32,-0.316 1.98,-0.474 1.32,-0.315 4.44,1.035 9.35,4.051 4.91,3.016 12.58,6.489 23.02,10.419 5.22,1.966 10.43,3.931 15.65,5.896 -8.28,-3.958 -16.55,-7.915 -24.83,-11.872 -8.28,-3.957 -16.56,-7.914 -24.84,-11.871 -0.05,0.642 -0.11,1.284 -0.17,1.925 z"
   fill="#ffffff"
   fill-rule="nonzero"
   opacity="1"
   stroke="none"
   id="path702" />
<path
   d="m 2209.38,424.612 c -9.94,5.168 -16.32,9.138 -19.15,11.909 -1.42,1.386 -2.83,2.772 -4.25,4.157 7.01,-3.7 14.02,-7.4 21.02,-11.1 7.01,-3.699 14.02,-7.399 21.02,-11.099 -0.62,-0.27 -1.24,-0.54 -1.87,-0.81 -1.24,-0.54 -6.84,1.774 -16.77,6.943 z"
   fill="#ffffff"
   fill-rule="nonzero"
   opacity="1"
   stroke="none"
   id="path704" />
<path
   d="m 2259.03,426.362 c 0.17,0.446 0.35,0.893 0.53,1.34 -0.18,-0.447 -0.36,-0.894 -0.53,-1.34 -0.18,-0.447 -0.36,-0.894 -0.53,-1.34 0.17,0.446 0.35,0.893 0.53,1.34 z"
   fill="#ffffff"
   fill-rule="nonzero"
   opacity="1"
   stroke="none"
   id="path706" />
<path
   d="m 2263.93,444.254 c 1.5,5.089 2.99,10.179 4.49,15.268 -1.5,-5.089 -2.99,-10.179 -4.49,-15.268 -1.49,-5.09 -2.99,-10.179 -4.49,-15.269 1.5,5.09 3,10.179 4.49,15.269 z"
   fill="#ffffff"
   fill-rule="nonzero"
   opacity="1"
   stroke="none"
   id="path708" />
<path
   d="m 2254.08,445.98 c 0.89,4.606 1.78,9.211 2.67,13.816 -0.89,-4.605 -1.78,-9.21 -2.67,-13.816 -0.89,-4.605 -1.78,-9.211 -2.67,-13.816 0.89,4.605 1.78,9.211 2.67,13.816 z"
   fill="#ffffff"
   fill-rule="nonzero"
   opacity="1"
   stroke="none"
   id="path710" />
<path
   d="m 2318.72,446.452 c 1.23,0.754 2.45,1.508 3.68,2.263 -1.23,-0.755 -2.45,-1.509 -3.68,-2.263 -1.23,-0.754 -2.46,-1.508 -3.69,-2.262 1.23,0.754 2.46,1.508 3.69,2.262 z"
   fill="#ffffff"
   fill-rule="nonzero"
   opacity="1"
   stroke="none"
   id="path712" />
<path
   d="m 2330.27,447.462 c 0.41,0.251 0.82,0.502 1.23,0.754 -0.41,-0.252 -0.82,-0.503 -1.23,-0.754 -0.41,-0.252 -0.82,-0.503 -1.23,-0.754 0.41,0.251 0.82,0.502 1.23,0.754 z"
   fill="#ffffff"
   fill-rule="nonzero"
   opacity="1"
   stroke="none"
   id="path714" />
<path
   d="m 2327.26,452.373 c 1.19,1.182 2.38,2.364 3.57,3.546 -1.79,0.706 -3.58,1.412 -5.36,2.119 -1.79,0.706 -3.58,1.412 -5.36,2.119 2.43,-0.651 4.85,-1.301 7.28,-1.951 4.86,-1.301 7.33,-2.379 7.4,-3.235 0.07,-0.856 -1.76,-2.094 -5.5,-3.714 -1.87,-0.81 -3.74,-1.62 -5.61,-2.43 1.19,1.182 2.39,2.364 3.58,3.546 z"
   fill="#ffffff"
   fill-rule="nonzero"
   opacity="1"
   stroke="none"
   id="path716" />
<path
   d="m 2344.89,457.794 c 3.95,4.225 6.96,9.232 9.04,15.019 2.08,5.787 3.73,9.165 4.94,10.133 0.6,0.484 1.2,0.968 1.81,1.452 -1.22,-3.34 -2.44,-6.68 -3.65,-10.021 -2.44,-6.68 -6.06,-12.171 -10.85,-16.471 -2.4,-2.15 -4.8,-4.3 -7.2,-6.45 1.97,2.113 3.94,4.225 5.91,6.338 z"
   fill="#ffffff"
   fill-rule="nonzero"
   opacity="1"
   stroke="none"
   id="path718" />
<path
   d="m 2179.86,458.901 c -3.28,5.534 -6.57,11.068 -9.86,16.602 0.12,-1.284 0.23,-2.568 0.34,-3.851 0.22,-2.568 2.31,-6.698 6.26,-12.39 1.97,-2.846 3.94,-5.692 5.92,-8.538 -0.43,-0.037 -0.86,-0.075 -1.29,-0.112 -0.85,-0.075 -4.86,6.259 -12.01,19.002 -3.57,6.371 -7.14,12.742 -10.72,19.113 0.64,0.057 1.28,0.113 1.93,0.169 0.64,0.056 1.28,0.112 1.92,0.168 -0.07,0.856 -0.15,1.712 -0.22,2.567 -0.15,1.712 0.61,2.857 2.28,3.434 1.68,0.578 5.79,-2.081 12.34,-7.977 6.56,-5.896 10.45,-8.573 11.7,-8.033 1.25,0.54 2.49,6.039 3.73,16.496 1.25,10.457 -1.26,16.922 -7.51,19.394 -3.13,1.236 -6.25,2.472 -9.38,3.708 0.37,0.679 0.74,1.359 1.12,2.038 0.74,1.359 4.22,1.016 10.43,-1.028 6.22,-2.045 9.42,-4.137 9.61,-6.276 0.09,-1.07 0.18,-2.14 0.28,-3.21 2.12,0.401 4.24,0.802 6.36,1.203 4.24,0.802 8.12,-1.662 11.64,-7.392 3.52,-5.729 5.2,-10.11 5.03,-13.143 -0.08,-1.516 -0.17,-3.033 -0.25,-4.549 -4.33,0.268 -8.67,0.536 -13,0.804 -8.68,0.536 -13.13,-0.284 -13.37,-2.461 -0.12,-1.089 -0.24,-2.178 -0.36,-3.266 6.86,0.384 13.73,0.768 20.59,1.152 6.87,0.385 13.73,0.769 20.6,1.153 -7.86,-1.334 -15.72,-2.667 -23.58,-4.001 -15.72,-2.666 -24.98,-2.828 -27.77,-0.485 -1.4,1.172 -2.79,2.343 -4.19,3.515 0.17,-1.926 0.34,-3.851 0.5,-5.777 0.34,-3.852 2.26,-6.056 5.76,-6.612 3.49,-0.557 12.68,0.46 27.54,3.053 14.87,2.592 22.75,3.711 23.64,3.358 0.89,-0.353 1.7,-2.223 2.43,-5.609 0.73,-3.386 1.75,-5.237 3.07,-5.552 1.32,-0.316 2.02,-0.902 2.1,-1.758 0.07,-0.856 -8.87,-4.655 -26.82,-11.398 -17.95,-6.742 -30.21,-4.58 -36.79,6.489 z"
   fill="#ffffff"
   fill-rule="nonzero"
   opacity="1"
   stroke="none"
   id="path720" />
<path
   d="m 2322.45,462.948 c -5.75,1.654 -11.5,3.308 -17.25,4.961 7.96,2.636 15.93,5.272 23.89,7.908 7.96,2.636 15.92,5.272 23.89,7.908 -1.2,-3.554 -2.4,-7.108 -3.6,-10.663 -2.4,-7.108 -4.61,-11.398 -6.64,-12.869 -2.03,-1.47 -8.79,-0.552 -20.29,2.755 z"
   fill="#ffffff"
   fill-rule="nonzero"
   opacity="1"
   stroke="none"
   id="path722" />
<path
   d="m 2257.81,462.476 c -0.46,0.391 -0.93,0.781 -1.39,1.172 0.64,0.056 1.28,0.112 1.92,0.168 1.29,0.112 2.18,-0.241 2.68,-1.059 0.25,-0.41 0.5,-0.819 0.76,-1.228 -0.43,-0.038 -0.86,-0.075 -1.29,-0.112 -0.85,-0.075 -1.75,0.278 -2.68,1.059 z"
   fill="#ffffff"
   fill-rule="nonzero"
   opacity="1"
   stroke="none"
   id="path724" />
<path
   d="m 2266.86,462.619 c 0.4,0.252 0.81,0.503 1.22,0.754 -0.41,-0.251 -0.82,-0.502 -1.22,-0.754 -0.41,-0.251 -0.82,-0.502 -1.23,-0.754 0.41,0.252 0.82,0.503 1.23,0.754 z"
   fill="#ffffff"
   fill-rule="nonzero"
   opacity="1"
   stroke="none"
   id="path726" />
<path
   d="m 2298.31,465.367 c 1.05,0.307 2.1,0.615 3.15,0.922 -1.05,-0.307 -2.1,-0.615 -3.15,-0.922 -1.05,-0.307 -2.1,-0.615 -3.16,-0.922 1.06,0.307 2.11,0.615 3.16,0.922 z"
   fill="#ffffff"
   fill-rule="nonzero"
   opacity="1"
   stroke="none"
   id="path728" />
<path
   d="m 2252.4,465.237 c 0.83,0.289 1.67,0.578 2.51,0.866 -0.84,-0.288 -1.68,-0.577 -2.51,-0.866 -0.84,-0.289 -1.68,-0.577 -2.51,-0.866 0.83,0.289 1.67,0.577 2.51,0.866 z"
   fill="#ffffff"
   fill-rule="nonzero"
   opacity="1"
   stroke="none"
   id="path730" />
<path
   d="m 2261.38,466.022 c 0.41,0.251 0.82,0.503 1.23,0.754 -0.41,-0.251 -0.82,-0.503 -1.23,-0.754 -0.41,-0.251 -0.81,-0.503 -1.22,-0.754 0.41,0.251 0.81,0.503 1.22,0.754 z"
   fill="#ffffff"
   fill-rule="nonzero"
   opacity="1"
   stroke="none"
   id="path732" />
<path
   d="m 2281.11,469.686 c 1.86,1.024 3.71,2.048 5.56,3.072 -0.59,-0.698 -1.17,-1.396 -1.76,-2.094 -1.17,-1.396 -3.02,-2.42 -5.55,-3.072 -1.27,-0.326 -2.53,-0.652 -3.8,-0.978 1.85,1.024 3.7,2.048 5.55,3.072 z"
   fill="#ffffff"
   fill-rule="nonzero"
   opacity="1"
   stroke="none"
   id="path734" />
<path
   d="m 2240.81,471.987 c 0.12,1.088 0.24,2.177 0.36,3.265 0.31,-1.051 0.62,-2.102 0.93,-3.153 0.3,-1.051 0.61,-2.103 0.92,-3.154 -0.43,-0.037 -0.86,-0.074 -1.29,-0.112 -0.42,-0.037 -0.85,-0.075 -1.28,-0.112 0.12,1.089 0.24,2.177 0.36,3.266 z"
   fill="#ffffff"
   fill-rule="nonzero"
   opacity="1"
   stroke="none"
   id="path736" />
<path
   d="m 2279.55,472.783 c 0.62,0.27 1.25,0.541 1.87,0.811 -0.62,-0.27 -1.25,-0.541 -1.87,-0.811 -0.62,-0.27 -1.25,-0.54 -1.87,-0.81 0.62,0.27 1.25,0.54 1.87,0.81 z"
   fill="#ffffff"
   fill-rule="nonzero"
   opacity="1"
   stroke="none"
   id="path738" />
<path
   d="m 2289.18,473.625 c 0.41,0.251 0.82,0.502 1.23,0.754 -0.41,-0.252 -0.82,-0.503 -1.23,-0.754 -0.41,-0.252 -0.82,-0.503 -1.23,-0.754 0.41,0.251 0.82,0.502 1.23,0.754 z"
   fill="#ffffff"
   fill-rule="nonzero"
   opacity="1"
   stroke="none"
   id="path740" />
<path
   d="m 2303.83,476.198 c 0.59,0.698 1.17,1.396 1.76,2.094 -0.59,-0.698 -1.17,-1.396 -1.76,-2.094 -0.59,-0.698 -1.17,-1.396 -1.76,-2.094 0.59,0.698 1.17,1.396 1.76,2.094 z"
   fill="#ffffff"
   fill-rule="nonzero"
   opacity="1"
   stroke="none"
   id="path742" />
<path
   d="m 2298,476.335 c -0.04,0.428 -0.08,0.856 -0.12,1.284 0.65,0.056 1.29,0.112 1.93,0.168 0.64,0.056 1.28,0.112 1.93,0.169 -0.61,-0.484 -1.21,-0.968 -1.82,-1.452 -0.6,-0.484 -1.21,-0.969 -1.81,-1.453 -0.04,0.428 -0.08,0.856 -0.11,1.284 z"
   fill="#ffffff"
   fill-rule="nonzero"
   opacity="1"
   stroke="none"
   id="path744" />
<path
   d="m 2289.54,476.89 c 0.18,0.447 0.35,0.893 0.53,1.34 -0.18,-0.447 -0.35,-0.893 -0.53,-1.34 -0.18,-0.447 -0.35,-0.893 -0.53,-1.34 0.18,0.447 0.35,0.893 0.53,1.34 z"
   fill="#ffffff"
   fill-rule="nonzero"
   opacity="1"
   stroke="none"
   id="path746" />
<path
   d="m 2330.04,479.781 c 0.4,0.251 0.81,0.503 1.22,0.754 -0.41,-0.251 -0.82,-0.503 -1.22,-0.754 -0.41,-0.251 -0.82,-0.503 -1.23,-0.754 0.41,0.251 0.82,0.503 1.23,0.754 z"
   fill="#ffffff"
   fill-rule="nonzero"
   opacity="1"
   stroke="none"
   id="path748" />
<path
   d="m 2310.55,480.666 c 1.23,0.754 2.46,1.508 3.69,2.262 -1.23,-0.754 -2.46,-1.508 -3.69,-2.262 -1.22,-0.754 -2.45,-1.508 -3.68,-2.262 1.23,0.754 2.46,1.508 3.68,2.262 z"
   fill="#ffffff"
   fill-rule="nonzero"
   opacity="1"
   stroke="none"
   id="path750" />
<path
   d="m 2270,478.417 c 0.16,0.661 0.32,1.322 0.48,1.982 -0.16,-0.66 -0.32,-1.321 -0.48,-1.982 -0.16,-0.66 -0.31,-1.321 -0.47,-1.981 0.16,0.66 0.31,1.321 0.47,1.981 z"
   fill="#ffffff"
   fill-rule="nonzero"
   opacity="1"
   stroke="none"
   id="path752" />
<path
   d="m 2339.97,484.529 c 1.66,0.792 3.31,1.583 4.97,2.375 0.03,-0.428 0.07,-0.856 0.11,-1.284 0.07,-0.856 -1.58,-1.647 -4.97,-2.374 -1.69,-0.364 -3.38,-0.727 -5.08,-1.091 1.66,0.792 3.31,1.583 4.97,2.374 z"
   fill="#ffffff"
   fill-rule="nonzero"
   opacity="1"
   stroke="none"
   id="path754" />
<path
   d="m 2237.68,478.181 c -0.27,0.623 -0.54,1.247 -0.81,1.87 0.45,-0.177 0.9,-0.353 1.34,-0.53 0.45,-0.176 0.9,-0.353 1.34,-0.53 -0.17,-0.446 -0.35,-0.893 -0.53,-1.34 -0.17,-0.446 -0.35,-0.893 -0.53,-1.339 -0.27,0.623 -0.54,1.246 -0.81,1.869 z"
   fill="#ffffff"
   fill-rule="nonzero"
   opacity="1"
   stroke="none"
   id="path756" />
<path
   d="m 2284.85,486.182 c -0.35,1.479 -0.69,2.958 -1.04,4.437 0.43,0.038 0.86,0.075 1.29,0.112 0.42,0.038 0.85,0.075 1.28,0.113 -0.08,-1.517 -0.17,-3.033 -0.25,-4.55 -0.08,-1.516 -0.16,-3.033 -0.25,-4.549 -0.34,1.479 -0.69,2.958 -1.03,4.437 z"
   fill="#ffffff"
   fill-rule="nonzero"
   opacity="1"
   stroke="none"
   id="path758" />
<path
   d="m 2346.75,488.356 c -0.25,0.409 -0.5,0.818 -0.75,1.228 0.42,0.037 0.85,0.074 1.28,0.112 0.43,0.037 0.86,0.074 1.28,0.112 -0.17,-0.447 -0.35,-0.893 -0.53,-1.34 -0.17,-0.447 -0.35,-0.893 -0.53,-1.34 -0.25,0.409 -0.5,0.819 -0.75,1.228 z"
   fill="#ffffff"
   fill-rule="nonzero"
   opacity="1"
   stroke="none"
   id="path760" />
<path
   d="m 2350.49,489.976 c -0.25,0.409 -0.5,0.819 -0.75,1.228 0.4,0.251 0.81,0.502 1.22,0.754 0.82,0.502 2.32,0.633 4.5,0.392 1.08,-0.12 2.17,-0.241 3.26,-0.361 -0.6,-0.484 -1.21,-0.968 -1.81,-1.452 -1.21,-0.968 -2.28,-1.062 -3.21,-0.281 -0.47,0.391 -0.93,0.782 -1.4,1.172 -0.17,-0.447 -0.35,-0.893 -0.53,-1.34 -0.17,-0.446 -0.35,-0.893 -0.53,-1.34 -0.25,0.41 -0.5,0.819 -0.75,1.228 z"
   fill="#ffffff"
   fill-rule="nonzero"
   opacity="1"
   stroke="none"
   id="path762" />
<path
   d="m 2166.51,478.432 c -0.3,1.051 -0.61,2.102 -0.92,3.153 0.47,-0.39 0.93,-0.781 1.4,-1.171 0.93,-0.781 1.24,-1.832 0.92,-3.154 -0.16,-0.66 -0.32,-1.321 -0.47,-1.981 -0.31,1.051 -0.62,2.102 -0.93,3.153 z"
   fill="#000000"
   fill-rule="nonzero"
   opacity="1"
   stroke="none"
   id="path764" />
<path
   d="m 2238.57,482.787 c 0.18,0.446 0.36,0.893 0.53,1.34 -0.17,-0.447 -0.35,-0.894 -0.53,-1.34 -0.17,-0.447 -0.35,-0.894 -0.52,-1.34 0.17,0.446 0.35,0.893 0.52,1.34 z"
   fill="#ffffff"
   fill-rule="nonzero"
   opacity="1"
   stroke="none"
   id="path766" />
<path
   d="m 2276.5,485.453 c 0.41,0.252 0.82,0.503 1.23,0.754 -0.41,-0.251 -0.82,-0.502 -1.23,-0.754 -0.41,-0.251 -0.82,-0.503 -1.22,-0.754 0.4,0.251 0.81,0.503 1.22,0.754 z"
   fill="#ffffff"
   fill-rule="nonzero"
   opacity="1"
   stroke="none"
   id="path768" />
<path
   d="m 2280.35,485.79 c -0.44,0.176 -0.89,0.353 -1.34,0.529 0.18,0.447 0.36,0.894 0.53,1.34 0.18,0.447 0.36,0.893 0.53,1.34 0.27,-0.623 0.54,-1.246 0.81,-1.87 0.27,-0.623 0.54,-1.246 0.81,-1.869 -0.44,0.176 -0.89,0.353 -1.34,0.53 z"
   fill="#ffffff"
   fill-rule="nonzero"
   opacity="1"
   stroke="none"
   id="path770" />
<path
   d="m 2363.74,493.721 c -0.03,0.428 -0.07,0.856 -0.11,1.284 0.86,0.075 1.71,0.15 2.57,0.224 0.86,0.075 1.71,0.15 2.57,0.225 -0.82,-0.503 -1.64,-1.006 -2.46,-1.509 -0.82,-0.502 -1.63,-1.005 -2.45,-1.508 -0.04,0.428 -0.08,0.856 -0.12,1.284 z"
   fill="#ffffff"
   fill-rule="nonzero"
   opacity="1"
   stroke="none"
   id="path772" />
<path
   d="m 2314.68,492.669 c -0.52,1.032 -1.04,2.065 -1.56,3.097 0.91,-0.567 1.82,-1.134 2.73,-1.701 0.91,-0.567 1.83,-1.134 2.74,-1.701 -0.52,1.032 -1.04,2.064 -1.57,3.097 -0.52,1.032 -1.04,2.065 -1.56,3.097 0.64,0.056 1.28,0.112 1.93,0.168 1.28,0.113 2.48,-1.292 3.6,-4.212 0.56,-1.461 1.11,-2.921 1.67,-4.382 -0.46,0.391 -0.93,0.782 -1.39,1.172 -0.93,0.781 -2,0.688 -3.21,-0.28 -0.61,-0.484 -1.21,-0.968 -1.82,-1.452 -0.52,1.032 -1.04,2.065 -1.56,3.097 z"
   fill="#ffffff"
   fill-rule="nonzero"
   opacity="1"
   stroke="none"
   id="path774" />
<path
   d="m 2357.21,494.444 c -0.03,0.428 -0.07,0.856 -0.11,1.284 0.86,0.075 1.71,0.15 2.57,0.224 0.86,0.075 1.71,0.15 2.57,0.225 -0.82,-0.503 -1.64,-1.006 -2.46,-1.508 -0.82,-0.503 -1.64,-1.006 -2.45,-1.509 -0.04,0.428 -0.08,0.856 -0.12,1.284 z"
   fill="#ffffff"
   fill-rule="nonzero"
   opacity="1"
   stroke="none"
   id="path776" />
<path
   d="m 2234.39,486.302 c -0.25,0.409 -0.51,0.818 -0.76,1.227 0.41,0.252 0.82,0.503 1.23,0.754 0.41,0.252 0.82,0.503 1.23,0.754 -0.16,-0.66 -0.32,-1.321 -0.48,-1.981 -0.15,-0.661 -0.31,-1.322 -0.47,-1.982 -0.25,0.409 -0.5,0.818 -0.75,1.228 z"
   fill="#ffffff"
   fill-rule="nonzero"
   opacity="1"
   stroke="none"
   id="path778" />
<path
   d="m 2322.69,497.249 c -0.77,1.442 -1.55,2.884 -2.32,4.325 1.16,-0.976 2.33,-1.952 3.49,-2.929 1.16,-0.976 2.33,-1.952 3.49,-2.929 -0.39,-0.465 -0.78,-0.93 -1.17,-1.396 -0.39,-0.465 -0.78,-0.93 -1.17,-1.396 -0.78,1.442 -1.55,2.884 -2.32,4.325 z"
   fill="#ffffff"
   fill-rule="nonzero"
   opacity="1"
   stroke="none"
   id="path780" />
<path
   d="m 2376.94,498.108 c 1.06,0.308 2.11,0.615 3.16,0.923 -1.05,-0.308 -2.1,-0.615 -3.16,-0.923 -1.05,-0.307 -2.1,-0.615 -3.15,-0.922 1.05,0.307 2.1,0.615 3.15,0.922 z"
   fill="#ffffff"
   fill-rule="nonzero"
   opacity="1"
   stroke="none"
   id="path782" />
<path
   d="m 2163.27,485.91 c -0.3,1.052 -0.61,2.103 -0.92,3.154 0.31,-1.051 0.62,-2.102 0.92,-3.154 0.31,-1.051 0.62,-2.102 0.93,-3.153 -0.31,1.051 -0.62,2.102 -0.93,3.153 z"
   fill="#000000"
   fill-rule="nonzero"
   opacity="1"
   stroke="none"
   id="path784" />
<path
   d="m 2204.41,488.857 c -4.78,0.445 -7.09,2.184 -6.92,5.217 0.08,1.516 0.16,3.033 0.25,4.549 3.1,-1.022 6.21,-2.044 9.32,-3.066 6.22,-2.045 9.59,-3.69 10.13,-4.936 0.27,-0.623 0.54,-1.247 0.81,-1.87 -1.07,-0.093 -2.14,-0.187 -3.21,-0.28 -2.14,-0.187 -5.6,-0.058 -10.38,0.386 z"
   fill="#000000"
   fill-rule="nonzero"
   opacity="1"
   stroke="none"
   id="path786" />
<path
   d="m 2232.37,494.534 c 0.09,1.517 0.17,3.033 0.25,4.549 0.35,-1.479 0.69,-2.958 1.04,-4.437 0.34,-1.479 0.69,-2.958 1.03,-4.437 -0.43,-0.037 -0.85,-0.075 -1.28,-0.112 -0.43,-0.037 -0.86,-0.075 -1.29,-0.112 0.09,1.516 0.17,3.033 0.25,4.549 z"
   fill="#ffffff"
   fill-rule="nonzero"
   opacity="1"
   stroke="none"
   id="path788" />
<path
   d="m 2364.02,505.387 c 0.78,0.931 5.88,1.808 15.29,2.63 9.42,0.822 17.05,2.351 22.89,4.586 5.84,2.235 9.11,4.246 9.82,6.033 0.7,1.786 0.07,4.102 -1.9,6.948 -0.99,1.423 -1.98,2.846 -2.96,4.269 1.66,-1.794 3.33,-3.589 5,-5.384 3.33,-3.59 4.43,-6.297 3.29,-8.121 -1.13,-1.823 -4.42,-3.62 -9.88,-5.39 -5.45,-1.77 -13.93,-3.373 -25.45,-4.811 -5.76,-0.718 -11.51,-1.437 -17.27,-2.155 0.39,0.465 0.78,0.93 1.17,1.395 z"
   fill="#ffffff"
   fill-rule="nonzero"
   opacity="1"
   stroke="none"
   id="path790" />
<path
   d="m 2130.14,487.544 c -1.78,0.706 -3.57,1.413 -5.36,2.119 1.31,-0.102 2.61,-0.204 3.91,-0.305 2.61,-0.204 4.39,-0.91 5.36,-2.119 0.49,-0.605 0.97,-1.21 1.45,-1.814 -1.78,0.706 -3.57,1.413 -5.36,2.119 z"
   fill="#ffffff"
   fill-rule="nonzero"
   opacity="1"
   stroke="none"
   id="path792" />
<path
   d="m 2139.6,490.311 c 1.02,0.735 2.03,1.47 3.05,2.206 -0.38,-0.679 -0.75,-1.359 -1.12,-2.038 -0.74,-1.359 -1.76,-2.094 -3.04,-2.206 -0.64,-0.056 -1.28,-0.112 -1.93,-0.168 1.02,0.735 2.03,1.47 3.04,2.206 z"
   fill="#ffffff"
   fill-rule="nonzero"
   opacity="1"
   stroke="none"
   id="path794" />
<path
   d="m 2330.22,514.724 c 7.57,7.129 13.4,11.95 17.49,14.464 2.05,1.257 4.09,2.513 6.14,3.77 -0.16,-0.661 -0.32,-1.321 -0.47,-1.982 -0.32,-1.321 -2.52,-3.238 -6.62,-5.752 -4.09,-2.513 -6.7,-4.682 -7.84,-6.506 -1.13,-1.824 -4.76,-4.728 -10.88,-8.712 -3.06,-1.992 -6.12,-3.984 -9.18,-5.976 3.79,3.564 7.57,7.129 11.36,10.694 z"
   fill="#ffffff"
   fill-rule="nonzero"
   opacity="1"
   stroke="none"
   id="path796" />
<path
   d="m 2121.46,490.666 c 0.18,0.447 0.36,0.894 0.53,1.34 0.25,-0.409 0.51,-0.818 0.76,-1.227 0.25,-0.41 0.5,-0.819 0.75,-1.228 -0.43,-0.038 -0.85,-0.075 -1.28,-0.112 -0.43,-0.038 -0.86,-0.075 -1.29,-0.112 0.18,0.446 0.36,0.893 0.53,1.339 z"
   fill="#ffffff"
   fill-rule="nonzero"
   opacity="1"
   stroke="none"
   id="path798" />
<path
   d="m 2145.16,493.383 c 0.41,0.251 0.82,0.503 1.23,0.754 -0.41,-0.251 -0.82,-0.503 -1.23,-0.754 -0.41,-0.251 -0.82,-0.503 -1.23,-0.754 0.41,0.251 0.82,0.503 1.23,0.754 z"
   fill="#ffffff"
   fill-rule="nonzero"
   opacity="1"
   stroke="none"
   id="path800" />
<path
   d="m 2227.93,508.375 c -0.67,2.745 -1.34,5.489 -2.01,8.233 0.46,-0.391 0.93,-0.781 1.39,-1.172 0.94,-0.781 1.61,-3.525 2.02,-8.232 0.2,-2.354 0.41,-4.707 0.61,-7.061 -0.67,2.744 -1.34,5.488 -2.01,8.232 z"
   fill="#ffffff"
   fill-rule="nonzero"
   opacity="1"
   stroke="none"
   id="path802" />
<path
   d="m 2310.6,509.776 c -0.5,0.818 -1.01,1.637 -1.51,2.455 1.5,0.131 3,0.262 4.49,0.393 1.5,0.131 3,0.262 4.5,0.392 -0.16,-0.66 -0.32,-1.321 -0.48,-1.981 -0.31,-1.322 -1.31,-2.271 -2.98,-2.848 -1.68,-0.578 -3.02,-0.048 -4.02,1.589 z"
   fill="#ffffff"
   fill-rule="nonzero"
   opacity="1"
   stroke="none"
   id="path804" />
<path
   d="m 2373.81,519.179 c -0.25,0.409 -0.5,0.818 -0.75,1.227 4.45,0.821 8.91,1.641 13.36,2.462 4.46,0.82 8.92,1.641 13.37,2.461 0.04,-0.428 0.08,-0.856 0.11,-1.284 0.08,-0.856 -4.13,-2.085 -12.61,-3.689 -8.48,-1.603 -12.98,-1.996 -13.48,-1.177 z"
   fill="#ffffff"
   fill-rule="nonzero"
   opacity="1"
   stroke="none"
   id="path806" />
<path
   d="m 2310.09,515.553 c -0.05,0.642 -0.11,1.284 -0.16,1.926 1.28,0.112 2.56,0.224 3.85,0.336 1.28,0.112 2.56,0.224 3.85,0.337 -0.16,-0.661 -0.32,-1.322 -0.48,-1.982 -0.31,-1.321 -1.54,-2.075 -3.68,-2.262 -1.07,-0.094 -2.14,-0.187 -3.21,-0.281 -0.05,0.642 -0.11,1.284 -0.17,1.926 z"
   fill="#ffffff"
   fill-rule="nonzero"
   opacity="1"
   stroke="none"
   id="path808" />
<path
   d="m 2279.87,513.559 c -0.25,0.41 -0.5,0.819 -0.76,1.228 0.41,0.251 0.82,0.503 1.23,0.754 0.82,0.503 2.32,0.634 4.5,0.393 1.08,-0.121 2.17,-0.241 3.26,-0.362 -0.18,-0.446 -0.35,-0.893 -0.53,-1.34 -0.35,-0.893 -1.6,-1.433 -3.74,-1.62 -2.14,-0.187 -3.46,0.129 -3.96,0.947 z"
   fill="#ffffff"
   fill-rule="nonzero"
   opacity="1"
   stroke="none"
   id="path810" />
<path
   d="m 2156.99,506.059 c 0.37,0.679 0.74,1.358 1.11,2.038 -0.37,-0.68 -0.74,-1.359 -1.11,-2.038 -0.38,-0.68 -0.75,-1.359 -1.12,-2.038 0.37,0.679 0.74,1.358 1.12,2.038 z"
   fill="#ffffff"
   fill-rule="nonzero"
   opacity="1"
   stroke="none"
   id="path812" />
<path
   d="m 2291.03,519.062 c -0.7,0.586 -1.4,1.172 -2.09,1.758 0.39,0.465 0.78,0.93 1.17,1.395 0.78,0.931 2.26,1.276 4.44,1.035 1.08,-0.121 2.17,-0.241 3.26,-0.362 -0.78,-0.93 -1.56,-1.861 -2.34,-2.792 -0.78,-0.93 -1.56,-1.861 -2.35,-2.791 -0.69,0.585 -1.39,1.171 -2.09,1.757 z"
   fill="#ffffff"
   fill-rule="nonzero"
   opacity="1"
   stroke="none"
   id="path814" />
<path
   d="m 2285.28,525.674 c -0.72,0.8 -1.43,1.6 -2.15,2.4 1.5,0.131 2.99,0.261 4.49,0.392 1.5,0.131 3,0.262 4.5,0.393 -0.79,-0.931 -1.57,-1.862 -2.35,-2.792 -0.78,-0.931 -1.56,-1.861 -2.34,-2.792 -0.72,0.8 -1.43,1.6 -2.15,2.399 z"
   fill="#ffffff"
   fill-rule="nonzero"
   opacity="1"
   stroke="none"
   id="path816" />
<path
   d="m 2298.81,526.21 c -0.89,0.353 -1.18,1.19 -0.86,2.511 0.31,1.322 1.97,2.113 4.97,2.375 1.49,0.131 2.99,0.261 4.49,0.392 -0.57,-0.912 -1.14,-1.824 -1.7,-2.736 -1.14,-1.823 -2.35,-2.791 -3.63,-2.904 -1.28,-0.112 -2.37,0.009 -3.27,0.362 z"
   fill="#ffffff"
   fill-rule="nonzero"
   opacity="1"
   stroke="none"
   id="path818" />
<path
   d="m 2161.28,516.136 c 0.39,0.465 0.78,0.93 1.17,1.396 -0.39,-0.466 -0.78,-0.931 -1.17,-1.396 -0.39,-0.466 -0.78,-0.931 -1.17,-1.396 0.39,0.465 0.78,0.93 1.17,1.396 z"
   fill="#ffffff"
   fill-rule="nonzero"
   opacity="1"
   stroke="none"
   id="path820" />
<path
   d="m 2380.53,538.523 c 4.22,1.015 8.45,2.031 12.67,3.047 -0.18,-0.447 -0.35,-0.893 -0.53,-1.34 -0.35,-0.893 -4.58,-1.909 -12.67,-3.047 -4.05,-0.569 -8.09,-1.138 -12.14,-1.707 4.22,1.015 8.45,2.031 12.67,3.047 z"
   fill="#ffffff"
   fill-rule="nonzero"
   opacity="1"
   stroke="none"
   id="path822" />
<path
   d="m 2162.87,520.155 c 0.18,0.447 0.35,0.894 0.53,1.34 -0.18,-0.446 -0.35,-0.893 -0.53,-1.34 -0.18,-0.446 -0.35,-0.893 -0.53,-1.34 0.18,0.447 0.35,0.894 0.53,1.34 z"
   fill="#ffffff"
   fill-rule="nonzero"
   opacity="1"
   stroke="none"
   id="path824" />
<path
   d="m 2291.78,532.71 c -0.89,0.353 -1.79,0.706 -2.68,1.06 0.35,0.893 0.71,1.786 1.06,2.679 0.7,1.787 2.36,2.578 4.97,2.375 1.3,-0.102 2.6,-0.204 3.9,-0.306 -0.14,-0.874 -0.28,-1.749 -0.41,-2.623 -0.28,-1.75 -1.05,-2.894 -2.29,-3.434 -1.25,-0.54 -2.76,-0.457 -4.55,0.249 z"
   fill="#ffffff"
   fill-rule="nonzero"
   opacity="1"
   stroke="none"
   id="path826" />
<path
   d="m 2256.36,530.91 c -3.07,0.594 -5.09,1.496 -6.06,2.705 -0.48,0.604 -0.96,1.209 -1.45,1.813 1.56,-0.511 3.11,-1.022 4.66,-1.533 3.11,-1.022 7.18,-0.667 12.2,1.065 5.02,1.733 8.69,4.209 10.99,7.429 2.31,3.22 3.74,6.579 4.3,10.077 0.55,3.498 1.26,5.284 2.12,5.359 0.42,0.038 0.85,0.075 1.28,0.112 -1.04,-2.893 -2.08,-5.787 -3.12,-8.681 -2.08,-5.787 -3.91,-9.611 -5.47,-11.473 -1.56,-1.861 -4.42,-3.62 -8.59,-5.278 -4.17,-1.658 -7.79,-2.189 -10.86,-1.595 z"
   fill="#ffffff"
   fill-rule="nonzero"
   opacity="1"
   stroke="none"
   id="path828" />
<path
   d="m 2304.45,535.757 c -0.45,0.177 -0.89,0.353 -1.34,0.53 0.35,0.893 0.7,1.787 1.06,2.68 0.7,1.786 2.36,2.578 4.96,2.374 1.31,-0.102 2.61,-0.204 3.91,-0.305 -0.35,-0.894 -0.7,-1.787 -1.06,-2.68 -0.7,-1.787 -1.91,-2.755 -3.62,-2.904 -1.72,-0.15 -3.02,-0.048 -3.91,0.305 z"
   fill="#ffffff"
   fill-rule="nonzero"
   opacity="1"
   stroke="none"
   id="path830" />
<path
   d="m 2167.08,538.633 c 0.96,8.708 2.05,13.546 3.26,14.514 0.6,0.484 1.21,0.968 1.81,1.452 -1.09,-4.838 -2.17,-9.676 -3.26,-14.514 -1.09,-4.838 -2.17,-9.676 -3.26,-14.514 0.48,4.354 0.96,8.708 1.45,13.062 z"
   fill="#ffffff"
   fill-rule="nonzero"
   opacity="1"
   stroke="none"
   id="path832" />
<path
   d="m 2366.34,552.807 c -1.09,2.707 -2.19,5.413 -3.29,8.12 0.64,0.056 1.28,0.112 1.92,0.168 1.29,0.112 2.45,-0.864 3.49,-2.929 0.53,-1.032 1.05,-2.065 1.57,-3.097 -0.11,1.284 -0.23,2.567 -0.34,3.851 -0.11,1.284 -0.22,2.568 -0.33,3.852 0.42,0.037 0.85,0.074 1.28,0.112 0.43,0.037 0.85,0.075 1.28,0.112 0.06,-0.642 0.11,-1.284 0.17,-1.926 0.06,-0.642 0.11,-1.284 0.17,-1.925 0.37,0.679 0.74,1.358 1.11,2.037 0.38,0.68 0.75,1.359 1.12,2.038 0.63,-2.316 1.27,-4.632 1.9,-6.948 0.63,-2.317 1.27,-4.633 1.9,-6.949 -0.09,1.07 -0.19,2.139 -0.28,3.209 -0.09,1.07 -0.19,2.14 -0.28,3.21 0.45,-0.177 0.89,-0.353 1.34,-0.53 0.45,-0.177 0.89,-0.353 1.34,-0.53 -0.06,0.642 -0.11,1.284 -0.17,1.926 -0.05,0.642 -0.11,1.284 -0.17,1.926 -0.41,-0.252 -0.81,-0.503 -1.22,-0.754 -0.41,-0.252 -0.82,-0.503 -1.23,-0.754 0.12,1.088 0.24,2.177 0.36,3.265 0.24,2.177 1.65,3.378 4.21,3.602 2.57,0.224 4.95,-2.37 7.15,-7.784 1.1,-2.707 2.2,-5.413 3.3,-8.12 -3.84,-0.551 -7.67,-1.101 -11.5,-1.651 -7.67,-1.101 -12.6,1.055 -14.8,6.469 z"
   fill="#ffffff"
   fill-rule="nonzero"
   opacity="1"
   stroke="none"
   id="path834" />
<path
   d="m 2380.22,549.491 c 0.17,0.447 0.35,0.893 0.53,1.34 -0.18,-0.447 -0.36,-0.893 -0.53,-1.34 -0.18,-0.447 -0.36,-0.893 -0.53,-1.34 0.17,0.447 0.35,0.893 0.53,1.34 z"
   fill="#000000"
   fill-rule="nonzero"
   opacity="1"
   stroke="none"
   id="path836" />
<path
   d="m 2382.78,549.715 c 0.18,0.447 0.36,0.894 0.53,1.34 -0.17,-0.446 -0.35,-0.893 -0.53,-1.34 -0.17,-0.446 -0.35,-0.893 -0.52,-1.34 0.17,0.447 0.35,0.894 0.52,1.34 z"
   fill="#000000"
   fill-rule="nonzero"
   opacity="1"
   stroke="none"
   id="path838" />
<path
   d="m 2297.3,543.541 c -0.89,0.353 -1.79,0.707 -2.68,1.06 0.35,0.893 0.71,1.786 1.06,2.679 0.71,1.787 2.15,2.56 4.33,2.319 2.17,-0.241 3.32,-1.004 3.43,-2.288 0.11,-1.283 -0.44,-2.409 -1.65,-3.377 -1.21,-0.968 -2.7,-1.099 -4.49,-0.393 z"
   fill="#ffffff"
   fill-rule="nonzero"
   opacity="1"
   stroke="none"
   id="path840" />
<path
   d="m 2385.24,551.223 c 0.18,0.447 0.35,0.894 0.53,1.34 -0.18,-0.446 -0.35,-0.893 -0.53,-1.34 -0.18,-0.446 -0.35,-0.893 -0.53,-1.339 0.18,0.446 0.35,0.893 0.53,1.339 z"
   fill="#000000"
   fill-rule="nonzero"
   opacity="1"
   stroke="none"
   id="path842" />
<path
   d="m 2373.57,551.498 c 0.18,0.446 0.36,0.893 0.53,1.34 -0.17,-0.447 -0.35,-0.894 -0.53,-1.34 -0.17,-0.447 -0.35,-0.893 -0.53,-1.34 0.18,0.447 0.36,0.893 0.53,1.34 z"
   fill="#000000"
   fill-rule="nonzero"
   opacity="1"
   stroke="none"
   id="path844" />
<path
   d="m 2387.7,552.732 c 0.17,0.446 0.35,0.893 0.53,1.339 -0.18,-0.446 -0.36,-0.893 -0.53,-1.339 -0.18,-0.447 -0.36,-0.894 -0.53,-1.34 0.17,0.446 0.35,0.893 0.53,1.34 z"
   fill="#000000"
   fill-rule="nonzero"
   opacity="1"
   stroke="none"
   id="path846" />
<path
   d="m 2381.16,553.455 c 0.18,0.446 0.36,0.893 0.53,1.339 -0.17,-0.446 -0.35,-0.893 -0.53,-1.339 -0.17,-0.447 -0.35,-0.894 -0.53,-1.34 0.18,0.446 0.36,0.893 0.53,1.34 z"
   fill="#000000"
   fill-rule="nonzero"
   opacity="1"
   stroke="none"
   id="path848" />
<path
   d="m 2393.36,554.52 c -0.04,0.428 -0.07,0.856 -0.11,1.284 0.64,0.056 1.28,0.112 1.92,0.168 0.65,0.056 1.29,0.112 1.93,0.168 0.04,-0.428 0.07,-0.856 0.11,-1.284 0.04,-0.428 0.08,-0.855 0.11,-1.283 -0.64,-0.056 -1.28,-0.113 -1.92,-0.169 -0.64,-0.056 -1.29,-0.112 -1.93,-0.168 -0.03,0.428 -0.07,0.856 -0.11,1.284 z"
   fill="#ffffff"
   fill-rule="nonzero"
   opacity="1"
   stroke="none"
   id="path850" />
<path
   d="m 2308.99,550.384 c -0.31,1.051 -0.61,2.102 -0.92,3.153 1.07,0.094 2.14,0.187 3.21,0.28 2.14,0.187 3.52,-0.77 4.13,-2.873 0.31,-1.051 0.62,-2.102 0.92,-3.153 -1.07,-0.093 -2.14,-0.187 -3.21,-0.28 -2.14,-0.187 -3.51,0.77 -4.13,2.873 z"
   fill="#ffffff"
   fill-rule="nonzero"
   opacity="1"
   stroke="none"
   id="path852" />
<path
   d="m 2383.62,554.963 c 0.18,0.446 0.35,0.893 0.53,1.34 -0.18,-0.447 -0.35,-0.894 -0.53,-1.34 -0.18,-0.447 -0.35,-0.894 -0.53,-1.34 0.18,0.446 0.35,0.893 0.53,1.34 z"
   fill="#000000"
   fill-rule="nonzero"
   opacity="1"
   stroke="none"
   id="path854" />
<path
   d="m 2130.54,534.795 c -0.69,0.586 -1.39,1.172 -2.09,1.757 1.27,0.327 2.53,0.653 3.8,0.979 2.53,0.652 4.06,0.355 4.6,-0.891 0.27,-0.624 0.54,-1.247 0.81,-1.87 -0.84,-0.289 -1.67,-0.578 -2.51,-0.866 -1.67,-0.578 -3.21,-0.281 -4.61,0.891 z"
   fill="#ffffff"
   fill-rule="nonzero"
   opacity="1"
   stroke="none"
   id="path856" />
<path
   d="m 2371.95,555.237 c 0.18,0.447 0.36,0.893 0.53,1.34 -0.17,-0.447 -0.35,-0.893 -0.53,-1.34 -0.17,-0.447 -0.35,-0.893 -0.53,-1.34 0.18,0.447 0.36,0.893 0.53,1.34 z"
   fill="#000000"
   fill-rule="nonzero"
   opacity="1"
   stroke="none"
   id="path858" />
<path
   d="m 2386.08,556.471 c 0.17,0.446 0.35,0.893 0.53,1.34 -0.18,-0.447 -0.36,-0.894 -0.53,-1.34 -0.18,-0.447 -0.36,-0.894 -0.53,-1.34 0.17,0.446 0.35,0.893 0.53,1.34 z"
   fill="#000000"
   fill-rule="nonzero"
   opacity="1"
   stroke="none"
   id="path860" />
<path
   d="m 2366.65,556.714 c 0.16,0.661 0.32,1.321 0.47,1.982 -0.15,-0.661 -0.31,-1.321 -0.47,-1.982 -0.16,-0.66 -0.32,-1.321 -0.47,-1.982 0.15,0.661 0.31,1.322 0.47,1.982 z"
   fill="#000000"
   fill-rule="nonzero"
   opacity="1"
   stroke="none"
   id="path862" />
<path
   d="m 2374.35,557.387 c 0.16,0.661 0.32,1.321 0.48,1.982 -0.16,-0.661 -0.32,-1.321 -0.48,-1.982 -0.15,-0.66 -0.31,-1.321 -0.47,-1.982 0.16,0.661 0.32,1.322 0.47,1.982 z"
   fill="#000000"
   fill-rule="nonzero"
   opacity="1"
   stroke="none"
   id="path864" />
<path
   d="m 2391.74,558.259 c -0.04,0.428 -0.07,0.856 -0.11,1.284 0.64,0.056 1.28,0.112 1.92,0.168 0.65,0.056 1.29,0.112 1.93,0.168 0.04,-0.427 0.07,-0.855 0.11,-1.283 0.04,-0.428 0.08,-0.856 0.11,-1.284 -0.64,-0.056 -1.28,-0.112 -1.92,-0.168 -0.64,-0.056 -1.29,-0.113 -1.93,-0.169 -0.03,0.428 -0.07,0.856 -0.11,1.284 z"
   fill="#ffffff"
   fill-rule="nonzero"
   opacity="1"
   stroke="none"
   id="path866" />
<path
   d="m 2381.94,559.344 c 0.16,0.66 0.32,1.321 0.48,1.982 -0.16,-0.661 -0.32,-1.322 -0.48,-1.982 -0.15,-0.661 -0.31,-1.321 -0.47,-1.982 0.16,0.661 0.32,1.321 0.47,1.982 z"
   fill="#000000"
   fill-rule="nonzero"
   opacity="1"
   stroke="none"
   id="path868" />
<path
   d="m 2238.86,546.197 c -0.86,-0.074 -1.86,3.935 -2.99,12.028 -1.14,8.093 -0.71,15.462 1.3,22.105 2.01,6.643 4.78,11.845 8.34,15.605 3.55,3.76 8.54,5.92 14.95,6.481 6.42,0.56 10.1,0.45 11.03,-0.331 0.93,-0.781 1.24,-1.832 0.92,-3.153 -0.31,-1.321 -3.51,-1.816 -9.57,-1.483 -6.07,0.332 -11.29,-1.633 -15.66,-5.895 -4.37,-4.263 -7.2,-8.823 -8.5,-13.679 -1.3,-4.857 -1.39,-11.332 -0.25,-19.426 0.57,-4.046 1.14,-8.093 1.71,-12.14 -0.43,-0.037 -0.86,-0.074 -1.28,-0.112 z"
   fill="#ffffff"
   fill-rule="nonzero"
   opacity="1"
   stroke="none"
   id="path870" />
<path
   d="m 2384.46,560.21 c 0.17,0.447 0.35,0.893 0.53,1.34 -0.18,-0.447 -0.36,-0.893 -0.53,-1.34 -0.18,-0.447 -0.36,-0.893 -0.53,-1.34 0.17,0.447 0.35,0.893 0.53,1.34 z"
   fill="#000000"
   fill-rule="nonzero"
   opacity="1"
   stroke="none"
   id="path872" />
<path
   d="m 2391.99,562.809 c -0.27,0.623 -0.54,1.246 -0.81,1.869 0.66,-0.158 1.32,-0.316 1.98,-0.473 0.66,-0.158 1.32,-0.316 1.98,-0.474 -0.39,-0.465 -0.78,-0.931 -1.17,-1.396 -0.39,-0.465 -0.78,-0.931 -1.17,-1.396 -0.27,0.623 -0.54,1.246 -0.81,1.87 z"
   fill="#ffffff"
   fill-rule="nonzero"
   opacity="1"
   stroke="none"
   id="path874" />
<path
   d="m 2300.84,554.846 c -1.32,0.316 -1.88,1.776 -1.68,4.381 0.11,1.303 0.21,2.605 0.31,3.908 1.11,-0.335 2.21,-0.669 3.32,-1.004 2.22,-0.669 3.42,-2.073 3.6,-4.213 0.1,-1.07 0.19,-2.139 0.28,-3.209 -0.64,-0.056 -1.28,-0.112 -1.92,-0.168 -1.29,-0.113 -2.59,-0.011 -3.91,0.305 z"
   fill="#ffffff"
   fill-rule="nonzero"
   opacity="1"
   stroke="none"
   id="path876" />
<path
   d="m 2404.24,563.232 c 2.48,1.294 4.95,2.588 7.42,3.882 4.95,2.589 7.98,5.009 9.07,7.261 1.1,2.251 1.66,5.75 1.67,10.494 0.01,2.373 0.02,4.745 0.03,7.117 0.38,-1.907 0.76,-3.814 1.14,-5.721 0.77,-3.814 0.64,-7.275 -0.38,-10.382 -1.02,-3.108 -2.94,-5.863 -5.75,-8.264 -2.81,-2.401 -5.71,-3.733 -8.7,-3.994 -1.5,-0.131 -3,-0.262 -4.5,-0.393 z"
   fill="#ffffff"
   fill-rule="nonzero"
   opacity="1"
   stroke="none"
   id="path878" />
<path
   d="m 2123.45,541.937 c -0.7,0.586 -1.39,1.172 -2.09,1.757 1.03,0.522 2.06,1.043 3.1,1.565 1.03,0.521 2.06,1.042 3.09,1.564 0.27,-0.623 0.54,-1.247 0.81,-1.87 0.54,-1.246 0.21,-2.353 -1,-3.321 -1.21,-0.968 -2.51,-0.867 -3.91,0.305 z"
   fill="#ffffff"
   fill-rule="nonzero"
   opacity="1"
   stroke="none"
   id="path880" />
<path
   d="m 2313.4,559.177 c -2.22,0.669 -3.22,2.306 -3.02,4.911 0.1,1.302 0.21,2.605 0.31,3.907 1.34,-0.529 2.68,-1.059 4.02,-1.589 2.68,-1.059 3.68,-2.696 3.01,-4.911 -0.33,-1.107 -0.67,-2.214 -1,-3.321 -1.11,0.334 -2.21,0.668 -3.32,1.003 z"
   fill="#ffffff"
   fill-rule="nonzero"
   opacity="1"
   stroke="none"
   id="path882" />
<path
   d="m 2158.48,548.231 c 1.56,1.861 1.82,3.824 0.78,5.889 -1.05,2.065 -0.98,3.795 0.19,5.191 1.17,1.396 2.9,1.332 5.19,-0.193 2.29,-1.525 3.33,-3.59 3.13,-6.195 -0.21,-2.605 -0.93,-4.177 -2.18,-4.717 -1.24,-0.541 -2.33,-0.42 -3.26,0.361 -0.93,0.781 -2.2,0.455 -3.8,-0.978 -0.8,-0.717 -1.6,-1.434 -2.4,-2.15 0.78,0.93 1.57,1.861 2.35,2.792 z"
   fill="#ffffff"
   fill-rule="nonzero"
   opacity="1"
   stroke="none"
   id="path884" />
<path
   d="m 2112.89,546.189 c -0.74,-0.065 -1.25,0.107 -1.5,0.516 -0.25,0.409 -0.5,0.818 -0.75,1.227 1.25,0.541 2.49,1.081 3.74,1.621 2.49,1.08 4.55,4.709 6.16,10.887 1.62,6.178 2.85,9.304 3.71,9.379 0.43,0.037 0.86,0.075 1.28,0.112 -0.98,-3.535 -1.96,-7.071 -2.95,-10.607 -1.97,-7.071 -4.2,-11.147 -6.69,-12.227 -1.25,-0.54 -2.25,-0.843 -3,-0.908 z"
   fill="#ffffff"
   fill-rule="nonzero"
   opacity="1"
   stroke="none"
   id="path886" />
<path
   d="m 2179.38,553.291 c 1.17,1.395 2.61,2.168 4.32,2.318 0.86,0.075 1.72,0.149 2.57,0.224 -1.44,-0.773 -2.88,-1.545 -4.32,-2.318 -1.45,-0.773 -2.89,-1.546 -4.33,-2.318 0.59,0.698 1.17,1.396 1.76,2.094 z"
   fill="#ffffff"
   fill-rule="nonzero"
   opacity="1"
   stroke="none"
   id="path888" />
<path
   d="m 2210.3,554.698 c 1.05,0.308 2.1,0.615 3.16,0.923 -1.06,-0.308 -2.11,-0.615 -3.16,-0.923 -1.05,-0.307 -2.1,-0.615 -3.15,-0.922 1.05,0.307 2.1,0.615 3.15,0.922 z"
   fill="#ffffff"
   fill-rule="nonzero"
   opacity="1"
   stroke="none"
   id="path890" />
<path
   d="m 2196.71,554.805 c 0.41,0.251 0.82,0.502 1.23,0.754 -0.41,-0.252 -0.82,-0.503 -1.23,-0.754 -0.41,-0.252 -0.82,-0.503 -1.23,-0.754 0.41,0.251 0.82,0.502 1.23,0.754 z"
   fill="#ffffff"
   fill-rule="nonzero"
   opacity="1"
   stroke="none"
   id="path892" />
<path
   d="m 2213.23,558.188 c -5.28,1.263 -12.03,1.968 -20.23,2.113 -4.11,0.073 -8.21,0.146 -12.31,0.219 4.7,0.411 9.41,0.822 14.12,1.233 9.41,0.823 16.98,0.621 22.69,-0.605 5.71,-1.225 8.61,-2.266 8.68,-3.122 0.04,-0.428 0.08,-0.856 0.11,-1.284 -0.85,-0.075 -1.71,-0.149 -2.56,-0.224 -1.72,-0.15 -5.21,0.407 -10.5,1.67 z"
   fill="#ffffff"
   fill-rule="nonzero"
   opacity="1"
   stroke="none"
   id="path894" />
<path
   d="m 2262.6,563.148 c -0.27,0.623 -0.54,1.246 -0.81,1.869 0.84,0.289 1.68,0.578 2.51,0.867 0.84,0.288 1.68,0.577 2.51,0.866 0.08,-0.856 0.15,-1.712 0.23,-2.568 0.07,-0.856 0.15,-1.711 0.22,-2.567 -0.64,-0.056 -1.28,-0.113 -1.92,-0.169 -1.29,-0.112 -2.2,0.455 -2.74,1.702 z"
   fill="#ffffff"
   fill-rule="nonzero"
   opacity="1"
   stroke="none"
   id="path896" />
<path
   d="m 2300.95,568.438 c -1.36,0.744 -1.92,2.204 -1.68,4.381 0.12,1.089 0.24,2.177 0.36,3.266 1.32,-0.316 2.64,-0.632 3.97,-0.948 2.64,-0.631 4.05,-2.017 4.24,-4.157 0.09,-1.069 0.19,-2.139 0.28,-3.209 -0.86,-0.075 -1.71,-0.15 -2.57,-0.224 -1.71,-0.15 -3.24,0.147 -4.6,0.891 z"
   fill="#ffffff"
   fill-rule="nonzero"
   opacity="1"
   stroke="none"
   id="path898" />
<path
   d="m 2242.53,563.335 c 0.09,1.517 0.17,3.033 0.25,4.55 0.17,3.032 1.76,7.052 4.77,12.058 3.01,5.007 6.16,8.515 9.43,10.526 3.27,2.011 6.86,2.97 10.74,2.879 3.89,-0.091 5.87,-0.565 5.95,-1.421 0.04,-0.428 0.07,-0.856 0.11,-1.284 -1.94,0.046 -3.89,0.092 -5.83,0.137 -3.89,0.092 -7.06,-0.616 -9.52,-2.125 -2.45,-1.508 -5.03,-4.104 -7.73,-7.789 -2.69,-3.685 -4.73,-7.529 -6.1,-11.529 -0.69,-2.001 -1.38,-4.001 -2.07,-6.002 z"
   fill="#ffffff"
   fill-rule="nonzero"
   opacity="1"
   stroke="none"
   id="path900" />
<path
   d="m 2383.64,576.955 c -0.08,0.856 2.75,3.044 8.48,6.563 2.87,1.759 5.73,3.518 8.6,5.278 -0.57,-0.912 -1.14,-1.824 -1.71,-2.736 -1.13,-1.824 -3.96,-4.011 -8.48,-6.562 -2.26,-1.276 -4.52,-2.551 -6.78,-3.826 -0.04,0.428 -0.07,0.855 -0.11,1.283 z"
   fill="#ffffff"
   fill-rule="nonzero"
   opacity="1"
   stroke="none"
   id="path902" />
<path
   d="m 2312.16,573.299 c -1.35,0.743 -1.91,2.204 -1.67,4.381 0.12,1.088 0.24,2.177 0.36,3.265 1.11,-0.334 2.21,-0.669 3.32,-1.003 2.22,-0.669 3.42,-2.073 3.6,-4.213 0.1,-1.07 0.19,-2.14 0.28,-3.209 -0.64,-0.056 -1.28,-0.113 -1.92,-0.169 -1.29,-0.112 -2.61,0.204 -3.97,0.948 z"
   fill="#ffffff"
   fill-rule="nonzero"
   opacity="1"
   stroke="none"
   id="path904" />
<path
   d="m 2385.31,587.45 c 0.14,0.875 0.28,1.749 0.42,2.624 0.28,1.749 1.39,3.787 3.34,6.113 1.96,2.327 3.57,3.546 4.86,3.658 0.64,0.056 1.28,0.112 1.92,0.169 -1.75,-2.094 -3.51,-4.188 -5.27,-6.282 -1.76,-2.094 -3.51,-4.188 -5.27,-6.282 z"
   fill="#ffffff"
   fill-rule="nonzero"
   opacity="1"
   stroke="none"
   id="path906" />
<path
   d="m 2107.34,570.929 c 0.81,3.089 1.61,6.178 2.42,9.267 1.62,6.178 3.23,9.983 4.83,11.416 1.59,1.434 3.06,1.993 4.38,1.677 1.32,-0.316 2.27,-1.311 2.84,-2.985 0.29,-0.838 0.58,-1.675 0.87,-2.512 -1.48,-0.345 -2.96,-0.69 -4.44,-1.034 -2.95,-0.69 -5.51,-3.501 -7.67,-8.432 -1.08,-2.466 -2.15,-4.932 -3.23,-7.397 z"
   fill="#ffffff"
   fill-rule="nonzero"
   opacity="1"
   stroke="none"
   id="path908" />
<path
   d="m 2371.22,598.387 c -0.33,0.308 -0.72,0.524 -1.12,0.751 0.02,0.019 0.02,0.019 0.04,0.044 0.4,-0.01 0.81,-0.006 1.21,-0.016 -0.04,-0.26 -0.09,-0.519 -0.13,-0.779 z"
   fill="#000000"
   fill-rule="nonzero"
   opacity="1"
   stroke="none"
   id="path910" />
<path
   d="m 2389.44,605.436 c -2.01,-0.175 -4.19,0.015 -6.36,0.172 0.35,0.09 0.72,0.081 1.07,0.215 0.38,0.145 0.73,0.355 1.08,0.539 2.01,-0.125 4.06,-0.298 5.88,-0.214 1.56,0.072 2.93,0.293 4.28,0.536 -1.94,-0.499 -3.85,-1.065 -5.95,-1.248 z m 13.73,3.867 c 1.38,0.473 2.62,1.339 3.66,2.503 0.21,0.077 0.46,0.099 0.67,0.18 2.58,1.003 4.67,2.396 6.27,4.186 -2.11,-2.39 -5.55,-4.691 -10.6,-6.869 z"
   fill="#ffffff"
   fill-rule="nonzero"
   opacity="1"
   stroke="none"
   id="path912" />
<path
   d="m 1874.17,767.52 c -0.48,0.511 -0.98,1.018 -1.46,1.529 0.64,0.056 1.28,0.112 1.92,0.168 0.14,0.012 0.27,0.023 0.4,0.035 0,-0.039 0.02,-0.082 0.01,-0.12 -0.32,-0.51 -0.56,-1.091 -0.87,-1.612 z"
   fill="#000000"
   fill-rule="nonzero"
   opacity="1"
   stroke="none"
   id="path914" />
</g>
<path
   d="m 2156.16,571.114 c 0,0 -3.31,14.654 -13.12,21.126 -0.96,0.633 -2,1.474 -2.99,2.187 -2.47,1.787 -5.12,3.187 -7.38,4.058 -5.81,2.251 -10.24,1.551 -10.24,1.551"
   fill="none"
   opacity="1"
   stroke="#000509"
   stroke-linecap="butt"
   stroke-linejoin="round"
   stroke-width="6.67567"
   id="path918" />
<path
   d="m 2137.24,591.506 c -0.56,0.062 0.89,-0.697 1.36,-1.011 1.06,-0.715 2.03,-1.574 3.03,-2.373 0.49,-0.393 1.41,-1.763 1.51,-1.139 0.11,0.706 -5.65,4.319 -5.73,5.198 -0.01,0.168 0.31,-0.145 0.45,-0.244 0.57,-0.414 1.02,-0.994 1.54,-1.466 1.37,-1.237 2.78,-2.448 4.31,-3.486 0.57,-0.392 1.14,-0.757 1.7,-1.17 0.28,-0.204 1.2,-0.555 0.85,-0.585 -1.26,-0.11 -3.43,2.107 -4.38,2.772"
   fill="none"
   opacity="1"
   stroke="#000509"
   stroke-linecap="round"
   stroke-linejoin="round"
   stroke-width="6.67567"
   id="path920" />
<path
   d="M 2375.36,596.645"
   fill="none"
   opacity="1"
   stroke="#000509"
   stroke-linecap="butt"
   stroke-linejoin="round"
   stroke-width="6.67567"
   id="path922" />
<path
   d="m 2445.42,602.597 c -3.39,15.016 -37.2,26.549 -52.64,19.695 -14.46,-6.417 -17.57,-16.334 -19.14,-23.466"
   fill="none"
   opacity="1"
   stroke="#000509"
   stroke-linecap="butt"
   stroke-linejoin="round"
   stroke-width="6.67567"
   id="path924" />
<g
   opacity="1"
   id="g928">
<path
   d="m 2388.97,602.219 c -0.11,0.102 -0.15,0.261 -0.25,0.375 -0.93,-0.367 -1.87,-0.414 -2.63,0.218 -0.91,-0.343 -1.94,-0.626 -2.47,0.157 -0.19,0.3 -0.16,0.571 -0.15,0.843 -0.33,-0.243 -0.7,-0.434 -0.91,-0.124 -0.18,0.272 0.12,0.614 0.25,0.812 0.39,0.559 0.86,1.064 1.35,1.531 1,0.96 2.12,1.813 3.25,2.625 -0.21,-0.129 -0.44,-0.203 -0.63,-0.344 -0.8,-0.584 -1.54,-1.222 -2.31,-1.843 -0.44,-0.353 -0.87,-0.75 -1.31,-1.125 -0.09,-0.081 -0.17,-0.173 -0.25,-0.25 -0.06,-0.046 -0.1,-0.039 -0.16,-0.094 -0.14,-0.13 -0.31,-0.239 -0.44,-0.375 0,0 -0.03,0.028 -0.06,0.063 -0.02,0.002 -0.08,-0.081 -0.09,-0.063 -0.03,0.031 0.06,0.047 0.09,0.094 -0.01,0.014 -0.03,0.029 -0.03,0.031 0.03,0.016 0.06,0.044 0.09,0.062 0.08,0.079 0.12,0.179 0.13,0.188 0.03,0.03 0.06,0.064 0.09,0.094 0.06,0.023 0.07,0.006 0.16,0.062 0.03,0.024 0.02,0.002 0.06,0.032 0.01,0.01 0.02,0.021 0.03,0.031 -0.06,-0.054 -0.11,-0.014 -0.19,-0.063 0.17,0.161 0.36,0.313 0.53,0.469 0.04,0.023 0.06,0.07 0.1,0.094 0.1,0.092 0.21,0.191 0.31,0.281 0.09,0.08 0.19,0.14 0.28,0.219 0.04,0.029 0.06,0.064 0.1,0.093 0.44,0.407 0.86,0.841 1.28,1.25 0.25,0.243 0.52,0.458 0.78,0.688 0.28,0.233 0.57,0.487 0.84,0.719 0.07,0.055 0.12,0.132 0.19,0.187 0.01,0.007 0.04,-0.017 0.06,0 0.01,0.01 0.02,0.024 0.03,0.032 0.02,0.006 0.02,-0.002 0.03,0 0.03,0.003 0.06,0.029 0.07,0 0,-0.003 -0.03,-0.027 -0.03,-0.032 -0.04,-0.091 -0.64,-0.552 -0.69,-0.594 -0.11,-0.091 -0.21,-0.188 -0.31,-0.281 -0.46,-0.398 -0.89,-0.82 -1.32,-1.25 0.37,0.315 0.78,0.571 1.16,0.875 0.1,0.079 0.18,0.173 0.28,0.25 0.03,0.023 0.07,0.04 0.1,0.063 0.04,0.045 0.1,0.08 0.15,0.125 0.14,0.108 0.29,0.209 0.44,0.312 0.04,0.043 0.08,0.082 0.12,0.125 -0.03,-0.021 -0.06,-0.041 -0.09,-0.062 0.06,0.067 0.11,0.098 0.12,0.125 0,-0.013 0.01,-0.024 0,-0.032 0.27,0.185 0.5,0.433 0.79,0.594 0.14,0.083 0.28,0.177 0.43,0.25 0.15,0.071 0.29,0.129 0.44,0.188 0.07,0.025 0.27,0.025 0.44,0.062 0.12,0.027 0.24,0.095 0.31,0.032 -0.1,-0.072 -0.19,-0.173 -0.28,-0.25 -0.02,-0.014 0.19,0.365 0.28,0.218 0.04,-0.07 -0.06,-0.119 -0.09,-0.187 0.9,0.685 1.98,1.56 3.12,1.687 0.28,0.031 0.63,-0.026 0.85,-0.218 0,-0.006 0.02,-0.052 0.06,-0.094 0.08,0.06 0.16,0.127 0.25,0.187 2.24,1.598 4.49,3.311 7.09,4.281 0.77,0.287 1.74,0.595 2.63,0.594 0.8,0.4 1.64,0.77 2.53,0.625 0.37,-0.06 0.72,-0.219 1.03,-0.437 0.14,-0.097 0.2,-0.254 0.31,-0.375 0.49,0.228 0.98,0.46 1.47,0.687 0.24,0.112 0.48,0.227 0.72,0.344 0.04,0.018 0.15,0.072 0.19,0.094 0.04,0.021 0.08,0.04 0.12,0.062 0.24,0.127 0.77,0.283 1.07,0.188 0.29,-0.095 0.64,-0.138 0.84,-0.375 0.32,-0.381 0.51,-0.857 0.59,-1.344 0.05,-0.268 -0.12,-0.528 -0.22,-0.781 -0.13,-0.328 -0.64,-0.555 -1.09,-0.813 0.15,0.045 0.35,0.111 0.31,0.094 -0.16,-0.074 -0.33,-0.146 -0.5,-0.219 -0.18,-0.097 -0.37,-0.29 -0.47,-0.344 -0.17,-0.097 -0.35,-0.185 -0.53,-0.281 -0.17,-0.093 -0.35,-0.188 -0.53,-0.281 -0.4,-0.214 -0.66,-0.398 -1.06,-0.625 -0.27,-0.15 -0.93,-0.504 -1.19,-0.656 -0.43,-0.252 -0.88,-0.496 -1.31,-0.75 -0.48,-0.375 -0.94,-0.759 -1.41,-1.063 -1.19,-0.774 -2.47,-1.415 -3.75,-2.031 -0.37,-0.388 -0.73,-0.748 -1.12,-1.125 -0.35,-0.465 -0.7,-0.932 -0.94,-1.5 -0.03,-0.063 -0.12,-0.091 -0.19,-0.062 -0.06,0.028 -0.09,0.093 -0.06,0.156 0.2,0.41 0.5,0.709 0.75,1.062 -0.54,-0.46 -1.13,-0.84 -1.84,-0.937 -0.34,-0.046 -0.57,0.087 -0.85,0.25 -0.14,-0.097 -0.24,-0.183 -0.34,-0.219 -0.12,-0.044 -0.2,0 -0.31,-0.031 -0.37,-0.201 -0.75,-0.394 -1.13,-0.594 -0.45,-0.242 -0.92,-0.456 -1.37,-0.687 -0.39,-0.198 -0.89,-0.396 -1.35,-0.626 -0.53,-0.324 -1.07,-0.624 -1.59,-0.968 -0.01,-0.008 -0.02,-0.024 -0.03,-0.032 -0.09,-0.058 -0.33,-0.229 -0.44,-0.25 -0.27,-0.049 -0.59,-0.279 -0.78,-0.093 z m -1.85,6.625 c -0.03,-0.027 -0.1,-0.059 -0.18,-0.125 0.07,0.058 0.14,0.135 0.22,0.187 0,0.001 0.03,0 0.03,0 -0.02,0.027 -0.05,-0.021 -0.07,-0.062 z m -4,-3.219 c -0.23,-0.135 -0.42,-0.264 -0.62,-0.437 0.08,0.073 0.08,0.118 0.25,0.218 0.12,0.074 0.25,0.143 0.37,0.219 z m -0.62,-0.437 c -0.05,-0.05 -0.14,-0.127 -0.16,-0.157 -0.04,0.006 -0.1,-0.103 -0.12,-0.062 -0.03,0.044 0.19,0.137 0.28,0.219 z m -0.16,-0.157 c 0.06,-0.008 0.12,0.025 0.19,0.063 -0.12,-0.049 -0.21,-0.122 -0.19,-0.063 z m 4.16,2.281 c 0.64,0.546 1.31,1.073 1.97,1.594 -0.23,-0.156 -0.47,-0.3 -0.69,-0.468 -0.45,-0.342 -0.84,-0.756 -1.28,-1.126 z"
   fill="#000509"
   stroke="none"
   id="path926" />
</g>
<g
   opacity="1"
   id="g932">
<path
   d="m 2382.81,602.75 c -0.56,0.003 -1.14,0.058 -1.62,0.344 -0.41,0.24 -0.7,0.665 -0.97,1.062 -0.25,-0.27 -0.72,-0.877 -1.13,-0.531 -0.6,0.517 -0.32,1.371 -0.06,2 0.19,0.459 0.53,0.848 0.78,1.281 0.01,0.011 0,0.021 0,0.032 0.08,0.219 0.23,0.42 0.35,0.593 0.03,0.056 0.08,0.101 0.12,0.157 0.29,0.437 0.5,0.93 0.81,1.343 0.21,0.277 0.44,0.545 0.66,0.813 0.38,0.466 0.77,0.914 1.19,1.344 0.14,0.149 0.34,0.361 0.5,0.5 0.12,0.101 0.43,0.352 0.75,0.562 0.14,0.154 0.27,0.315 0.4,0.469 -0.16,0.404 -0.05,0.762 0.22,1.062 0.17,0.567 0.48,1.134 0.78,1.531 1.31,1.711 3.23,2.952 5,4.126 0.99,0.653 2.61,1.835 3.5,0.187 0.14,0.051 0.28,0.088 0.41,0.125 0.36,0.237 0.69,0.535 1.06,0.75 0.79,0.46 1.79,0.9 2.72,0.562 0.41,-0.149 0.83,-0.392 1.13,-0.718 0.12,-0.14 0.16,-0.33 0.25,-0.5 0.19,-0.077 0.41,-0.057 0.59,-0.188 0.1,-0.07 0.33,-0.208 0.41,-0.344 0.22,-0.407 0.47,-0.821 0.65,-1.25 0.13,-0.317 0.03,-0.975 -0.03,-1.25 -0.18,-0.845 -0.8,-1.565 -1.5,-2.218 0.29,-0.301 0.45,-0.619 0.44,-0.969 0.81,0.332 1.59,0.658 2.4,0.969 0.46,0.174 0.95,0.347 1.41,0.5 0.39,0.129 1.08,0.133 1.44,-0.063 0.83,-0.458 0.48,-1.32 0.06,-2.031 0.25,0.083 0.52,0.12 0.72,0.219 0.28,0.139 0.57,0.274 0.84,0.437 0.21,0.256 0.4,0.538 0.63,0.75 0.45,0.414 0.97,0.738 1.47,1.094 -0.5,-0.36 -0.99,-0.709 -1.44,-1.125 -0.19,-0.176 -0.32,-0.441 -0.5,-0.656 0.49,0.29 0.96,0.626 1.5,0.781 0.28,0.08 0.63,-0.035 0.87,-0.25 0.99,0.728 1.94,1.528 3.04,2.094 0.19,0.098 1.74,0.774 1.93,0.312 0.12,-0.281 -0.36,-0.483 -0.59,-0.687 -0.53,-0.476 -1.05,-0.953 -1.59,-1.407 -0.18,-0.147 -0.39,-0.262 -0.57,-0.406 0.04,-0.016 0.07,-0.059 0.1,-0.094 0.05,-0.068 0.05,-0.135 0.06,-0.218 0.02,-0.178 -0.18,-0.299 -0.31,-0.469 0.18,0.11 0.34,0.277 0.53,0.375 0.16,0.082 0.3,0.149 0.47,0.219 0.16,0.068 0.33,0.135 0.5,0.187 0.06,0.019 0.24,0.002 0.4,0.032 0.02,0.002 0.02,-0.002 0.03,0 0.14,0.019 0.28,0.094 0.35,0 0.09,-0.125 -0.1,-0.255 -0.22,-0.376 -0.01,-0.007 0.01,-0.023 0,-0.031 -0.27,-0.251 -0.72,-0.461 -0.78,-0.5 -0.13,-0.075 -0.25,-0.144 -0.38,-0.219 -0.11,-0.064 -0.23,-0.124 -0.34,-0.187 -0.1,-0.058 -0.18,-0.129 -0.28,-0.187 -1.66,-0.963 -3,-2.386 -4.66,-3.344 -0.15,-0.086 -0.31,-0.174 -0.47,-0.25 -0.08,-0.042 -0.34,-0.186 -0.62,-0.282 -0.61,-0.479 -1.31,-0.94 -1.69,-0.687 -0.48,0.321 -0.32,0.995 0.03,1.375 0.29,0.303 0.55,0.613 0.85,0.906 0.49,0.491 0.97,0.979 1.47,1.469 -0.91,-0.492 -2.13,-1.024 -2.85,-0.313 -0.52,0.52 -0.45,1.007 -0.25,1.5 -1.33,-0.599 -2.68,-1.217 -4.03,-1.781 -0.6,-0.249 -1.16,-0.506 -1.81,-0.469 -0.28,0.016 -0.55,0.21 -0.72,0.407 -0.01,0.01 -0.02,0.02 -0.03,0.031 -0.02,-0.009 -0.02,0.011 -0.03,0.031 -0.02,-0.017 -0.05,-0.046 -0.07,-0.062 -0.3,-0.263 -0.62,-0.536 -0.93,-0.781 -0.31,-0.243 -0.62,-0.459 -0.94,-0.688 -0.95,-0.677 -1.97,-1.311 -2.97,-1.906 -0.95,-0.567 -1.91,-1.1 -2.87,-1.656 -0.9,-0.52 -1.78,-1.075 -2.66,-1.626 -0.39,-0.241 -0.93,-0.508 -1.44,-0.812 -0.4,-0.24 -0.74,-0.522 -1.12,-0.656 -0.43,-0.15 -0.89,-0.347 -1.35,-0.344 z m -3.37,1.469 c 0.14,0.155 0.29,0.317 0.47,0.469 -0.08,0.223 -0.15,0.445 -0.16,0.687 -0.09,-0.213 -0.26,-0.403 -0.31,-0.625 -0.04,-0.133 -0.07,-0.298 -0.06,-0.438 0,-0.038 0.02,-0.051 0.06,-0.093 z m 6.12,7.312 c 0.07,0.048 0.12,0.11 0.19,0.157 0.01,0.04 -0.01,0.084 0,0.124 -0.06,-0.058 -0.1,-0.129 -0.16,-0.187 0,-0.03 -0.02,-0.063 -0.03,-0.094 z m 21.13,1.313 c 0.01,0.076 0,0.118 0.03,0.187 -0.01,-0.013 -0.03,-0.017 -0.03,-0.031 -0.01,-0.033 0.01,-0.093 0,-0.156 z m 3,0.156 c 0.36,0.291 0.72,0.565 1.09,0.844 0.18,0.131 0.42,0.352 0.66,0.406 0.02,0.005 0.08,-0.022 0.15,-0.031 0.56,0.422 1.12,0.824 1.66,1.281 0.37,0.31 1.04,0.642 1.22,1.125 0.01,0.036 -0.66,0.007 -0.69,0 -0.47,-0.103 -0.95,-0.33 -1.37,-0.563 -0.98,-0.536 -1.85,-1.221 -2.75,-1.874 0.07,-0.08 0.2,-0.113 0.22,-0.219 0.04,-0.331 -0.06,-0.661 -0.19,-0.969 z m 0.34,3.094 c 0.25,0.167 0.47,0.363 0.72,0.531 0.49,0.333 0.87,0.648 1.41,0.875 0.16,0.071 1.54,0.518 1.53,0.688 -0.03,-0.223 -1.38,-0.651 -1.53,-0.719 -0.77,-0.331 -1.45,-0.885 -2.13,-1.375 z m 3.66,2.094 c -0.01,0.094 -0.67,0.03 -1.03,-0.063 0.11,0.031 0.22,0.101 0.34,0.125 0.35,0.069 0.65,0.003 0.69,-0.062 z m -6,-2.063 c 0,0.035 0.11,0.145 0.19,0.219 -0.24,-0.223 -0.11,-0.219 0.03,-0.188 -0.07,-0.009 -0.22,-0.06 -0.22,-0.031 z m 0.22,0.031 c 0.05,0.009 0.06,0.016 0.18,0.063 -0.1,-0.044 -0.11,-0.046 -0.18,-0.063 z m 0.56,0.219 c 0.11,0.052 0.2,0.103 0.31,0.156 0.26,0.124 0.55,0.221 0.81,0.344 0.3,0.139 0.58,0.303 0.88,0.437 0.6,0.274 1.26,0.515 1.91,0.719 -1.25,-0.384 -2.4,-0.983 -3.57,-1.531 -0.09,-0.042 -0.23,-0.073 -0.34,-0.125 z m -12.72,3.375 c 0.04,0.037 0.08,0.096 0.13,0.125 0.03,0.021 -0.08,-0.031 -0.1,-0.063 -0.01,-0.019 -0.02,-0.042 -0.03,-0.062 z"
   fill="#000509"
   stroke="none"
   id="path930" />
</g>
<g
   opacity="1"
   id="g936">
<path
   d="m 2410.09,610.438 c -0.37,0.046 -0.75,0.197 -1.18,0.312 -0.53,0.14 -1.04,0.254 -1.57,0.406 -1.07,0.314 -2,0.674 -3.06,1.032 -0.54,0.183 -1.1,0.327 -1.66,0.468 -1.67,0.428 -5.16,1.035 -5.5,3.188 -0.15,1.021 0.62,1.598 1.54,1.594 -0.43,0.325 -0.74,0.713 -0.6,1.156 0.24,0.742 1.04,0.447 1.56,0.344 0.3,-0.058 0.75,-0.141 1,-0.188 0.15,0.46 0.71,0.696 1.13,0.719 0.27,0.015 0.52,-0.125 0.78,-0.157 0.03,0.06 0.03,0.13 0.06,0.188 0.03,0.055 0.09,0.077 0.13,0.125 -0.03,0.045 -0.04,0.078 -0.06,0.125 -0.02,0.043 -0.03,0.081 -0.04,0.125 -0.07,0.016 -0.08,0.061 -0.15,0.063 0.04,-10e-4 0.08,0.002 0.12,0 0,0.058 -0.08,0.098 -0.06,0.156 0.07,-0.033 0.07,-0.035 0.13,-0.063 -0.01,-0.033 0.03,-0.059 0.03,-0.093 0.01,-0.002 0.02,10e-4 0.03,0 0.05,-0.008 0.04,-0.018 0.09,-0.032 0,0.01 0.01,0.022 0,0.032 0.06,-0.029 0.24,-0.102 0.22,-0.094 -0.07,0.035 -0.14,0.088 -0.22,0.125 -0.01,0.05 0.01,0.104 0,0.156 0,0.01 0,0.021 0,0.031 -0.01,0.005 -0.02,-0.004 -0.03,0 -0.02,-0.013 -0.05,-0.015 -0.06,-0.031 -0.02,-0.022 -0.08,-0.005 -0.1,-0.031 0,-0.013 0.04,-0.018 0.04,-0.032 -0.04,0.019 -0.09,0.013 -0.13,0.032 -0.24,0.114 -0.22,0.117 -0.44,0.218 -0.05,0.022 0.07,-0.031 0.16,-0.062 -0.05,0.029 -0.1,0.064 -0.16,0.094 -0.08,0.046 0.17,-0.085 0.29,-0.125 0.04,-0.024 0.07,-0.07 0.12,-0.094 0,0.01 -0.01,0.022 0,0.031 0.01,0.02 0.05,0.014 0.06,0.032 0.02,0.025 0.07,0.009 0.1,0.031 0.04,0.036 0.1,0.035 0.15,0.062 0,0.138 -0.03,0.274 0,0.407 0.02,0.087 0.07,0.161 0.1,0.25 -0.11,-0.021 -0.22,-0.016 -0.32,-0.032 -0.42,-0.073 -0.85,-0.151 -1.28,-0.218 -0.19,-0.031 -1.34,-0.335 -1.56,-0.063 -0.01,0.01 0.01,0.065 0,0.125 0,10e-4 0,0.03 0,0.031 -0.02,0.008 -0.04,-0.005 -0.06,0 -0.06,0.016 0.03,0.106 0.06,0.157 0.06,0.088 0.19,0.132 0.31,0.187 -0.25,-10e-4 -0.5,-0.104 -0.75,-0.063 -0.27,0.046 -1.68,0.388 -1.78,-0.031 -0.13,-0.542 0.93,-0.692 1.22,-0.75 0.72,-0.143 1.46,-0.191 2.19,-0.281 -0.12,0.071 -0.18,0.204 -0.13,0.375 -0.1,-0.293 0.14,-0.392 0.41,-0.437 -0.95,0.127 -1.94,0.141 -2.88,0.374 -0.32,0.081 -1.03,0.262 -0.9,0.75 0.13,0.511 1.53,0.146 1.87,0.094 0.29,-0.044 0.59,0.021 0.88,0.032 0.06,0.021 0.1,0.079 0.15,0.093 0.25,0.07 0.5,0.121 0.75,0.188 0.75,0.198 1.44,0.231 2.13,0.281 0.43,0.588 1.21,0.983 1.94,1.062 1.1,0.12 1.9,-0.525 2.78,-1.031 0.03,0.019 0.08,0.014 0.12,0.031 0.39,0.476 0.96,0.858 1.69,0.813 0.44,-0.027 0.82,-0.247 1.22,-0.406 0.09,-0.038 0.19,-0.085 0.28,-0.125 0.23,-0.018 0.4,-0.101 0.63,-0.156 1.03,0.074 2.3,-0.413 3,-0.719 0.38,-0.168 0.74,-0.357 1.12,-0.531 0.77,-0.354 1.94,-0.427 1.72,-1.688 -0.02,-0.079 -0.07,-0.088 -0.1,-0.156 0.08,-0.166 0.17,-0.301 0.19,-0.5 0.04,-0.372 -0.03,-0.754 -0.19,-1.094 -0.05,-0.116 -0.15,-0.123 -0.21,-0.219 0.86,-0.724 1.47,-1.625 1.06,-2.843 -0.14,-0.41 -0.35,-0.698 -0.66,-1 -0.79,-0.781 -1.64,-0.748 -2.5,-0.532 -0.03,-0.026 -0.03,-0.067 -0.06,-0.094 -1.08,-0.886 -2.23,-0.417 -3.34,0 -0.03,0.009 -0.04,0.024 -0.07,0.032 0.07,-0.278 0.24,-0.552 0.16,-0.844 -0.12,-0.428 -0.41,-0.787 -0.78,-1.031 -0.4,-0.265 -0.76,-0.328 -1.13,-0.281 z m -8.87,9.5 c 0.09,-0.014 0.19,-0.016 0.28,-0.032 0.02,-0.003 0.04,0.004 0.06,0 0.08,-0.012 0.15,-0.017 0.22,-0.031 0.1,-0.02 0.5,-0.07 0.88,-0.125 -0.38,0.054 -0.78,0.074 -0.88,0.094 -0.12,0.024 -0.25,0.044 -0.37,0.062 -0.03,0.005 -0.07,-0.004 -0.1,0 -0.02,0.003 -0.04,-0.003 -0.06,0 -0.02,0.003 -0.01,0.028 -0.03,0.032 z m 0.34,-0.032 c 0.3,0.008 0.62,0.06 0.66,0.063 0.07,0.004 0.16,-0.031 0.25,-0.031 -0.18,0.002 -0.33,-0.017 -0.5,-0.032 -0.05,-0.003 -0.25,0.006 -0.41,0 z m -0.75,0.469 c 0.09,0.266 0.52,0.218 0.94,0.125 -0.43,0.092 -0.86,0.116 -0.94,-0.125 z m 0.94,0.125 c 0.16,-0.034 0.22,-0.046 0.37,-0.094 -0.12,0.037 -0.21,0.059 -0.37,0.094 z m 0.37,-0.094 c 0.11,-0.031 0.27,-0.078 0.32,-0.094 0.03,-0.011 0.13,-0.066 0.22,-0.093 -0.14,0.055 -0.32,0.12 -0.54,0.187 z m 0.1,-1.937 c 0.02,0.087 0.07,0.163 0.09,0.25 -0.23,0.031 -0.46,0.091 -0.69,0.062 -0.11,-0.014 -0.26,-0.108 -0.37,-0.156 0.07,-0.013 0.14,-0.019 0.22,-0.031 0.24,-0.042 0.5,-0.087 0.75,-0.125 z m 0.59,1.187 c 0.02,0.023 0.04,0.042 0.07,0.063 0.01,0.01 0.02,0.021 0.03,0.031 -0.01,0.022 -0.03,0.041 -0.03,0.062 -0.06,0.024 -0.09,0.012 -0.16,0.032 0.01,-0.04 0.04,-0.055 0.06,-0.094 0.02,-0.035 0.01,-0.061 0.03,-0.094 z m -2.62,1.219 c 0.21,0 0.43,0.006 0.65,0.031 0.72,0.082 1.45,0.213 2.16,0.313 0.01,0.022 0.02,0.04 0.03,0.062 -0.6,-0.035 -1.18,-0.002 -1.84,-0.156 -0.25,-0.058 -0.5,-0.126 -0.75,-0.187 -0.06,-0.014 -0.16,-0.016 -0.25,-0.063 z"
   fill="#000509"
   stroke="none"
   id="path934" />
</g>
<g
   opacity="1"
   id="g940">
<path
   d="m 2401.38,618.219 c -0.49,0.067 -0.96,0.313 -1.35,0.75 -0.22,0.251 -0.7,0.818 -0.69,1.093 0,0.015 0.02,0.027 0.04,0.032 0.11,0.042 0.18,0.119 0.28,0.156 0.32,-1.055 0.9,-1.279 1.78,-1.594 0.02,-0.007 -0.03,0.044 -0.03,0.063 -0.05,0.157 0.03,0.022 -0.19,0.187 -0.23,0.179 -0.25,0.18 -0.5,0.438 -0.24,0.239 -0.45,0.518 -0.66,0.781 -0.06,0.08 -0.13,0.178 -0.15,0.25 -0.01,0.017 -0.04,0.054 -0.03,0.063 0,0.013 0.02,0.054 0.03,0.062 0.01,0.01 0.02,0.021 0.03,0.031 -0.01,0.001 -0.08,0 -0.1,0 0,0.004 0.01,0.028 0,0.031 -0.02,10e-4 -0.16,0.036 -0.22,0.032 0.02,-0.089 0.01,-0.175 0.04,-0.25 -0.22,-0.05 -0.49,-0.132 -0.66,-0.032 -0.29,0.174 -0.35,0.551 -0.25,0.844 0.01,0.037 0.04,0.078 0.06,0.094 0,0.003 0.01,0.028 0,0.031 0.26,0.311 0.59,0.273 0.88,0.438 0,0.002 0.02,0.026 0.03,0.031 0.14,0.137 0.2,0.272 0.31,0.375 -0.04,-0.09 -0.09,-0.154 -0.12,-0.25 0.16,0.123 0.36,0.269 0.37,0.281 0.12,0.093 0.23,0.187 0.34,0.282 0.11,0.082 0.22,0.167 0.32,0.25 0.12,0.104 0.31,0.161 0.37,0.312 0.03,0.065 -0.15,0.039 -0.22,0.031 -0.02,-0.002 -0.04,0.004 -0.06,0 0.18,0.139 0.3,0.361 0.53,0.407 1.54,0.304 2.96,-1.034 2.94,-2.532 -0.02,-1.611 -1.66,-2.889 -3.12,-2.687 z m -0.35,4.812 c -0.31,-0.234 -0.63,-0.436 -0.87,-0.719 -0.03,-0.035 -0.08,-0.14 -0.13,-0.187 0.08,0.153 0.07,0.335 0.19,0.437 0.25,0.216 0.39,0.333 0.69,0.438 0.04,0.015 0.08,0.024 0.12,0.031 z m -1.37,-2.687 c 0.07,0.017 0.17,0.025 0.22,0.031 -0.07,-0.057 -0.15,-0.096 -0.22,-0.125 -0.01,0.011 0,0.02 0,0.031 -0.01,0.017 0,0.044 0,0.063 z m 0.31,0.75 c 0.01,10e-4 0.02,-0.002 0.03,0 -0.1,0.196 -0.27,0.311 -0.25,0.218 0.01,-0.091 0.16,-0.128 0.22,-0.218 z"
   fill="#000509"
   stroke="none"
   id="path938" />
</g>
<g
   opacity="1"
   id="g944">
<path
   d="m 2399.66,618.062 c -1.86,-0.115 -4.08,1.484 -3.44,3.563 0.5,1.629 2.27,2.077 3.59,1.344 -0.04,0.029 -0.08,0.058 -0.12,0.093 -0.04,0.032 0.22,-0.082 0.37,-0.156 0.26,-0.12 0.54,-0.244 0.75,-0.437 0.57,-0.523 0.81,-1.16 1.16,-1.813 0.05,-0.098 0.09,-0.223 0.15,-0.312 0.04,0.005 0.23,0.054 0.32,0.062 0.81,0.077 0.55,-0.817 0.22,-1.156 -0.11,-0.105 -0.26,-0.2 -0.38,-0.281 -0.13,-0.084 -0.24,-0.148 -0.37,-0.219 -0.68,-0.357 -1.48,-0.64 -2.25,-0.688 z m -1.63,0.469 c 0.54,-0.063 1.05,-0.011 1.5,0.157 -0.22,-0.031 -0.43,-0.078 -0.65,-0.094 -0.24,-0.017 -0.49,-0.01 -0.72,0 -0.04,10e-4 -0.17,-0.058 -0.13,-0.063 z m 2.66,3.5 c -0.02,0.039 -0.01,0.087 -0.03,0.125 -0.03,0.041 -0.04,0.027 -0.07,0.063 0.05,-0.056 0.06,-0.13 0.1,-0.188 z"
   fill="#000509"
   stroke="none"
   id="path942" />
</g>
<g
   opacity="1"
   id="g948">
<path
   d="m 2402.94,606.031 c -0.65,-0.028 -1.29,0.172 -1.82,0.657 -1.21,1.129 -0.86,3.321 0.66,4 0.03,0.013 0.06,0.018 0.1,0.031 0.14,0.157 0.28,0.328 0.46,0.437 0.47,0.28 1.01,0.428 1.54,0.594 0.61,0.196 1.39,0.026 2.03,0.125 0.45,0.071 0.88,0.259 1.28,0.5 0.01,0.005 0.02,-0.005 0.03,0 0.08,0.048 0.16,0.108 0.25,0.156 0.08,0.046 0.17,0.079 0.25,0.125 0.04,0.026 -0.11,-0.003 -0.16,-0.031 0.04,0.042 0.11,0.181 0.06,0.156 -0.7,-0.361 0.02,0.004 0.07,0.094 0.05,0.042 0.11,0.023 0.15,-0.031 0.05,-0.055 0.03,-0.145 -0.03,-0.188 -0.37,-0.197 -0.09,-0.037 -0.37,-0.187 -0.01,-0.007 0,-0.025 0,-0.031 -0.18,-0.204 -0.35,-0.413 -0.47,-0.657 -0.28,-0.543 -0.34,-1.122 -0.41,-1.719 -0.01,-0.108 -0.11,-0.921 -0.15,-1.031 -0.22,-0.513 -0.43,-1.05 -0.75,-1.5 -0.24,-0.322 -0.61,-0.521 -0.91,-0.781 -0.52,-0.443 -1.16,-0.691 -1.81,-0.719 z m 1.31,2.719 c 0.21,0.064 0.38,0.73 0.34,0.812 -0.08,0.169 -0.23,0.318 -0.34,0.469 -0.09,0.095 -0.2,0.146 -0.31,0.219 -0.14,-0.351 -0.23,-0.718 -0.1,-1.125 0.05,-0.133 0.21,-0.437 0.41,-0.375 z m -0.06,2.031 c 0.72,0.427 1.82,1.065 1.37,0.813 -0.39,-0.218 -0.79,-0.408 -1.18,-0.625 -0.05,-0.062 -0.12,-0.084 -0.19,-0.125 -0.01,-0.017 0.01,-0.046 0,-0.063 z"
   fill="#000509"
   stroke="none"
   id="path946" />
</g>
<g
   opacity="1"
   id="g952">
<path
   d="m 2382.31,608.719 c -0.36,-0.021 -0.66,0.047 -0.72,0.343 -0.07,0.379 -0.4,0.267 -0.68,0.063 0.44,0.408 0.54,0.513 1.06,1 -0.33,-0.274 -0.69,-0.47 -1.06,-0.375 -0.58,0.146 -0.2,1.215 -0.16,1.812 0.03,0.421 0.18,0.816 0.37,1.188 0.1,0.175 0.3,0.285 0.47,0.375 0.85,0.432 1.71,-0.004 2.57,-0.094 0.25,-0.026 0.88,0.218 0.75,0 -0.51,-0.811 0,0.011 0.5,0.375 0.05,0.042 0.14,0.024 0.18,-0.031 0.05,-0.055 0.03,-0.114 -0.03,-0.156 -0.48,-0.424 -0.12,-0.128 -0.47,-0.438 0.12,0.016 -0.15,-0.457 -0.15,-0.687 -0.01,-0.326 0.06,-0.645 0.09,-0.969 0.05,-0.542 0.23,-1.538 -0.44,-1.875 -0.37,-0.192 -0.79,-0.379 -1.21,-0.406 -0.31,-0.019 -0.71,-0.104 -1.07,-0.125 z"
   fill="#000509"
   stroke="none"
   id="path950" />
</g>
<path
   d="m 2403.71,611.149 c 1.36,0.36 -0.23,-0.172 -0.6,-0.649 -0.12,-0.15 0.35,-0.138 0.54,-0.192 0.84,-0.25 1.67,-0.482 2.49,-0.819 0.01,-0.006 1.06,-0.488 1.07,-0.385 0.21,1.391 -5.62,1.48 -3.5,2.045 z"
   fill="none"
   opacity="1"
   stroke="#000509"
   stroke-linecap="round"
   stroke-linejoin="round"
   stroke-width="6.67567"
   id="path954" />
<path
   d="m 2377.87,610.115 c 0,0 -3.94,-5.207 -6.76,-11.895 -2.12,-5.011 -1.87,-5.399 -2.37,-7.858 -1.25,-6.175 -0.27,-11.876 -0.27,-11.876 l 0.07,-6.476"
   fill="none"
   opacity="1"
   stroke="#000509"
   stroke-linecap="butt"
   stroke-linejoin="round"
   stroke-width="6.67567"
   id="path956" />
<path
   d="M 2371.19,588.523"
   fill="none"
   opacity="1"
   stroke="#000509"
   stroke-linecap="butt"
   stroke-linejoin="round"
   stroke-width="6.67567"
   id="path958" />
<path
   d="m 2388,589.462 c 0.34,2.322 4.38,6.597 5.56,8.487 0.34,0.546 -0.96,-0.874 -1.34,-1.392 -0.15,-0.202 -0.27,-0.426 -0.43,-0.618 -1.17,-1.374 -2.38,-2.687 -3.45,-4.145 -0.52,-0.721 -1.89,-2.893 -1.77,-2.01 0.09,0.558 3.88,5.619 3.58,5.828 -0.37,0.26 -1.61,-1.777 -1.62,-1.803 -1.19,-1.89 -2.45,-3.738 -3.45,-5.733 -0.11,-0.212 -0.32,-0.634 -0.32,-0.634 0,0 2,2.604 2.85,4.005 1.22,1.994 2.64,3.833 4.12,5.635 0.29,0.354 1.76,3.066 1.22,1.409"
   fill="none"
   opacity="1"
   stroke="#000509"
   stroke-linecap="round"
   stroke-linejoin="round"
   stroke-width="6.67567"
   id="path960" />
<path
   d="m 2372.53,585.264 c -1.97,-2.82 0.31,2.054 0.61,3.426 0.16,0.698 0.64,2.785 0.53,2.077 -0.19,-1.341 -0.42,-2.655 -0.69,-3.981 -0.1,-0.476 -0.28,-1.924 -0.21,-1.443 0.13,0.925 0.4,2.776 0.4,2.776 0,0 -0.83,-1.964 -0.26,-1.777 2.12,0.698 1.32,13.305 4.94,12.775"
   fill="none"
   opacity="1"
   stroke="#000509"
   stroke-linecap="round"
   stroke-linejoin="round"
   stroke-width="6.67567"
   id="path962" />
<path
   d="m 2155.45,573.943 c -0.57,4.555 -1.97,14.51 -8.24,20.714 -6.27,6.205 -22.16,8.249 -26.1,5.521"
   fill="none"
   opacity="1"
   stroke="#000509"
   stroke-linecap="butt"
   stroke-linejoin="round"
   stroke-width="6.67567"
   id="path964" />
</g>
<g
   fill="#f8f8f8"
   opacity="1"
   stroke="none"
   id="g978">
<path
   d="m 2390.32,325.012 h -2.42 l -2.27,36.094 h 1.6 l 0.56,-10.143 h 2.63 l 0.57,10.143 h 1.7 z m -2.42,24.406 0.72,-11.946 0.46,-10.195 h 0.1 l 0.42,10.195 0.72,11.946 z"
   id="path968" />
<path
   d="m 2398.76,335.155 v 8.651 h 1.6 v -8.754 c 0,-2.214 -1.03,-3.604 -2.47,-3.604 -1.03,0 -1.81,0.618 -2.17,1.699 h -0.1 v -1.39 h -1.6 v 29.349 h 1.6 v -25.951 c 0,-1.647 0.72,-2.214 1.6,-2.214 0.87,0 1.54,0.567 1.54,2.214 z"
   id="path970" />
<path
   d="m 2407.05,335.155 v 7.775 h 1.6 v -7.878 c 0,-2.214 -1.29,-3.604 -3.14,-3.604 -1.91,0 -3.2,1.39 -3.2,3.604 v 22.759 c 0,2.214 1.34,3.604 3.25,3.604 1.85,0 3.09,-1.39 3.09,-3.604 v -9.217 h -1.6 v 9.114 c 0,1.647 -0.67,2.214 -1.54,2.214 -0.88,0 -1.6,-0.567 -1.6,-2.214 v -22.553 c 0,-1.647 0.72,-2.265 1.6,-2.265 0.87,0 1.54,0.618 1.54,2.265 z"
   id="path972" />
<path
   d="m 2416.99,335.052 c 0,-2.214 -1.29,-3.604 -3.14,-3.604 -1.91,0 -3.19,1.39 -3.19,3.604 v 22.759 c 0,2.214 1.33,3.604 3.19,3.604 1.9,0 3.14,-1.339 3.14,-3.604 z m -1.6,0.052 v 22.604 c 0,1.647 -0.67,2.214 -1.54,2.214 -0.88,0 -1.6,-0.567 -1.6,-2.214 v -22.604 c 0,-1.596 0.72,-2.214 1.6,-2.214 0.87,0 1.54,0.618 1.54,2.214 z"
   id="path974" />
<path
   d="m 2425.28,351.426 c 0,-2.626 -1.24,-4.428 -2.47,-6.127 -1.14,-1.596 -2.27,-3.193 -2.27,-5.355 v -4.789 c 0,-1.596 0.72,-2.214 1.6,-2.214 0.87,0 1.54,0.618 1.54,2.214 v 5.561 h 1.6 v -5.664 c 0,-2.214 -1.29,-3.604 -3.14,-3.604 -1.91,0 -3.19,1.39 -3.19,3.604 v 4.892 c 0,2.677 1.28,4.428 2.52,6.127 1.13,1.596 2.21,3.192 2.21,5.355 v 6.282 c 0,1.647 -0.67,2.214 -1.54,2.214 -0.88,0 -1.6,-0.567 -1.6,-2.214 v -6.951 h -1.59 v 7.054 c 0,2.214 1.28,3.604 3.14,3.604 1.9,0 3.19,-1.39 3.19,-3.604 z"
   id="path976" />
</g>
</g>
</g>



</g>
</svg>
