<?xml version="1.0" encoding="UTF-8" standalone="no"?>
<!DOCTYPE svg PUBLIC "-//W3C//DTD SVG 1.1//EN" "http://www.w3.org/Graphics/SVG/1.1/DTD/svg11.dtd">
<!-- Created with Vectornator (http://vectornator.io/) -->
<svg height="512.0px" stroke-miterlimit="10" style="fill-rule:nonzero;clip-rule:evenodd;stroke-linecap:round;stroke-linejoin:round;" version="1.1" viewBox="0 0 512 512" width="512.0px" xml:space="preserve" xmlns="http://www.w3.org/2000/svg" xmlns:xlink="http://www.w3.org/1999/xlink">
<defs/>
<g id="Camada-1">
<g opacity="1">
<path d="M266.333 134.072L266.333 158.871M241.534 134.072L241.534 158.871M291.132 134.072L291.132 158.871M315.931 134.072L315.931 158.871M340.73 134.072L340.73 158.871M365.529 134.072L365.529 158.871" fill="none" opacity="1" stroke="#ffffff" stroke-linecap="round" stroke-linejoin="miter" stroke-width="8.26633"/>
<path d="M375.862 169.204C371.296 169.204 367.595 172.905 367.595 177.47C367.595 182.035 371.296 185.736 375.862 185.736C380.427 185.736 384.128 182.035 384.128 177.47C384.128 172.905 380.427 169.204 375.862 169.204Z" fill="none" opacity="1" stroke="#ffffff" stroke-linecap="butt" stroke-linejoin="miter" stroke-width="4.13316"/>
<path d="M198.136 206.402L367.595 206.402M375.862 206.402L384.128 206.402M392.394 206.402L408.927 206.402" fill="none" opacity="1" stroke="#ffffff" stroke-linecap="round" stroke-linejoin="miter" stroke-width="4.13316"/>
<path d="M284.932 243.601L305.598 243.601L305.598 264.266L284.932 264.266L284.932 243.601ZM284.932 280.799L305.598 280.799L305.598 301.465L284.932 301.465L284.932 280.799ZM284.932 317.997L305.598 317.997L305.598 338.663L284.932 338.663L284.932 317.997ZM317.997 243.601L338.663 243.601L338.663 264.266L317.997 264.266L317.997 243.601ZM317.997 280.799L338.663 280.799L338.663 301.465L317.997 301.465L317.997 280.799ZM317.997 317.997L338.663 317.997L338.663 338.663L317.997 338.663L317.997 317.997ZM351.063 243.601L371.729 243.601L371.729 264.266L351.063 264.266L351.063 243.601ZM351.063 280.799L371.729 280.799L371.729 301.465L351.063 301.465L351.063 280.799ZM351.063 317.997L371.729 317.997L371.729 338.663L351.063 338.663L351.063 317.997ZM297.204 375.862L284.932 375.862L284.932 355.196L305.598 355.196L305.598 363.59M251.867 243.601L272.533 243.601L272.533 264.266L251.867 264.266L251.867 243.601ZM251.867 280.799L272.533 280.799L272.533 301.465L251.867 301.465L251.867 280.799ZM251.867 317.997L272.533 317.997L272.533 338.663L251.867 338.663L251.867 317.997ZM251.867 355.196L272.533 355.196L272.533 375.862L251.867 375.862L251.867 355.196ZM227.068 243.601L239.467 243.601L239.467 264.266L218.802 264.266L218.802 251.867M218.802 280.799L239.467 280.799L239.467 301.465L218.802 301.465L218.802 280.799ZM218.802 317.997L239.467 317.997L239.467 338.663L218.802 338.663L218.802 317.997ZM218.802 355.196L239.467 355.196L239.467 375.862L218.802 375.862L218.802 355.196ZM185.736 280.799L206.402 280.799L206.402 301.465L185.736 301.465L185.736 280.799ZM185.736 317.997L206.402 317.997L206.402 338.663L185.736 338.663L185.736 317.997ZM185.736 355.196L206.402 355.196L206.402 375.862L185.736 375.862L185.736 355.196Z" fill="none" opacity="1" stroke="#ffffff" stroke-linecap="round" stroke-linejoin="round" stroke-width="4.13316"/>
<path d="M146.471 215.003L146.471 406.86C146.471 411.428 150.17 415.127 154.737 415.127L402.727 415.127C407.294 415.127 410.994 411.428 410.994 406.86L410.994 171.27C410.994 157.573 399.892 146.471 386.195 146.471L220.161 146.471" fill="none" opacity="1" stroke="#ffffff" stroke-linecap="butt" stroke-linejoin="miter" stroke-width="8.26633"/>
<path d="M160.937 96.8732C127.838 96.8732 101.006 123.705 101.006 156.804C101.006 189.903 127.838 216.735 160.937 216.735C194.036 216.735 220.868 189.903 220.868 156.804C220.868 123.705 194.036 96.8732 160.937 96.8732Z" fill="none" opacity="1" stroke="#ffffff" stroke-linecap="butt" stroke-linejoin="miter" stroke-width="8.26633"/>
<path d="M160.937 115.472C138.11 115.472 119.606 133.977 119.606 156.804C119.606 179.631 138.11 198.136 160.937 198.136C183.764 198.136 202.269 179.631 202.269 156.804C202.269 133.977 183.764 115.472 160.937 115.472Z" fill="none" opacity="1" stroke="#ffffff" stroke-linecap="butt" stroke-linejoin="miter" stroke-width="4.13316"/>
<path d="M160.937 127.872L160.937 156.804L181.603 177.47" fill="none" opacity="1" stroke="#ffffff" stroke-linecap="round" stroke-linejoin="miter" stroke-width="4.13316"/>
</g>
</g>
</svg>
