<?xml version="1.0" encoding="UTF-8" standalone="no"?>
<!DOCTYPE svg PUBLIC "-//W3C//DTD SVG 1.1//EN" "http://www.w3.org/Graphics/SVG/1.1/DTD/svg11.dtd">
<!-- Created with Vectornator (http://vectornator.io/) -->
<svg height="512.0px" stroke-miterlimit="10" style="fill-rule:nonzero;clip-rule:evenodd;stroke-linecap:round;stroke-linejoin:round;" version="1.1" viewBox="0 0 512 512" width="512.0px" xml:space="preserve" xmlns="http://www.w3.org/2000/svg" xmlns:xlink="http://www.w3.org/1999/xlink">
<defs/>
<g id="Camada-1">
<path d="M331.502 82.1558L441.313 136.161L441.313 415.188L349.504 368.384L333.302 362.983L317.1 370.184L189.288 434.99L81.2775 380.985L81.2775 94.7571L176.687 130.761L189.288 134.361L201.889 128.96L331.502 82.1558M333.302 42.552L189.288 96.5572L45.274 42.552L45.274 402.587L189.288 474.594L333.302 402.587L477.316 474.594L477.316 114.559L333.302 42.552L333.302 42.552Z" fill="#ffffff" fill-rule="nonzero" opacity="1" stroke="none"/>
<path d="M207.29 361.183L176.687 330.58L207.29 299.977L192.888 285.576L162.285 316.179L131.682 285.576L117.281 299.977L147.884 330.58L117.281 361.183L131.682 375.584L162.285 344.981L192.888 375.584L207.29 361.183ZM279.297 141.562C269.355 141.562 261.295 149.621 261.295 159.563C261.295 169.505 269.355 177.565 279.297 177.565C289.239 177.565 297.299 169.505 297.299 159.563C297.299 149.621 289.239 141.562 279.297 141.562ZM243.293 177.565C233.351 177.565 225.292 185.625 225.292 195.567C225.292 205.509 233.351 213.569 243.293 213.569C253.235 213.569 261.295 205.509 261.295 195.567C261.295 185.625 253.235 177.565 243.293 177.565ZM189.288 195.567C179.346 195.567 171.286 203.627 171.286 213.569C171.286 223.511 179.346 231.57 189.288 231.57C199.23 231.57 207.29 223.511 207.29 213.569C207.29 203.627 199.23 195.567 189.288 195.567ZM333.302 141.562C323.36 141.562 315.3 149.621 315.3 159.563C315.3 169.505 323.36 177.565 333.302 177.565C343.244 177.565 351.304 169.505 351.304 159.563C351.304 149.621 343.244 141.562 333.302 141.562ZM369.306 177.565C359.363 177.565 351.304 185.625 351.304 195.567C351.304 205.509 359.363 213.569 369.306 213.569C379.248 213.569 387.307 205.509 387.307 195.567C387.307 185.625 379.248 177.565 369.306 177.565ZM387.307 231.57C377.365 231.57 369.306 239.63 369.306 249.572C369.306 259.514 377.365 267.574 387.307 267.574C397.249 267.574 405.309 259.514 405.309 249.572C405.309 239.63 397.249 231.57 387.307 231.57ZM387.307 285.576C377.365 285.576 369.306 293.635 369.306 303.577C369.306 313.519 377.365 321.579 387.307 321.579C397.249 321.579 405.309 313.519 405.309 303.577C405.309 293.635 397.249 285.576 387.307 285.576ZM351.304 321.579C341.362 321.579 333.302 329.639 333.302 339.581C333.302 349.523 341.362 357.583 351.304 357.583C361.246 357.583 369.306 349.523 369.306 339.581C369.306 329.639 361.246 321.579 351.304 321.579ZM297.299 321.579C287.356 321.579 279.297 329.639 279.297 339.581C279.297 349.523 287.356 357.583 297.299 357.583C307.241 357.583 315.3 349.523 315.3 339.581C315.3 329.639 307.241 321.579 297.299 321.579ZM243.293 303.577C233.351 303.577 225.292 311.637 225.292 321.579C225.292 331.521 233.351 339.581 243.293 339.581C253.235 339.581 261.295 331.521 261.295 321.579C261.295 311.637 253.235 303.577 243.293 303.577ZM135.283 177.565C125.341 177.565 117.281 185.625 117.281 195.567C117.281 205.509 125.341 213.569 135.283 213.569C145.225 213.569 153.285 205.509 153.285 195.567C153.285 185.625 145.225 177.565 135.283 177.565Z" fill="#ffffff" fill-rule="nonzero" opacity="1" stroke="none"/>
</g>
</svg>
