<?xml version="1.0" encoding="UTF-8" standalone="no"?>
<!DOCTYPE svg PUBLIC "-//W3C//DTD SVG 1.1//EN" "http://www.w3.org/Graphics/SVG/1.1/DTD/svg11.dtd">
<!-- Created with Vectornator (http://vectornator.io/) -->
<svg height="200.0px" stroke-miterlimit="10" style="fill-rule:nonzero;clip-rule:evenodd;stroke-linecap:round;stroke-linejoin:round;" version="1.1" viewBox="0 0 400 200" width="400.0px" xml:space="preserve" xmlns="http://www.w3.org/2000/svg" xmlns:xlink="http://www.w3.org/1999/xlink">
<defs/>
<g id="Camada-1">
<g opacity="1">
<path d="M63.354 90.8569L44.4022 90.8569L44.4022 84.2396C44.4022 80.0681 44.2222 77.4572 43.862 76.4068C43.5019 75.3564 42.6466 74.8312 41.2961 74.8312C40.1257 74.8312 39.3304 75.2814 38.9103 76.1817C38.4901 77.082 38.2801 79.3929 38.2801 83.1142L38.2801 118.092C38.2801 121.363 38.4901 123.516 38.9103 124.551C39.3304 125.587 40.1707 126.104 41.4312 126.104C42.8117 126.104 43.7495 125.519 44.2447 124.349C44.7398 123.178 44.9874 120.898 44.9874 117.506L44.9874 108.863L41.1611 108.863L41.1611 97.7894L63.354 97.7894L63.354 170.665L51.4247 170.64L49.6691 131.686C48.3786 133.937 46.7506 135.625 44.7849 136.751C42.8192 137.876 40.5008 138.439 37.8299 138.439C34.6488 138.439 31.6702 137.666 28.8942 136.121C26.1182 134.575 24.01 132.662 22.5695 130.381C21.129 128.1 20.2286 125.707 19.8685 123.201C19.5084 120.695 19.3283 116.936 19.3283 111.924L19.3283 90.2717C19.3283 83.3092 19.7035 78.2524 20.4537 75.1013C21.204 71.9502 23.3573 69.0617 26.9135 66.4358C30.4698 63.8098 35.0689 62.4969 40.7109 62.4969C46.2629 62.4969 50.8695 63.6373 54.5308 65.9181C58.1921 68.1989 60.578 70.9073 61.6884 74.0435C62.7988 77.1796 63.354 81.7337 63.354 87.7058L63.354 90.8569Z" fill="#ffffff" fill-rule="nonzero" opacity="1" stroke="none"/>
<path d="M113.997 106.703C113.997 114.025 113.824 119.209 113.479 122.256C113.134 125.302 112.054 128.085 110.238 130.606C108.422 133.127 105.969 135.063 102.878 136.413C99.7869 137.764 96.1856 138.439 92.0742 138.439C88.1728 138.439 84.669 137.801 81.5629 136.526C78.4568 135.25 75.9584 133.337 74.0678 130.786C72.1771 128.235 71.0517 125.459 70.6916 122.458C70.3314 119.457 70.1514 114.205 70.1514 106.703L70.1514 94.2331C70.1514 86.9105 70.3239 81.7262 70.6691 78.6801C71.0142 75.634 72.0946 72.8505 73.9102 70.3296C75.7259 67.8087 78.1792 65.8731 81.2703 64.5226C84.3614 63.1721 87.9627 62.4969 92.0742 62.4969C95.9755 62.4969 99.4793 63.1346 102.585 64.41C105.691 65.6855 108.19 67.5987 110.081 70.1496C111.971 72.7005 113.097 75.4765 113.457 78.4775C113.817 81.4786 113.997 86.7305 113.997 94.2331L113.997 106.703ZM95.0452 82.754C95.0452 79.3628 94.8577 77.1946 94.4825 76.2492C94.1074 75.3039 93.3346 74.8312 92.1642 74.8312C91.1738 74.8312 90.4161 75.2139 89.8909 75.9791C89.3657 76.7444 89.1031 79.0027 89.1031 82.754L89.1031 116.786C89.1031 121.018 89.2757 123.629 89.6208 124.619C89.9659 125.609 90.7687 126.104 92.0291 126.104C93.3196 126.104 94.1449 125.534 94.505 124.394C94.8652 123.253 95.0452 120.537 95.0452 116.246L95.0452 82.754Z" fill="#ffffff" fill-rule="nonzero" opacity="1" stroke="none"/>
<path d="M137.315 64.0274L156.222 64.0274C162.194 64.0274 166.718 64.4926 169.794 65.4229C172.87 66.3532 175.354 68.2364 177.244 71.0724C179.135 73.9084 180.08 78.4775 180.08 84.7798C180.08 89.0413 179.413 92.0123 178.077 93.6929C176.742 95.3735 174.108 96.664 170.177 97.5643C174.558 98.5547 177.53 100.198 179.09 102.494C180.651 104.789 181.431 108.308 181.431 113.05L181.431 119.802C181.431 124.724 180.868 128.37 179.743 130.741C178.617 133.112 176.824 134.733 174.363 135.603C171.903 136.473 166.861 136.908 159.238 136.908L137.315 136.908L137.315 64.0274ZM156.267 76.4968L156.267 92.7026C157.077 92.6726 157.707 92.6576 158.158 92.6576C160.018 92.6576 161.204 92.1999 161.714 91.2846C162.224 90.3693 162.479 87.7508 162.479 83.4293C162.479 81.1485 162.269 79.5504 161.849 78.6351C161.429 77.7198 160.881 77.1421 160.206 76.902C159.531 76.6619 158.218 76.5268 156.267 76.4968ZM156.267 104.047L156.267 124.439C158.938 124.349 160.641 123.929 161.376 123.178C162.112 122.428 162.479 120.582 162.479 117.641L162.479 110.844C162.479 107.723 162.149 105.832 161.489 105.172C160.829 104.512 159.088 104.137 156.267 104.047Z" fill="#ffffff" fill-rule="nonzero" opacity="1" stroke="none"/>
<path d="M231.309 29.3351L231.309 112.735C231.309 118.257 231.129 122.136 230.768 124.371C230.408 126.607 229.343 128.903 227.572 131.259C225.802 133.615 223.468 135.4 220.572 136.616C217.676 137.831 214.263 138.439 210.331 138.439C205.98 138.439 202.138 137.719 198.807 136.278C195.476 134.838 192.985 132.962 191.334 130.651C189.684 128.34 188.708 125.902 188.408 123.336C188.108 120.77 187.958 115.376 187.958 107.153L187.958 64.0274L206.91 64.0274L206.91 118.677C206.91 121.858 207.083 123.891 207.428 124.776C207.773 125.662 208.471 126.104 209.521 126.104C210.721 126.104 211.494 125.617 211.839 124.641C212.184 123.666 212.357 121.363 212.357 117.731L212.357 29.3392L231.309 29.3351Z" fill="#ffffff" fill-rule="nonzero" opacity="1" stroke="none"/>
<path d="M282.132 90.8569L263.18 90.8569L263.18 84.2396C263.18 80.0681 263 77.4572 262.64 76.4068C262.28 75.3564 261.424 74.8312 260.074 74.8312C258.903 74.8312 258.108 75.2814 257.688 76.1817C257.268 77.082 257.058 79.3929 257.058 83.1142L257.058 118.092C257.058 121.363 257.268 123.516 257.688 124.551C258.108 125.587 258.948 126.104 260.209 126.104C261.589 126.104 262.527 125.519 263.022 124.349C263.518 123.178 263.765 120.898 263.765 117.506L263.765 108.863L259.939 108.863L259.939 97.7894L282.132 97.7894L282.132 136.908L270.202 136.908L268.447 131.686C267.156 133.937 265.528 135.625 263.563 136.751C261.597 137.876 259.279 138.439 256.608 138.439C253.426 138.439 250.448 137.666 247.672 136.121C244.896 134.575 242.788 132.662 241.347 130.381C239.907 128.1 239.006 125.707 238.646 123.201C238.286 120.695 238.106 116.936 238.106 111.924L238.106 90.2717C238.106 83.3092 238.481 78.2524 239.231 75.1013C239.982 71.9502 242.135 69.0617 245.691 66.4358C249.247 63.8098 253.847 62.4969 259.489 62.4969C265.041 62.4969 269.647 63.6373 273.309 65.9181C276.97 68.1989 279.356 70.9073 280.466 74.0435C281.576 77.1796 282.132 81.7337 282.132 87.7058L282.132 90.8569Z" fill="#ffffff" fill-rule="nonzero" opacity="1" stroke="none"/>
<path d="M332.955 90.8569L314.003 90.8569L314.003 84.2396C314.003 80.0681 313.823 77.4572 313.463 76.4068C313.103 75.3564 312.247 74.8312 310.897 74.8312C309.726 74.8312 308.931 75.2814 308.511 76.1817C308.091 77.082 307.881 79.3929 307.881 83.1142L307.881 118.092C307.881 121.363 308.091 123.516 308.511 124.551C308.931 125.587 309.771 126.104 311.032 126.104C312.412 126.104 313.35 125.519 313.845 124.349C314.341 123.178 314.588 120.898 314.588 117.506L314.588 108.863L310.762 108.863L310.762 97.7894L332.955 97.7894L332.955 136.908L321.025 136.908L319.27 131.686C317.979 133.937 316.351 135.625 314.386 136.751C312.42 137.876 310.102 138.439 307.431 138.439C304.25 138.439 301.271 137.666 298.495 136.121C295.719 134.575 293.611 132.662 292.17 130.381C290.73 128.1 289.829 125.707 289.469 123.201C289.109 120.695 288.929 116.936 288.929 111.924L288.929 90.2717C288.929 83.3092 289.304 78.2524 290.054 75.1013C290.805 71.9502 292.958 69.0617 296.514 66.4358C300.071 63.8098 304.67 62.4969 310.312 62.4969C315.864 62.4969 320.47 63.6373 324.132 65.9181C327.793 68.1989 330.179 70.9073 331.289 74.0435C332.4 77.1796 332.955 81.7337 332.955 87.7058L332.955 90.8569Z" fill="#ffffff" fill-rule="nonzero" opacity="1" stroke="none"/>
<path d="M380.672 64.0274L366.852 110.529L366.852 170.642L349.296 170.638L349.296 110.529L335.971 64.0274L353.392 64.0274C356.123 78.2224 357.654 87.7808 357.984 92.7026C359.034 84.9298 360.79 75.3714 363.25 64.0274L380.672 64.0274Z" fill="#ffffff" fill-rule="nonzero" opacity="1" stroke="none"/>
</g>
</g>
</svg>
