
<svg height="161.04784854502373px" stroke-miterlimit="10" style="fill-rule:nonzero;clip-rule:evenodd;stroke-linecap:round;stroke-linejoin:round;" version="1.1" viewBox="0 0 200 161.048" width="200.0px" xml:space="preserve" xmlns="http://www.w3.org/2000/svg" xmlns:xlink="http://www.w3.org/1999/xlink">
<defs>
<filter color-interpolation-filters="sRGB" filterUnits="userSpaceOnUse" height="17.3905" id="Filter" width="14.4666" x="133.225" y="67.4238">
<feGaussianBlur in="SourceGraphic" result="Blur" stdDeviation="1.66895"/>
</filter>
</defs>
<clipPath id="ArtboardFrame">
<rect height="161.048" width="200" x="0" y="0"/>
</clipPath>
<g clip-path="url(#ArtboardFrame)" id="Camada-1">
<path d="M1201.54 1513.73C1199.64 1513.73 1198.1 1515.27 1198.1 1517.17C1198.1 1519.07 1199.64 1520.61 1201.54 1520.61C1203.44 1520.61 1204.98 1519.07 1204.98 1517.17C1204.98 1515.27 1203.44 1513.73 1201.54 1513.73ZM1201.54 1541.25C1199.64 1541.25 1198.1 1542.79 1198.1 1544.69C1198.1 1546.59 1199.64 1548.13 1201.54 1548.13C1203.44 1548.13 1204.98 1546.59 1204.98 1544.69C1204.98 1542.79 1203.44 1541.25 1201.54 1541.25Z" fill="#000000" fill-rule="nonzero" opacity="1" stroke="#ffffff" stroke-linecap="round" stroke-linejoin="round" stroke-width="6.88085"/>
<path d="M1186.64 1522.33C1185.69 1523.98 1186.26 1526.08 1187.9 1527.03C1189.55 1527.98 1191.65 1527.42 1192.6 1525.77C1193.55 1524.13 1192.99 1522.03 1191.34 1521.08C1189.7 1520.13 1187.59 1520.69 1186.64 1522.33Z" fill="#000000" fill-rule="nonzero" opacity="1" stroke="#ffffff" stroke-linecap="round" stroke-linejoin="round" stroke-width="6.88085"/>
<path d="M1210.48 1536.1C1209.53 1537.74 1210.09 1539.85 1211.74 1540.8C1213.38 1541.75 1215.49 1541.18 1216.44 1539.54C1217.39 1537.89 1216.82 1535.79 1215.18 1534.84C1213.53 1533.89 1211.43 1534.45 1210.48 1536.1Z" fill="#000000" fill-rule="nonzero" opacity="1" stroke="#ffffff" stroke-linecap="round" stroke-linejoin="round" stroke-width="6.88085"/>
<path d="M1187.9 1534.82C1186.26 1535.77 1185.69 1537.88 1186.64 1539.52C1187.59 1541.17 1189.7 1541.73 1191.34 1540.78C1192.99 1539.83 1193.55 1537.73 1192.6 1536.08C1191.65 1534.44 1189.55 1533.87 1187.9 1534.82Z" fill="#000000" fill-rule="nonzero" opacity="1" stroke="#ffffff" stroke-linecap="round" stroke-linejoin="round" stroke-width="6.88085"/>
<path d="M1211.73 1521.06C1210.09 1522.01 1209.53 1524.12 1210.48 1525.76C1211.43 1527.41 1213.53 1527.97 1215.18 1527.02C1216.82 1526.07 1217.38 1523.97 1216.43 1522.32C1215.48 1520.68 1213.38 1520.11 1211.73 1521.06Z" fill="#000000" fill-rule="nonzero" opacity="1" stroke="#ffffff" stroke-linecap="round" stroke-linejoin="round" stroke-width="6.88085"/>
<path d="M1201.54 1503.41C1186.34 1503.41 1174.02 1515.73 1174.02 1530.93C1174.02 1546.13 1186.34 1558.45 1201.54 1558.45C1216.75 1558.45 1229.07 1546.13 1229.07 1530.93C1229.07 1515.73 1216.75 1503.41 1201.54 1503.41Z" fill="#000000" fill-rule="nonzero" opacity="1" stroke="#ffffff" stroke-linecap="butt" stroke-linejoin="miter" stroke-width="6.88085"/>
<path d="M1032.96 1513.73C1031.06 1513.73 1029.52 1515.27 1029.52 1517.17C1029.52 1519.07 1031.06 1520.61 1032.96 1520.61C1034.86 1520.61 1036.4 1519.07 1036.4 1517.17C1036.4 1515.27 1034.86 1513.73 1032.96 1513.73ZM1170.58 1472.44C1168.68 1472.44 1167.14 1473.98 1167.14 1475.88C1167.14 1477.78 1168.68 1479.32 1170.58 1479.32C1172.48 1479.32 1174.02 1477.78 1174.02 1475.88C1174.02 1473.98 1172.48 1472.44 1170.58 1472.44ZM1184.34 1472.44C1182.44 1472.44 1180.9 1473.98 1180.9 1475.88C1180.9 1477.78 1182.44 1479.32 1184.34 1479.32C1186.24 1479.32 1187.78 1477.78 1187.78 1475.88C1187.78 1473.98 1186.24 1472.44 1184.34 1472.44ZM1198.1 1472.44C1196.2 1472.44 1194.66 1473.98 1194.66 1475.88C1194.66 1477.78 1196.2 1479.32 1198.1 1479.32C1200 1479.32 1201.54 1477.78 1201.54 1475.88C1201.54 1473.98 1200 1472.44 1198.1 1472.44ZM1211.87 1472.44C1209.97 1472.44 1208.43 1473.98 1208.43 1475.88C1208.43 1477.78 1209.97 1479.32 1211.87 1479.32C1213.77 1479.32 1215.31 1477.78 1215.31 1475.88C1215.31 1473.98 1213.77 1472.44 1211.87 1472.44ZM1015.76 1472.44C1013.86 1472.44 1012.32 1473.98 1012.32 1475.88C1012.32 1477.78 1013.86 1479.32 1015.76 1479.32C1017.66 1479.32 1019.2 1477.78 1019.2 1475.88C1019.2 1473.98 1017.66 1472.44 1015.76 1472.44ZM1029.52 1472.44C1027.62 1472.44 1026.08 1473.98 1026.08 1475.88C1026.08 1477.78 1027.62 1479.32 1029.52 1479.32C1031.42 1479.32 1032.96 1477.78 1032.96 1475.88C1032.96 1473.98 1031.42 1472.44 1029.52 1472.44ZM1043.28 1472.44C1041.38 1472.44 1039.84 1473.98 1039.84 1475.88C1039.84 1477.78 1041.38 1479.32 1043.28 1479.32C1045.18 1479.32 1046.73 1477.78 1046.73 1475.88C1046.73 1473.98 1045.18 1472.44 1043.28 1472.44ZM1057.05 1472.44C1055.15 1472.44 1053.61 1473.98 1053.61 1475.88C1053.61 1477.78 1055.15 1479.32 1057.05 1479.32C1058.95 1479.32 1060.49 1477.78 1060.49 1475.88C1060.49 1473.98 1058.95 1472.44 1057.05 1472.44ZM1032.96 1541.25C1031.06 1541.25 1029.52 1542.79 1029.52 1544.69C1029.52 1546.59 1031.06 1548.13 1032.96 1548.13C1034.86 1548.13 1036.4 1546.59 1036.4 1544.69C1036.4 1542.79 1034.86 1541.25 1032.96 1541.25Z" fill="#000000" fill-rule="nonzero" opacity="1" stroke="#ffffff" stroke-linecap="round" stroke-linejoin="round" stroke-width="6.88085"/>
<path d="M1018.06 1522.33C1017.11 1523.97 1017.68 1526.08 1019.32 1527.03C1020.97 1527.98 1023.07 1527.41 1024.02 1525.77C1024.97 1524.12 1024.41 1522.02 1022.76 1521.07C1021.12 1520.12 1019.01 1520.68 1018.06 1522.33Z" fill="#000000" fill-rule="nonzero" opacity="1" stroke="#ffffff" stroke-linecap="round" stroke-linejoin="round" stroke-width="6.88085"/>
<path d="M1041.9 1536.09C1040.95 1537.74 1041.51 1539.84 1043.15 1540.79C1044.8 1541.74 1046.9 1541.18 1047.85 1539.53C1048.8 1537.89 1048.24 1535.78 1046.6 1534.83C1044.95 1533.88 1042.85 1534.45 1041.9 1536.09Z" fill="#000000" fill-rule="nonzero" opacity="1" stroke="#ffffff" stroke-linecap="round" stroke-linejoin="round" stroke-width="6.88085"/>
<path d="M1019.32 1534.83C1017.68 1535.78 1017.11 1537.88 1018.06 1539.53C1019.01 1541.17 1021.12 1541.73 1022.76 1540.78C1024.41 1539.83 1024.97 1537.73 1024.02 1536.08C1023.07 1534.44 1020.97 1533.88 1019.32 1534.83Z" fill="#000000" fill-rule="nonzero" opacity="1" stroke="#ffffff" stroke-linecap="round" stroke-linejoin="round" stroke-width="6.88085"/>
<path d="M1043.16 1521.06C1041.51 1522.01 1040.95 1524.12 1041.9 1525.76C1042.85 1527.41 1044.95 1527.97 1046.6 1527.02C1048.25 1526.07 1048.81 1523.97 1047.86 1522.32C1046.91 1520.68 1044.81 1520.11 1043.16 1521.06Z" fill="#000000" fill-rule="nonzero" opacity="1" stroke="#ffffff" stroke-linecap="round" stroke-linejoin="round" stroke-width="6.88085"/>
<path d="M1032.96 1503.41C1017.76 1503.41 1005.44 1515.73 1005.44 1530.93C1005.44 1546.13 1017.76 1558.45 1032.96 1558.45C1048.16 1558.45 1060.49 1546.13 1060.49 1530.93C1060.49 1515.73 1048.16 1503.41 1032.96 1503.41Z" fill="#000000" fill-rule="nonzero" opacity="1" stroke="#ffffff" stroke-linecap="butt" stroke-linejoin="miter" stroke-width="6.88085"/>
<path d="M1081.13 1530.93L1060.49 1489.64L995.119 1489.64C995.119 1489.64 1002 1455.24 1012.32 1455.24C1022.64 1455.24 1067.37 1455.24 1067.37 1455.24L1091.45 1503.41L1143.06 1503.41L1143.06 1472.44L1153.38 1448.36L1206.11 1459.46C1213.84 1461.09 1219.96 1466.99 1221.88 1474.65L1225.63 1489.64L1167.14 1489.64L1153.38 1530.93L1081.13 1530.93Z" fill="#000000" fill-rule="nonzero" opacity="1" stroke="#ffffff" stroke-linecap="round" stroke-linejoin="round" stroke-width="6.88085"/>
<path d="M1067.37 1455.24L1046.73 1413.95L1077.69 1386.43L1136.18 1400.19L1170.58 1451.8M1026.08 1503.41L1026.08 1489.64M1039.84 1503.41L1039.84 1489.64M1194.66 1503.41L1194.66 1489.64M1208.43 1503.41L1208.43 1489.64M1162.1 1510.29L1182.89 1510.29M1156.67 1524.05L1174.64 1524.05M1051.42 1510.29L1070.56 1510.29M1059.82 1524.05L1077.48 1524.05" fill="#000000" fill-rule="nonzero" opacity="1" stroke="#ffffff" stroke-linecap="round" stroke-linejoin="round" stroke-width="6.88085"/>
<path d="M1058.41 1444.41L1058.41 1420.32C1058.41 1416.52 1061.49 1413.44 1065.29 1413.44L1065.29 1413.44C1069.09 1413.44 1072.17 1416.52 1072.17 1420.32L1072.17 1458.17L1096.25 1458.17C1100.06 1458.17 1103.13 1461.25 1103.13 1465.05L1103.13 1465.05C1103.13 1468.85 1100.06 1471.93 1096.25 1471.93L1072.17 1471.93" fill="#000000" fill-rule="nonzero" opacity="1" stroke="#ffffff" stroke-linecap="round" stroke-linejoin="round" stroke-width="6.88085"/>
<path d="M1201.54 1513.73C1199.64 1513.73 1198.1 1515.27 1198.1 1517.17C1198.1 1519.07 1199.64 1520.61 1201.54 1520.61C1203.44 1520.61 1204.98 1519.07 1204.98 1517.17C1204.98 1515.27 1203.44 1513.73 1201.54 1513.73ZM1201.54 1541.25C1199.64 1541.25 1198.1 1542.79 1198.1 1544.69C1198.1 1546.59 1199.64 1548.13 1201.54 1548.13C1203.44 1548.13 1204.98 1546.59 1204.98 1544.69C1204.98 1542.79 1203.44 1541.25 1201.54 1541.25Z" fill="#000000" fill-rule="nonzero" opacity="1" stroke="#ffffff" stroke-linecap="round" stroke-linejoin="round" stroke-width="6.88085"/>
<path d="M1186.64 1522.33C1185.69 1523.98 1186.26 1526.08 1187.9 1527.03C1189.55 1527.98 1191.65 1527.42 1192.6 1525.77C1193.55 1524.13 1192.99 1522.03 1191.34 1521.08C1189.7 1520.13 1187.59 1520.69 1186.64 1522.33Z" fill="#000000" fill-rule="nonzero" opacity="1" stroke="#ffffff" stroke-linecap="round" stroke-linejoin="round" stroke-width="6.88085"/>
<path d="M1210.48 1536.1C1209.53 1537.74 1210.09 1539.85 1211.74 1540.8C1213.38 1541.75 1215.49 1541.18 1216.44 1539.54C1217.39 1537.89 1216.82 1535.79 1215.18 1534.84C1213.53 1533.89 1211.43 1534.45 1210.48 1536.1Z" fill="#000000" fill-rule="nonzero" opacity="1" stroke="#ffffff" stroke-linecap="round" stroke-linejoin="round" stroke-width="6.88085"/>
<path d="M1187.9 1534.82C1186.26 1535.77 1185.69 1537.88 1186.64 1539.52C1187.59 1541.17 1189.7 1541.73 1191.34 1540.78C1192.99 1539.83 1193.55 1537.73 1192.6 1536.08C1191.65 1534.44 1189.55 1533.87 1187.9 1534.82Z" fill="#000000" fill-rule="nonzero" opacity="1" stroke="#ffffff" stroke-linecap="round" stroke-linejoin="round" stroke-width="6.88085"/>
<path d="M1211.73 1521.06C1210.09 1522.01 1209.53 1524.12 1210.48 1525.76C1211.43 1527.41 1213.53 1527.97 1215.18 1527.02C1216.82 1526.07 1217.38 1523.97 1216.43 1522.32C1215.48 1520.68 1213.38 1520.11 1211.73 1521.06Z" fill="#000000" fill-rule="nonzero" opacity="1" stroke="#ffffff" stroke-linecap="round" stroke-linejoin="round" stroke-width="6.88085"/>
<path d="M1201.54 1503.41C1186.34 1503.41 1174.02 1515.73 1174.02 1530.93C1174.02 1546.13 1186.34 1558.45 1201.54 1558.45C1216.75 1558.45 1229.07 1546.13 1229.07 1530.93C1229.07 1515.73 1216.75 1503.41 1201.54 1503.41Z" fill="#000000" fill-rule="nonzero" opacity="1" stroke="#ffffff" stroke-linecap="butt" stroke-linejoin="miter" stroke-width="6.88085"/>
<path d="M1032.96 1513.73C1031.06 1513.73 1029.52 1515.27 1029.52 1517.17C1029.52 1519.07 1031.06 1520.61 1032.96 1520.61C1034.86 1520.61 1036.4 1519.07 1036.4 1517.17C1036.4 1515.27 1034.86 1513.73 1032.96 1513.73ZM1170.58 1472.44C1168.68 1472.44 1167.14 1473.98 1167.14 1475.88C1167.14 1477.78 1168.68 1479.32 1170.58 1479.32C1172.48 1479.32 1174.02 1477.78 1174.02 1475.88C1174.02 1473.98 1172.48 1472.44 1170.58 1472.44ZM1184.34 1472.44C1182.44 1472.44 1180.9 1473.98 1180.9 1475.88C1180.9 1477.78 1182.44 1479.32 1184.34 1479.32C1186.24 1479.32 1187.78 1477.78 1187.78 1475.88C1187.78 1473.98 1186.24 1472.44 1184.34 1472.44ZM1198.1 1472.44C1196.2 1472.44 1194.66 1473.98 1194.66 1475.88C1194.66 1477.78 1196.2 1479.32 1198.1 1479.32C1200 1479.32 1201.54 1477.78 1201.54 1475.88C1201.54 1473.98 1200 1472.44 1198.1 1472.44ZM1211.87 1472.44C1209.97 1472.44 1208.43 1473.98 1208.43 1475.88C1208.43 1477.78 1209.97 1479.32 1211.87 1479.32C1213.77 1479.32 1215.31 1477.78 1215.31 1475.88C1215.31 1473.98 1213.77 1472.44 1211.87 1472.44ZM1015.76 1472.44C1013.86 1472.44 1012.32 1473.98 1012.32 1475.88C1012.32 1477.78 1013.86 1479.32 1015.76 1479.32C1017.66 1479.32 1019.2 1477.78 1019.2 1475.88C1019.2 1473.98 1017.66 1472.44 1015.76 1472.44ZM1029.52 1472.44C1027.62 1472.44 1026.08 1473.98 1026.08 1475.88C1026.08 1477.78 1027.62 1479.32 1029.52 1479.32C1031.42 1479.32 1032.96 1477.78 1032.96 1475.88C1032.96 1473.98 1031.42 1472.44 1029.52 1472.44ZM1043.28 1472.44C1041.38 1472.44 1039.84 1473.98 1039.84 1475.88C1039.84 1477.78 1041.38 1479.32 1043.28 1479.32C1045.18 1479.32 1046.73 1477.78 1046.73 1475.88C1046.73 1473.98 1045.18 1472.44 1043.28 1472.44ZM1057.05 1472.44C1055.15 1472.44 1053.61 1473.98 1053.61 1475.88C1053.61 1477.78 1055.15 1479.32 1057.05 1479.32C1058.95 1479.32 1060.49 1477.78 1060.49 1475.88C1060.49 1473.98 1058.95 1472.44 1057.05 1472.44ZM1032.96 1541.25C1031.06 1541.25 1029.52 1542.79 1029.52 1544.69C1029.52 1546.59 1031.06 1548.13 1032.96 1548.13C1034.86 1548.13 1036.4 1546.59 1036.4 1544.69C1036.4 1542.79 1034.86 1541.25 1032.96 1541.25Z" fill="#000000" fill-rule="nonzero" opacity="1" stroke="#ffffff" stroke-linecap="round" stroke-linejoin="round" stroke-width="6.88085"/>
<path d="M1018.06 1522.33C1017.11 1523.97 1017.68 1526.08 1019.32 1527.03C1020.97 1527.98 1023.07 1527.41 1024.02 1525.77C1024.97 1524.12 1024.41 1522.02 1022.76 1521.07C1021.12 1520.12 1019.01 1520.68 1018.06 1522.33Z" fill="#000000" fill-rule="nonzero" opacity="1" stroke="#ffffff" stroke-linecap="round" stroke-linejoin="round" stroke-width="6.88085"/>
<path d="M1041.9 1536.09C1040.95 1537.74 1041.51 1539.84 1043.15 1540.79C1044.8 1541.74 1046.9 1541.18 1047.85 1539.53C1048.8 1537.89 1048.24 1535.78 1046.6 1534.83C1044.95 1533.88 1042.85 1534.45 1041.9 1536.09Z" fill="#000000" fill-rule="nonzero" opacity="1" stroke="#ffffff" stroke-linecap="round" stroke-linejoin="round" stroke-width="6.88085"/>
<path d="M1019.32 1534.83C1017.68 1535.78 1017.11 1537.88 1018.06 1539.53C1019.01 1541.17 1021.12 1541.73 1022.76 1540.78C1024.41 1539.83 1024.97 1537.73 1024.02 1536.08C1023.07 1534.44 1020.97 1533.88 1019.32 1534.83Z" fill="#000000" fill-rule="nonzero" opacity="1" stroke="#ffffff" stroke-linecap="round" stroke-linejoin="round" stroke-width="6.88085"/>
<path d="M1043.16 1521.06C1041.51 1522.01 1040.95 1524.12 1041.9 1525.76C1042.85 1527.41 1044.95 1527.97 1046.6 1527.02C1048.25 1526.07 1048.81 1523.97 1047.86 1522.32C1046.91 1520.68 1044.81 1520.11 1043.16 1521.06Z" fill="#000000" fill-rule="nonzero" opacity="1" stroke="#ffffff" stroke-linecap="round" stroke-linejoin="round" stroke-width="6.88085"/>
<path d="M1032.96 1503.41C1017.76 1503.41 1005.44 1515.73 1005.44 1530.93C1005.44 1546.13 1017.76 1558.45 1032.96 1558.45C1048.16 1558.45 1060.49 1546.13 1060.49 1530.93C1060.49 1515.73 1048.16 1503.41 1032.96 1503.41Z" fill="#000000" fill-rule="nonzero" opacity="1" stroke="#ffffff" stroke-linecap="butt" stroke-linejoin="miter" stroke-width="6.88085"/>
<path d="M1081.13 1530.93L1060.49 1489.64L995.119 1489.64C995.119 1489.64 1002 1455.24 1012.32 1455.24C1022.64 1455.24 1067.37 1455.24 1067.37 1455.24L1091.45 1503.41L1143.06 1503.41L1143.06 1472.44L1153.38 1448.36L1206.11 1459.46C1213.84 1461.09 1219.96 1466.99 1221.88 1474.65L1225.63 1489.64L1167.14 1489.64L1153.38 1530.93L1081.13 1530.93Z" fill="#000000" fill-rule="nonzero" opacity="1" stroke="#ffffff" stroke-linecap="round" stroke-linejoin="round" stroke-width="6.88085"/>
<path d="M1067.37 1455.24L1046.73 1413.95L1077.69 1386.43L1136.18 1400.19L1170.58 1451.8M1026.08 1503.41L1026.08 1489.64M1039.84 1503.41L1039.84 1489.64M1194.66 1503.41L1194.66 1489.64M1208.43 1503.41L1208.43 1489.64M1162.1 1510.29L1182.89 1510.29M1156.67 1524.05L1174.64 1524.05M1051.42 1510.29L1070.56 1510.29M1059.82 1524.05L1077.48 1524.05" fill="#000000" fill-rule="nonzero" opacity="1" stroke="#ffffff" stroke-linecap="round" stroke-linejoin="round" stroke-width="6.88085"/>
<path d="M1058.41 1444.41L1058.41 1420.32C1058.41 1416.52 1061.49 1413.44 1065.29 1413.44L1065.29 1413.44C1069.09 1413.44 1072.17 1416.52 1072.17 1420.32L1072.17 1458.17L1096.25 1458.17C1100.06 1458.17 1103.13 1461.25 1103.13 1465.05L1103.13 1465.05C1103.13 1468.85 1100.06 1471.93 1096.25 1471.93L1072.17 1471.93" fill="#000000" fill-rule="nonzero" opacity="1" stroke="#ffffff" stroke-linecap="round" stroke-linejoin="round" stroke-width="6.88085"/>
<path d="M1201.54 1513.73C1199.64 1513.73 1198.1 1515.27 1198.1 1517.17C1198.1 1519.07 1199.64 1520.61 1201.54 1520.61C1203.44 1520.61 1204.98 1519.07 1204.98 1517.17C1204.98 1515.27 1203.44 1513.73 1201.54 1513.73ZM1201.54 1541.25C1199.64 1541.25 1198.1 1542.79 1198.1 1544.69C1198.1 1546.59 1199.64 1548.13 1201.54 1548.13C1203.44 1548.13 1204.98 1546.59 1204.98 1544.69C1204.98 1542.79 1203.44 1541.25 1201.54 1541.25Z" fill="#000000" fill-rule="nonzero" opacity="1" stroke="#ffffff" stroke-linecap="round" stroke-linejoin="round" stroke-width="6.88085"/>
<path d="M1186.64 1522.33C1185.69 1523.98 1186.26 1526.08 1187.9 1527.03C1189.55 1527.98 1191.65 1527.42 1192.6 1525.77C1193.55 1524.13 1192.99 1522.03 1191.34 1521.08C1189.7 1520.13 1187.59 1520.69 1186.64 1522.33Z" fill="#000000" fill-rule="nonzero" opacity="1" stroke="#ffffff" stroke-linecap="round" stroke-linejoin="round" stroke-width="6.88085"/>
<path d="M1210.48 1536.1C1209.53 1537.74 1210.09 1539.85 1211.74 1540.8C1213.38 1541.75 1215.49 1541.18 1216.44 1539.54C1217.39 1537.89 1216.82 1535.79 1215.18 1534.84C1213.53 1533.89 1211.43 1534.45 1210.48 1536.1Z" fill="#000000" fill-rule="nonzero" opacity="1" stroke="#ffffff" stroke-linecap="round" stroke-linejoin="round" stroke-width="6.88085"/>
<path d="M1187.9 1534.82C1186.26 1535.77 1185.69 1537.88 1186.64 1539.52C1187.59 1541.17 1189.7 1541.73 1191.34 1540.78C1192.99 1539.83 1193.55 1537.73 1192.6 1536.08C1191.65 1534.44 1189.55 1533.87 1187.9 1534.82Z" fill="#000000" fill-rule="nonzero" opacity="1" stroke="#ffffff" stroke-linecap="round" stroke-linejoin="round" stroke-width="6.88085"/>
<path d="M1211.73 1521.06C1210.09 1522.01 1209.53 1524.12 1210.48 1525.76C1211.43 1527.41 1213.53 1527.97 1215.18 1527.02C1216.82 1526.07 1217.38 1523.97 1216.43 1522.32C1215.48 1520.68 1213.38 1520.11 1211.73 1521.06Z" fill="#000000" fill-rule="nonzero" opacity="1" stroke="#ffffff" stroke-linecap="round" stroke-linejoin="round" stroke-width="6.88085"/>
<path d="M1201.54 1503.41C1186.34 1503.41 1174.02 1515.73 1174.02 1530.93C1174.02 1546.13 1186.34 1558.45 1201.54 1558.45C1216.75 1558.45 1229.07 1546.13 1229.07 1530.93C1229.07 1515.73 1216.75 1503.41 1201.54 1503.41Z" fill="#000000" fill-rule="nonzero" opacity="1" stroke="#ffffff" stroke-linecap="butt" stroke-linejoin="miter" stroke-width="6.88085"/>
<path d="M1032.96 1513.73C1031.06 1513.73 1029.52 1515.27 1029.52 1517.17C1029.52 1519.07 1031.06 1520.61 1032.96 1520.61C1034.86 1520.61 1036.4 1519.07 1036.4 1517.17C1036.4 1515.27 1034.86 1513.73 1032.96 1513.73ZM1170.58 1472.44C1168.68 1472.44 1167.14 1473.98 1167.14 1475.88C1167.14 1477.78 1168.68 1479.32 1170.58 1479.32C1172.48 1479.32 1174.02 1477.78 1174.02 1475.88C1174.02 1473.98 1172.48 1472.44 1170.58 1472.44ZM1184.34 1472.44C1182.44 1472.44 1180.9 1473.98 1180.9 1475.88C1180.9 1477.78 1182.44 1479.32 1184.34 1479.32C1186.24 1479.32 1187.78 1477.78 1187.78 1475.88C1187.78 1473.98 1186.24 1472.44 1184.34 1472.44ZM1198.1 1472.44C1196.2 1472.44 1194.66 1473.98 1194.66 1475.88C1194.66 1477.78 1196.2 1479.32 1198.1 1479.32C1200 1479.32 1201.54 1477.78 1201.54 1475.88C1201.54 1473.98 1200 1472.44 1198.1 1472.44ZM1211.87 1472.44C1209.97 1472.44 1208.43 1473.98 1208.43 1475.88C1208.43 1477.78 1209.97 1479.32 1211.87 1479.32C1213.77 1479.32 1215.31 1477.78 1215.31 1475.88C1215.31 1473.98 1213.77 1472.44 1211.87 1472.44ZM1015.76 1472.44C1013.86 1472.44 1012.32 1473.98 1012.32 1475.88C1012.32 1477.78 1013.86 1479.32 1015.76 1479.32C1017.66 1479.32 1019.2 1477.78 1019.2 1475.88C1019.2 1473.98 1017.66 1472.44 1015.76 1472.44ZM1029.52 1472.44C1027.62 1472.44 1026.08 1473.98 1026.08 1475.88C1026.08 1477.78 1027.62 1479.32 1029.52 1479.32C1031.42 1479.32 1032.96 1477.78 1032.96 1475.88C1032.96 1473.98 1031.42 1472.44 1029.52 1472.44ZM1043.28 1472.44C1041.38 1472.44 1039.84 1473.98 1039.84 1475.88C1039.84 1477.78 1041.38 1479.32 1043.28 1479.32C1045.18 1479.32 1046.73 1477.78 1046.73 1475.88C1046.73 1473.98 1045.18 1472.44 1043.28 1472.44ZM1057.05 1472.44C1055.15 1472.44 1053.61 1473.98 1053.61 1475.88C1053.61 1477.78 1055.15 1479.32 1057.05 1479.32C1058.95 1479.32 1060.49 1477.78 1060.49 1475.88C1060.49 1473.98 1058.95 1472.44 1057.05 1472.44ZM1032.96 1541.25C1031.06 1541.25 1029.52 1542.79 1029.52 1544.69C1029.52 1546.59 1031.06 1548.13 1032.96 1548.13C1034.86 1548.13 1036.4 1546.59 1036.4 1544.69C1036.4 1542.79 1034.86 1541.25 1032.96 1541.25Z" fill="#000000" fill-rule="nonzero" opacity="1" stroke="#ffffff" stroke-linecap="round" stroke-linejoin="round" stroke-width="6.88085"/>
<path d="M1018.06 1522.33C1017.11 1523.97 1017.68 1526.08 1019.32 1527.03C1020.97 1527.98 1023.07 1527.41 1024.02 1525.77C1024.97 1524.12 1024.41 1522.02 1022.76 1521.07C1021.12 1520.12 1019.01 1520.68 1018.06 1522.33Z" fill="#000000" fill-rule="nonzero" opacity="1" stroke="#ffffff" stroke-linecap="round" stroke-linejoin="round" stroke-width="6.88085"/>
<path d="M1041.9 1536.09C1040.95 1537.74 1041.51 1539.84 1043.15 1540.79C1044.8 1541.74 1046.9 1541.18 1047.85 1539.53C1048.8 1537.89 1048.24 1535.78 1046.6 1534.83C1044.95 1533.88 1042.85 1534.45 1041.9 1536.09Z" fill="#000000" fill-rule="nonzero" opacity="1" stroke="#ffffff" stroke-linecap="round" stroke-linejoin="round" stroke-width="6.88085"/>
<path d="M1019.32 1534.83C1017.68 1535.78 1017.11 1537.88 1018.06 1539.53C1019.01 1541.17 1021.12 1541.73 1022.76 1540.78C1024.41 1539.83 1024.97 1537.73 1024.02 1536.08C1023.07 1534.44 1020.97 1533.88 1019.32 1534.83Z" fill="#000000" fill-rule="nonzero" opacity="1" stroke="#ffffff" stroke-linecap="round" stroke-linejoin="round" stroke-width="6.88085"/>
<path d="M1043.16 1521.06C1041.51 1522.01 1040.95 1524.12 1041.9 1525.76C1042.85 1527.41 1044.95 1527.97 1046.6 1527.02C1048.25 1526.07 1048.81 1523.97 1047.86 1522.32C1046.91 1520.68 1044.81 1520.11 1043.16 1521.06Z" fill="#000000" fill-rule="nonzero" opacity="1" stroke="#ffffff" stroke-linecap="round" stroke-linejoin="round" stroke-width="6.88085"/>
<path d="M1032.96 1503.41C1017.76 1503.41 1005.44 1515.73 1005.44 1530.93C1005.44 1546.13 1017.76 1558.45 1032.96 1558.45C1048.16 1558.45 1060.49 1546.13 1060.49 1530.93C1060.49 1515.73 1048.16 1503.41 1032.96 1503.41Z" fill="#000000" fill-rule="nonzero" opacity="1" stroke="#ffffff" stroke-linecap="butt" stroke-linejoin="miter" stroke-width="6.88085"/>
<path d="M1081.13 1530.93L1060.49 1489.64L995.119 1489.64C995.119 1489.64 1002 1455.24 1012.32 1455.24C1022.64 1455.24 1067.37 1455.24 1067.37 1455.24L1091.45 1503.41L1143.06 1503.41L1143.06 1472.44L1153.38 1448.36L1206.11 1459.46C1213.84 1461.09 1219.96 1466.99 1221.88 1474.65L1225.63 1489.64L1167.14 1489.64L1153.38 1530.93L1081.13 1530.93Z" fill="#000000" fill-rule="nonzero" opacity="1" stroke="#ffffff" stroke-linecap="round" stroke-linejoin="round" stroke-width="6.88085"/>
<path d="M1067.37 1455.24L1046.73 1413.95L1077.69 1386.43L1136.18 1400.19L1170.58 1451.8M1026.08 1503.41L1026.08 1489.64M1039.84 1503.41L1039.84 1489.64M1194.66 1503.41L1194.66 1489.64M1208.43 1503.41L1208.43 1489.64M1162.1 1510.29L1182.89 1510.29M1156.67 1524.05L1174.64 1524.05M1051.42 1510.29L1070.56 1510.29M1059.82 1524.05L1077.48 1524.05" fill="#000000" fill-rule="nonzero" opacity="1" stroke="#ffffff" stroke-linecap="round" stroke-linejoin="round" stroke-width="6.88085"/>
<path d="M1058.41 1444.41L1058.41 1420.32C1058.41 1416.52 1061.49 1413.44 1065.29 1413.44L1065.29 1413.44C1069.09 1413.44 1072.17 1416.52 1072.17 1420.32L1072.17 1458.17L1096.25 1458.17C1100.06 1458.17 1103.13 1461.25 1103.13 1465.05L1103.13 1465.05C1103.13 1468.85 1100.06 1471.93 1096.25 1471.93L1072.17 1471.93" fill="#000000" fill-rule="nonzero" opacity="1" stroke="#ffffff" stroke-linecap="round" stroke-linejoin="round" stroke-width="6.88085"/>
<path d="M1128.54 1167.73C1126.64 1167.73 1125.1 1169.27 1125.1 1171.17C1125.1 1173.07 1126.64 1174.61 1128.54 1174.61C1130.44 1174.61 1131.98 1173.07 1131.98 1171.17C1131.98 1169.27 1130.44 1167.73 1128.54 1167.73ZM1128.54 1195.25C1126.64 1195.25 1125.1 1196.79 1125.1 1198.69C1125.1 1200.59 1126.64 1202.13 1128.54 1202.13C1130.44 1202.13 1131.98 1200.59 1131.98 1198.69C1131.98 1196.79 1130.44 1195.25 1128.54 1195.25Z" fill="#000000" fill-rule="nonzero" opacity="1" stroke="#ffffff" stroke-linecap="round" stroke-linejoin="round" stroke-width="6.88085"/>
<path d="M1113.64 1176.33C1112.69 1177.98 1113.26 1180.08 1114.9 1181.03C1116.55 1181.98 1118.65 1181.42 1119.6 1179.77C1120.55 1178.13 1119.99 1176.03 1118.34 1175.08C1116.7 1174.13 1114.59 1174.69 1113.64 1176.33Z" fill="#000000" fill-rule="nonzero" opacity="1" stroke="#ffffff" stroke-linecap="round" stroke-linejoin="round" stroke-width="6.88085"/>
<path d="M1137.48 1190.1C1136.53 1191.74 1137.09 1193.85 1138.74 1194.8C1140.38 1195.75 1142.49 1195.18 1143.44 1193.54C1144.39 1191.89 1143.82 1189.79 1142.18 1188.84C1140.53 1187.89 1138.43 1188.45 1137.48 1190.1Z" fill="#000000" fill-rule="nonzero" opacity="1" stroke="#ffffff" stroke-linecap="round" stroke-linejoin="round" stroke-width="6.88085"/>
<path d="M1114.9 1188.82C1113.26 1189.77 1112.69 1191.88 1113.64 1193.52C1114.59 1195.17 1116.7 1195.73 1118.34 1194.78C1119.99 1193.83 1120.55 1191.73 1119.6 1190.08C1118.65 1188.44 1116.55 1187.87 1114.9 1188.82Z" fill="#000000" fill-rule="nonzero" opacity="1" stroke="#ffffff" stroke-linecap="round" stroke-linejoin="round" stroke-width="6.88085"/>
<path d="M1138.73 1175.06C1137.09 1176.01 1136.53 1178.12 1137.48 1179.76C1138.43 1181.41 1140.53 1181.97 1142.18 1181.02C1143.82 1180.07 1144.38 1177.97 1143.43 1176.32C1142.48 1174.68 1140.38 1174.11 1138.73 1175.06Z" fill="#000000" fill-rule="nonzero" opacity="1" stroke="#ffffff" stroke-linecap="round" stroke-linejoin="round" stroke-width="6.88085"/>
<path d="M1128.54 1157.41C1113.34 1157.41 1101.02 1169.73 1101.02 1184.93C1101.02 1200.13 1113.34 1212.45 1128.54 1212.45C1143.75 1212.45 1156.07 1200.13 1156.07 1184.93C1156.07 1169.73 1143.75 1157.41 1128.54 1157.41Z" fill="#000000" fill-rule="nonzero" opacity="1" stroke="#ffffff" stroke-linecap="butt" stroke-linejoin="miter" stroke-width="6.88085"/>
<path d="M959.963 1167.73C958.063 1167.73 956.523 1169.27 956.523 1171.17C956.523 1173.07 958.063 1174.61 959.963 1174.61C961.864 1174.61 963.404 1173.07 963.404 1171.17C963.404 1169.27 961.864 1167.73 959.963 1167.73ZM1097.58 1126.44C1095.68 1126.44 1094.14 1127.98 1094.14 1129.88C1094.14 1131.78 1095.68 1133.32 1097.58 1133.32C1099.48 1133.32 1101.02 1131.78 1101.02 1129.88C1101.02 1127.98 1099.48 1126.44 1097.58 1126.44ZM1111.34 1126.44C1109.44 1126.44 1107.9 1127.98 1107.9 1129.88C1107.9 1131.78 1109.44 1133.32 1111.34 1133.32C1113.24 1133.32 1114.78 1131.78 1114.78 1129.88C1114.78 1127.98 1113.24 1126.44 1111.34 1126.44ZM1125.1 1126.44C1123.2 1126.44 1121.66 1127.98 1121.66 1129.88C1121.66 1131.78 1123.2 1133.32 1125.1 1133.32C1127 1133.32 1128.54 1131.78 1128.54 1129.88C1128.54 1127.98 1127 1126.44 1125.1 1126.44ZM1138.87 1126.44C1136.97 1126.44 1135.43 1127.98 1135.43 1129.88C1135.43 1131.78 1136.97 1133.32 1138.87 1133.32C1140.77 1133.32 1142.31 1131.78 1142.31 1129.88C1142.31 1127.98 1140.77 1126.44 1138.87 1126.44ZM942.761 1126.44C940.861 1126.44 939.321 1127.98 939.321 1129.88C939.321 1131.78 940.861 1133.32 942.761 1133.32C944.661 1133.32 946.202 1131.78 946.202 1129.88C946.202 1127.98 944.661 1126.44 942.761 1126.44ZM956.523 1126.44C954.623 1126.44 953.083 1127.98 953.083 1129.88C953.083 1131.78 954.623 1133.32 956.523 1133.32C958.423 1133.32 959.963 1131.78 959.963 1129.88C959.963 1127.98 958.423 1126.44 956.523 1126.44ZM970.285 1126.44C968.385 1126.44 966.844 1127.98 966.844 1129.88C966.844 1131.78 968.385 1133.32 970.285 1133.32C972.185 1133.32 973.725 1131.78 973.725 1129.88C973.725 1127.98 972.185 1126.44 970.285 1126.44ZM984.046 1126.44C982.146 1126.44 980.606 1127.98 980.606 1129.88C980.606 1131.78 982.146 1133.32 984.046 1133.32C985.947 1133.32 987.487 1131.78 987.487 1129.88C987.487 1127.98 985.947 1126.44 984.046 1126.44ZM959.963 1195.25C958.063 1195.25 956.523 1196.79 956.523 1198.69C956.523 1200.59 958.063 1202.13 959.963 1202.13C961.864 1202.13 963.404 1200.59 963.404 1198.69C963.404 1196.79 961.864 1195.25 959.963 1195.25Z" fill="#000000" fill-rule="nonzero" opacity="1" stroke="#ffffff" stroke-linecap="round" stroke-linejoin="round" stroke-width="6.88085"/>
<path d="M945.062 1176.33C944.112 1177.97 944.675 1180.08 946.321 1181.03C947.966 1181.98 950.071 1181.41 951.021 1179.77C951.971 1178.12 951.407 1176.02 949.761 1175.07C948.116 1174.12 946.012 1174.68 945.062 1176.33Z" fill="#000000" fill-rule="nonzero" opacity="1" stroke="#ffffff" stroke-linecap="round" stroke-linejoin="round" stroke-width="6.88085"/>
<path d="M968.896 1190.09C967.946 1191.74 968.509 1193.84 970.155 1194.79C971.8 1195.74 973.905 1195.18 974.855 1193.53C975.805 1191.89 975.241 1189.78 973.595 1188.83C971.95 1187.88 969.846 1188.45 968.896 1190.09Z" fill="#000000" fill-rule="nonzero" opacity="1" stroke="#ffffff" stroke-linecap="round" stroke-linejoin="round" stroke-width="6.88085"/>
<path d="M946.324 1188.83C944.679 1189.78 944.115 1191.88 945.065 1193.53C946.015 1195.17 948.119 1195.73 949.765 1194.78C951.41 1193.83 951.974 1191.73 951.024 1190.08C950.074 1188.44 947.97 1187.88 946.324 1188.83Z" fill="#000000" fill-rule="nonzero" opacity="1" stroke="#ffffff" stroke-linecap="round" stroke-linejoin="round" stroke-width="6.88085"/>
<path d="M970.159 1175.06C968.514 1176.01 967.95 1178.12 968.9 1179.76C969.85 1181.41 971.954 1181.97 973.6 1181.02C975.245 1180.07 975.809 1177.97 974.859 1176.32C973.909 1174.68 971.805 1174.11 970.159 1175.06Z" fill="#000000" fill-rule="nonzero" opacity="1" stroke="#ffffff" stroke-linecap="round" stroke-linejoin="round" stroke-width="6.88085"/>
<path d="M959.963 1157.41C944.763 1157.41 932.44 1169.73 932.44 1184.93C932.44 1200.13 944.763 1212.45 959.963 1212.45C975.164 1212.45 987.487 1200.13 987.487 1184.93C987.487 1169.73 975.164 1157.41 959.963 1157.41Z" fill="#000000" fill-rule="nonzero" opacity="1" stroke="#ffffff" stroke-linecap="butt" stroke-linejoin="miter" stroke-width="6.88085"/>
<path d="M1008.13 1184.93L987.487 1143.64L922.119 1143.64C922.119 1143.64 929 1109.24 939.321 1109.24C949.642 1109.24 994.368 1109.24 994.368 1109.24L1018.45 1157.41L1070.06 1157.41L1070.06 1126.44L1080.38 1102.36L1133.11 1113.46C1140.84 1115.09 1146.96 1120.99 1148.88 1128.65L1152.63 1143.64L1094.14 1143.64L1080.38 1184.93L1008.13 1184.93Z" fill="#000000" fill-rule="nonzero" opacity="1" stroke="#ffffff" stroke-linecap="round" stroke-linejoin="round" stroke-width="6.88085"/>
<path d="M994.368 1109.24L973.725 1067.95L1004.69 1040.43L1063.18 1054.19L1097.58 1105.8M953.083 1157.41L953.083 1143.64M966.844 1157.41L966.844 1143.64M1121.66 1157.41L1121.66 1143.64M1135.43 1157.41L1135.43 1143.64M1089.1 1164.29L1109.89 1164.29M1083.67 1178.05L1101.64 1178.05M978.421 1164.29L997.557 1164.29M986.819 1178.05L1004.48 1178.05" fill="#000000" fill-rule="nonzero" opacity="1" stroke="#ffffff" stroke-linecap="round" stroke-linejoin="round" stroke-width="6.88085"/>
<path d="M985.409 1098.41L985.409 1074.32C985.409 1070.52 988.488 1067.44 992.29 1067.44L992.29 1067.44C996.091 1067.44 999.17 1070.52 999.17 1074.32L999.17 1112.17L1023.25 1112.17C1027.06 1112.17 1030.13 1115.25 1030.13 1119.05L1030.13 1119.05C1030.13 1122.85 1027.06 1125.93 1023.25 1125.93L999.17 1125.93" fill="#000000" fill-rule="nonzero" opacity="1" stroke="#ffffff" stroke-linecap="round" stroke-linejoin="round" stroke-width="6.88085"/>
<path d="M1128.54 1167.73C1126.64 1167.73 1125.1 1169.27 1125.1 1171.17C1125.1 1173.07 1126.64 1174.61 1128.54 1174.61C1130.44 1174.61 1131.98 1173.07 1131.98 1171.17C1131.98 1169.27 1130.44 1167.73 1128.54 1167.73ZM1128.54 1195.25C1126.64 1195.25 1125.1 1196.79 1125.1 1198.69C1125.1 1200.59 1126.64 1202.13 1128.54 1202.13C1130.44 1202.13 1131.98 1200.59 1131.98 1198.69C1131.98 1196.79 1130.44 1195.25 1128.54 1195.25Z" fill="#000000" fill-rule="nonzero" opacity="1" stroke="#ffffff" stroke-linecap="round" stroke-linejoin="round" stroke-width="6.88085"/>
<path d="M1113.64 1176.33C1112.69 1177.98 1113.26 1180.08 1114.9 1181.03C1116.55 1181.98 1118.65 1181.42 1119.6 1179.77C1120.55 1178.13 1119.99 1176.03 1118.34 1175.08C1116.7 1174.13 1114.59 1174.69 1113.64 1176.33Z" fill="#000000" fill-rule="nonzero" opacity="1" stroke="#ffffff" stroke-linecap="round" stroke-linejoin="round" stroke-width="6.88085"/>
<path d="M1137.48 1190.1C1136.53 1191.74 1137.09 1193.85 1138.74 1194.8C1140.38 1195.75 1142.49 1195.18 1143.44 1193.54C1144.39 1191.89 1143.82 1189.79 1142.18 1188.84C1140.53 1187.89 1138.43 1188.45 1137.48 1190.1Z" fill="#000000" fill-rule="nonzero" opacity="1" stroke="#ffffff" stroke-linecap="round" stroke-linejoin="round" stroke-width="6.88085"/>
<path d="M1114.9 1188.82C1113.26 1189.77 1112.69 1191.88 1113.64 1193.52C1114.59 1195.17 1116.7 1195.73 1118.34 1194.78C1119.99 1193.83 1120.55 1191.73 1119.6 1190.08C1118.65 1188.44 1116.55 1187.87 1114.9 1188.82Z" fill="#000000" fill-rule="nonzero" opacity="1" stroke="#ffffff" stroke-linecap="round" stroke-linejoin="round" stroke-width="6.88085"/>
<path d="M1138.73 1175.06C1137.09 1176.01 1136.53 1178.12 1137.48 1179.76C1138.43 1181.41 1140.53 1181.97 1142.18 1181.02C1143.82 1180.07 1144.38 1177.97 1143.43 1176.32C1142.48 1174.68 1140.38 1174.11 1138.73 1175.06Z" fill="#000000" fill-rule="nonzero" opacity="1" stroke="#ffffff" stroke-linecap="round" stroke-linejoin="round" stroke-width="6.88085"/>
<path d="M1128.54 1157.41C1113.34 1157.41 1101.02 1169.73 1101.02 1184.93C1101.02 1200.13 1113.34 1212.45 1128.54 1212.45C1143.75 1212.45 1156.07 1200.13 1156.07 1184.93C1156.07 1169.73 1143.75 1157.41 1128.54 1157.41Z" fill="#000000" fill-rule="nonzero" opacity="1" stroke="#ffffff" stroke-linecap="butt" stroke-linejoin="miter" stroke-width="6.88085"/>
<path d="M959.963 1167.73C958.063 1167.73 956.523 1169.27 956.523 1171.17C956.523 1173.07 958.063 1174.61 959.963 1174.61C961.864 1174.61 963.404 1173.07 963.404 1171.17C963.404 1169.27 961.864 1167.73 959.963 1167.73ZM1097.58 1126.44C1095.68 1126.44 1094.14 1127.98 1094.14 1129.88C1094.14 1131.78 1095.68 1133.32 1097.58 1133.32C1099.48 1133.32 1101.02 1131.78 1101.02 1129.88C1101.02 1127.98 1099.48 1126.44 1097.58 1126.44ZM1111.34 1126.44C1109.44 1126.44 1107.9 1127.98 1107.9 1129.88C1107.9 1131.78 1109.44 1133.32 1111.34 1133.32C1113.24 1133.32 1114.78 1131.78 1114.78 1129.88C1114.78 1127.98 1113.24 1126.44 1111.34 1126.44ZM1125.1 1126.44C1123.2 1126.44 1121.66 1127.98 1121.66 1129.88C1121.66 1131.78 1123.2 1133.32 1125.1 1133.32C1127 1133.32 1128.54 1131.78 1128.54 1129.88C1128.54 1127.98 1127 1126.44 1125.1 1126.44ZM1138.87 1126.44C1136.97 1126.44 1135.43 1127.98 1135.43 1129.88C1135.43 1131.78 1136.97 1133.32 1138.87 1133.32C1140.77 1133.32 1142.31 1131.78 1142.31 1129.88C1142.31 1127.98 1140.77 1126.44 1138.87 1126.44ZM942.761 1126.44C940.861 1126.44 939.321 1127.98 939.321 1129.88C939.321 1131.78 940.861 1133.32 942.761 1133.32C944.661 1133.32 946.202 1131.78 946.202 1129.88C946.202 1127.98 944.661 1126.44 942.761 1126.44ZM956.523 1126.44C954.623 1126.44 953.083 1127.98 953.083 1129.88C953.083 1131.78 954.623 1133.32 956.523 1133.32C958.423 1133.32 959.963 1131.78 959.963 1129.88C959.963 1127.98 958.423 1126.44 956.523 1126.44ZM970.285 1126.44C968.385 1126.44 966.844 1127.98 966.844 1129.88C966.844 1131.78 968.385 1133.32 970.285 1133.32C972.185 1133.32 973.725 1131.78 973.725 1129.88C973.725 1127.98 972.185 1126.44 970.285 1126.44ZM984.046 1126.44C982.146 1126.44 980.606 1127.98 980.606 1129.88C980.606 1131.78 982.146 1133.32 984.046 1133.32C985.947 1133.32 987.487 1131.78 987.487 1129.88C987.487 1127.98 985.947 1126.44 984.046 1126.44ZM959.963 1195.25C958.063 1195.25 956.523 1196.79 956.523 1198.69C956.523 1200.59 958.063 1202.13 959.963 1202.13C961.864 1202.13 963.404 1200.59 963.404 1198.69C963.404 1196.79 961.864 1195.25 959.963 1195.25Z" fill="#000000" fill-rule="nonzero" opacity="1" stroke="#ffffff" stroke-linecap="round" stroke-linejoin="round" stroke-width="6.88085"/>
<path d="M945.062 1176.33C944.112 1177.97 944.675 1180.08 946.321 1181.03C947.966 1181.98 950.071 1181.41 951.021 1179.77C951.971 1178.12 951.407 1176.02 949.761 1175.07C948.116 1174.12 946.012 1174.68 945.062 1176.33Z" fill="#000000" fill-rule="nonzero" opacity="1" stroke="#ffffff" stroke-linecap="round" stroke-linejoin="round" stroke-width="6.88085"/>
<path d="M968.896 1190.09C967.946 1191.74 968.509 1193.84 970.155 1194.79C971.8 1195.74 973.905 1195.18 974.855 1193.53C975.805 1191.89 975.241 1189.78 973.595 1188.83C971.95 1187.88 969.846 1188.45 968.896 1190.09Z" fill="#000000" fill-rule="nonzero" opacity="1" stroke="#ffffff" stroke-linecap="round" stroke-linejoin="round" stroke-width="6.88085"/>
<path d="M946.324 1188.83C944.679 1189.78 944.115 1191.88 945.065 1193.53C946.015 1195.17 948.119 1195.73 949.765 1194.78C951.41 1193.83 951.974 1191.73 951.024 1190.08C950.074 1188.44 947.97 1187.88 946.324 1188.83Z" fill="#000000" fill-rule="nonzero" opacity="1" stroke="#ffffff" stroke-linecap="round" stroke-linejoin="round" stroke-width="6.88085"/>
<path d="M970.159 1175.06C968.514 1176.01 967.95 1178.12 968.9 1179.76C969.85 1181.41 971.954 1181.97 973.6 1181.02C975.245 1180.07 975.809 1177.97 974.859 1176.32C973.909 1174.68 971.805 1174.11 970.159 1175.06Z" fill="#000000" fill-rule="nonzero" opacity="1" stroke="#ffffff" stroke-linecap="round" stroke-linejoin="round" stroke-width="6.88085"/>
<path d="M959.963 1157.41C944.763 1157.41 932.44 1169.73 932.44 1184.93C932.44 1200.13 944.763 1212.45 959.963 1212.45C975.164 1212.45 987.487 1200.13 987.487 1184.93C987.487 1169.73 975.164 1157.41 959.963 1157.41Z" fill="#000000" fill-rule="nonzero" opacity="1" stroke="#ffffff" stroke-linecap="butt" stroke-linejoin="miter" stroke-width="6.88085"/>
<path d="M1008.13 1184.93L987.487 1143.64L922.119 1143.64C922.119 1143.64 929 1109.24 939.321 1109.24C949.642 1109.24 994.368 1109.24 994.368 1109.24L1018.45 1157.41L1070.06 1157.41L1070.06 1126.44L1080.38 1102.36L1133.11 1113.46C1140.84 1115.09 1146.96 1120.99 1148.88 1128.65L1152.63 1143.64L1094.14 1143.64L1080.38 1184.93L1008.13 1184.93Z" fill="#000000" fill-rule="nonzero" opacity="1" stroke="#ffffff" stroke-linecap="round" stroke-linejoin="round" stroke-width="6.88085"/>
<path d="M994.368 1109.24L973.725 1067.95L1004.69 1040.43L1063.18 1054.19L1097.58 1105.8M953.083 1157.41L953.083 1143.64M966.844 1157.41L966.844 1143.64M1121.66 1157.41L1121.66 1143.64M1135.43 1157.41L1135.43 1143.64M1089.1 1164.29L1109.89 1164.29M1083.67 1178.05L1101.64 1178.05M978.421 1164.29L997.557 1164.29M986.819 1178.05L1004.48 1178.05" fill="#000000" fill-rule="nonzero" opacity="1" stroke="#ffffff" stroke-linecap="round" stroke-linejoin="round" stroke-width="6.88085"/>
<path d="M985.409 1098.41L985.409 1074.32C985.409 1070.52 988.488 1067.44 992.29 1067.44L992.29 1067.44C996.091 1067.44 999.17 1070.52 999.17 1074.32L999.17 1112.17L1023.25 1112.17C1027.06 1112.17 1030.13 1115.25 1030.13 1119.05L1030.13 1119.05C1030.13 1122.85 1027.06 1125.93 1023.25 1125.93L999.17 1125.93" fill="#000000" fill-rule="nonzero" opacity="1" stroke="#ffffff" stroke-linecap="round" stroke-linejoin="round" stroke-width="6.88085"/>
<path d="M1128.54 1167.73C1126.64 1167.73 1125.1 1169.27 1125.1 1171.17C1125.1 1173.07 1126.64 1174.61 1128.54 1174.61C1130.44 1174.61 1131.98 1173.07 1131.98 1171.17C1131.98 1169.27 1130.44 1167.73 1128.54 1167.73ZM1128.54 1195.25C1126.64 1195.25 1125.1 1196.79 1125.1 1198.69C1125.1 1200.59 1126.64 1202.13 1128.54 1202.13C1130.44 1202.13 1131.98 1200.59 1131.98 1198.69C1131.98 1196.79 1130.44 1195.25 1128.54 1195.25Z" fill="#000000" fill-rule="nonzero" opacity="1" stroke="#ffffff" stroke-linecap="round" stroke-linejoin="round" stroke-width="6.88085"/>
<path d="M1113.64 1176.33C1112.69 1177.98 1113.26 1180.08 1114.9 1181.03C1116.55 1181.98 1118.65 1181.42 1119.6 1179.77C1120.55 1178.13 1119.99 1176.03 1118.34 1175.08C1116.7 1174.13 1114.59 1174.69 1113.64 1176.33Z" fill="#000000" fill-rule="nonzero" opacity="1" stroke="#ffffff" stroke-linecap="round" stroke-linejoin="round" stroke-width="6.88085"/>
<path d="M1137.48 1190.1C1136.53 1191.74 1137.09 1193.85 1138.74 1194.8C1140.38 1195.75 1142.49 1195.18 1143.44 1193.54C1144.39 1191.89 1143.82 1189.79 1142.18 1188.84C1140.53 1187.89 1138.43 1188.45 1137.48 1190.1Z" fill="#000000" fill-rule="nonzero" opacity="1" stroke="#ffffff" stroke-linecap="round" stroke-linejoin="round" stroke-width="6.88085"/>
<path d="M1114.9 1188.82C1113.26 1189.77 1112.69 1191.88 1113.64 1193.52C1114.59 1195.17 1116.7 1195.73 1118.34 1194.78C1119.99 1193.83 1120.55 1191.73 1119.6 1190.08C1118.65 1188.44 1116.55 1187.87 1114.9 1188.82Z" fill="#000000" fill-rule="nonzero" opacity="1" stroke="#ffffff" stroke-linecap="round" stroke-linejoin="round" stroke-width="6.88085"/>
<path d="M1138.73 1175.06C1137.09 1176.01 1136.53 1178.12 1137.48 1179.76C1138.43 1181.41 1140.53 1181.97 1142.18 1181.02C1143.82 1180.07 1144.38 1177.97 1143.43 1176.32C1142.48 1174.68 1140.38 1174.11 1138.73 1175.06Z" fill="#000000" fill-rule="nonzero" opacity="1" stroke="#ffffff" stroke-linecap="round" stroke-linejoin="round" stroke-width="6.88085"/>
<path d="M1128.54 1157.41C1113.34 1157.41 1101.02 1169.73 1101.02 1184.93C1101.02 1200.13 1113.34 1212.45 1128.54 1212.45C1143.75 1212.45 1156.07 1200.13 1156.07 1184.93C1156.07 1169.73 1143.75 1157.41 1128.54 1157.41Z" fill="#000000" fill-rule="nonzero" opacity="1" stroke="#ffffff" stroke-linecap="butt" stroke-linejoin="miter" stroke-width="6.88085"/>
<path d="M959.963 1167.73C958.063 1167.73 956.523 1169.27 956.523 1171.17C956.523 1173.07 958.063 1174.61 959.963 1174.61C961.864 1174.61 963.404 1173.07 963.404 1171.17C963.404 1169.27 961.864 1167.73 959.963 1167.73ZM1097.58 1126.44C1095.68 1126.44 1094.14 1127.98 1094.14 1129.88C1094.14 1131.78 1095.68 1133.32 1097.58 1133.32C1099.48 1133.32 1101.02 1131.78 1101.02 1129.88C1101.02 1127.98 1099.48 1126.44 1097.58 1126.44ZM1111.34 1126.44C1109.44 1126.44 1107.9 1127.98 1107.9 1129.88C1107.9 1131.78 1109.44 1133.32 1111.34 1133.32C1113.24 1133.32 1114.78 1131.78 1114.78 1129.88C1114.78 1127.98 1113.24 1126.44 1111.34 1126.44ZM1125.1 1126.44C1123.2 1126.44 1121.66 1127.98 1121.66 1129.88C1121.66 1131.78 1123.2 1133.32 1125.1 1133.32C1127 1133.32 1128.54 1131.78 1128.54 1129.88C1128.54 1127.98 1127 1126.44 1125.1 1126.44ZM1138.87 1126.44C1136.97 1126.44 1135.43 1127.98 1135.43 1129.88C1135.43 1131.78 1136.97 1133.32 1138.87 1133.32C1140.77 1133.32 1142.31 1131.78 1142.31 1129.88C1142.31 1127.98 1140.77 1126.44 1138.87 1126.44ZM942.761 1126.44C940.861 1126.44 939.321 1127.98 939.321 1129.88C939.321 1131.78 940.861 1133.32 942.761 1133.32C944.661 1133.32 946.202 1131.78 946.202 1129.88C946.202 1127.98 944.661 1126.44 942.761 1126.44ZM956.523 1126.44C954.623 1126.44 953.083 1127.98 953.083 1129.88C953.083 1131.78 954.623 1133.32 956.523 1133.32C958.423 1133.32 959.963 1131.78 959.963 1129.88C959.963 1127.98 958.423 1126.44 956.523 1126.44ZM970.285 1126.44C968.385 1126.44 966.844 1127.98 966.844 1129.88C966.844 1131.78 968.385 1133.32 970.285 1133.32C972.185 1133.32 973.725 1131.78 973.725 1129.88C973.725 1127.98 972.185 1126.44 970.285 1126.44ZM984.046 1126.44C982.146 1126.44 980.606 1127.98 980.606 1129.88C980.606 1131.78 982.146 1133.32 984.046 1133.32C985.947 1133.32 987.487 1131.78 987.487 1129.88C987.487 1127.98 985.947 1126.44 984.046 1126.44ZM959.963 1195.25C958.063 1195.25 956.523 1196.79 956.523 1198.69C956.523 1200.59 958.063 1202.13 959.963 1202.13C961.864 1202.13 963.404 1200.59 963.404 1198.69C963.404 1196.79 961.864 1195.25 959.963 1195.25Z" fill="#000000" fill-rule="nonzero" opacity="1" stroke="#ffffff" stroke-linecap="round" stroke-linejoin="round" stroke-width="6.88085"/>
<path d="M945.062 1176.33C944.112 1177.97 944.675 1180.08 946.321 1181.03C947.966 1181.98 950.071 1181.41 951.021 1179.77C951.971 1178.12 951.407 1176.02 949.761 1175.07C948.116 1174.12 946.012 1174.68 945.062 1176.33Z" fill="#000000" fill-rule="nonzero" opacity="1" stroke="#ffffff" stroke-linecap="round" stroke-linejoin="round" stroke-width="6.88085"/>
<path d="M968.896 1190.09C967.946 1191.74 968.509 1193.84 970.155 1194.79C971.8 1195.74 973.905 1195.18 974.855 1193.53C975.805 1191.89 975.241 1189.78 973.595 1188.83C971.95 1187.88 969.846 1188.45 968.896 1190.09Z" fill="#000000" fill-rule="nonzero" opacity="1" stroke="#ffffff" stroke-linecap="round" stroke-linejoin="round" stroke-width="6.88085"/>
<path d="M946.324 1188.83C944.679 1189.78 944.115 1191.88 945.065 1193.53C946.015 1195.17 948.119 1195.73 949.765 1194.78C951.41 1193.83 951.974 1191.73 951.024 1190.08C950.074 1188.44 947.97 1187.88 946.324 1188.83Z" fill="#000000" fill-rule="nonzero" opacity="1" stroke="#ffffff" stroke-linecap="round" stroke-linejoin="round" stroke-width="6.88085"/>
<path d="M970.159 1175.06C968.514 1176.01 967.95 1178.12 968.9 1179.76C969.85 1181.41 971.954 1181.97 973.6 1181.02C975.245 1180.07 975.809 1177.97 974.859 1176.32C973.909 1174.68 971.805 1174.11 970.159 1175.06Z" fill="#000000" fill-rule="nonzero" opacity="1" stroke="#ffffff" stroke-linecap="round" stroke-linejoin="round" stroke-width="6.88085"/>
<path d="M959.963 1157.41C944.763 1157.41 932.44 1169.73 932.44 1184.93C932.44 1200.13 944.763 1212.45 959.963 1212.45C975.164 1212.45 987.487 1200.13 987.487 1184.93C987.487 1169.73 975.164 1157.41 959.963 1157.41Z" fill="#000000" fill-rule="nonzero" opacity="1" stroke="#ffffff" stroke-linecap="butt" stroke-linejoin="miter" stroke-width="6.88085"/>
<path d="M1008.13 1184.93L987.487 1143.64L922.119 1143.64C922.119 1143.64 929 1109.24 939.321 1109.24C949.642 1109.24 994.368 1109.24 994.368 1109.24L1018.45 1157.41L1070.06 1157.41L1070.06 1126.44L1080.38 1102.36L1133.11 1113.46C1140.84 1115.09 1146.96 1120.99 1148.88 1128.65L1152.63 1143.64L1094.14 1143.64L1080.38 1184.93L1008.13 1184.93Z" fill="#000000" fill-rule="nonzero" opacity="1" stroke="#ffffff" stroke-linecap="round" stroke-linejoin="round" stroke-width="6.88085"/>
<path d="M994.368 1109.24L973.725 1067.95L1004.69 1040.43L1063.18 1054.19L1097.58 1105.8M953.083 1157.41L953.083 1143.64M966.844 1157.41L966.844 1143.64M1121.66 1157.41L1121.66 1143.64M1135.43 1157.41L1135.43 1143.64M1089.1 1164.29L1109.89 1164.29M1083.67 1178.05L1101.64 1178.05M978.421 1164.29L997.557 1164.29M986.819 1178.05L1004.48 1178.05" fill="#000000" fill-rule="nonzero" opacity="1" stroke="#ffffff" stroke-linecap="round" stroke-linejoin="round" stroke-width="6.88085"/>
<path d="M985.409 1098.41L985.409 1074.32C985.409 1070.52 988.488 1067.44 992.29 1067.44L992.29 1067.44C996.091 1067.44 999.17 1070.52 999.17 1074.32L999.17 1112.17L1023.25 1112.17C1027.06 1112.17 1030.13 1115.25 1030.13 1119.05L1030.13 1119.05C1030.13 1122.85 1027.06 1125.93 1023.25 1125.93L999.17 1125.93" fill="#000000" fill-rule="nonzero" opacity="1" stroke="#ffffff" stroke-linecap="round" stroke-linejoin="round" stroke-width="6.88085"/>
<path d="M1128.54 1167.73C1126.64 1167.73 1125.1 1169.27 1125.1 1171.17C1125.1 1173.07 1126.64 1174.61 1128.54 1174.61C1130.44 1174.61 1131.98 1173.07 1131.98 1171.17C1131.98 1169.27 1130.44 1167.73 1128.54 1167.73ZM1128.54 1195.25C1126.64 1195.25 1125.1 1196.79 1125.1 1198.69C1125.1 1200.59 1126.64 1202.13 1128.54 1202.13C1130.44 1202.13 1131.98 1200.59 1131.98 1198.69C1131.98 1196.79 1130.44 1195.25 1128.54 1195.25Z" fill="#000000" fill-rule="nonzero" opacity="1" stroke="#ffffff" stroke-linecap="round" stroke-linejoin="round" stroke-width="6.88085"/>
<path d="M1113.64 1176.33C1112.69 1177.98 1113.26 1180.08 1114.9 1181.03C1116.55 1181.98 1118.65 1181.42 1119.6 1179.77C1120.55 1178.13 1119.99 1176.03 1118.34 1175.08C1116.7 1174.13 1114.59 1174.69 1113.64 1176.33Z" fill="#000000" fill-rule="nonzero" opacity="1" stroke="#ffffff" stroke-linecap="round" stroke-linejoin="round" stroke-width="6.88085"/>
<path d="M1137.48 1190.1C1136.53 1191.74 1137.09 1193.85 1138.74 1194.8C1140.38 1195.75 1142.49 1195.18 1143.44 1193.54C1144.39 1191.89 1143.82 1189.79 1142.18 1188.84C1140.53 1187.89 1138.43 1188.45 1137.48 1190.1Z" fill="#000000" fill-rule="nonzero" opacity="1" stroke="#ffffff" stroke-linecap="round" stroke-linejoin="round" stroke-width="6.88085"/>
<path d="M1114.9 1188.82C1113.26 1189.77 1112.69 1191.88 1113.64 1193.52C1114.59 1195.17 1116.7 1195.73 1118.34 1194.78C1119.99 1193.83 1120.55 1191.73 1119.6 1190.08C1118.65 1188.44 1116.55 1187.87 1114.9 1188.82Z" fill="#000000" fill-rule="nonzero" opacity="1" stroke="#ffffff" stroke-linecap="round" stroke-linejoin="round" stroke-width="6.88085"/>
<path d="M1138.73 1175.06C1137.09 1176.01 1136.53 1178.12 1137.48 1179.76C1138.43 1181.41 1140.53 1181.97 1142.18 1181.02C1143.82 1180.07 1144.38 1177.97 1143.43 1176.32C1142.48 1174.68 1140.38 1174.11 1138.73 1175.06Z" fill="#000000" fill-rule="nonzero" opacity="1" stroke="#ffffff" stroke-linecap="round" stroke-linejoin="round" stroke-width="6.88085"/>
<path d="M1128.54 1157.41C1113.34 1157.41 1101.02 1169.73 1101.02 1184.93C1101.02 1200.13 1113.34 1212.45 1128.54 1212.45C1143.75 1212.45 1156.07 1200.13 1156.07 1184.93C1156.07 1169.73 1143.75 1157.41 1128.54 1157.41Z" fill="#000000" fill-rule="nonzero" opacity="1" stroke="#ffffff" stroke-linecap="butt" stroke-linejoin="miter" stroke-width="6.88085"/>
<path d="M959.963 1167.73C958.063 1167.73 956.523 1169.27 956.523 1171.17C956.523 1173.07 958.063 1174.61 959.963 1174.61C961.864 1174.61 963.404 1173.07 963.404 1171.17C963.404 1169.27 961.864 1167.73 959.963 1167.73ZM1097.58 1126.44C1095.68 1126.44 1094.14 1127.98 1094.14 1129.88C1094.14 1131.78 1095.68 1133.32 1097.58 1133.32C1099.48 1133.32 1101.02 1131.78 1101.02 1129.88C1101.02 1127.98 1099.48 1126.44 1097.58 1126.44ZM1111.34 1126.44C1109.44 1126.44 1107.9 1127.98 1107.9 1129.88C1107.9 1131.78 1109.44 1133.32 1111.34 1133.32C1113.24 1133.32 1114.78 1131.78 1114.78 1129.88C1114.78 1127.98 1113.24 1126.44 1111.34 1126.44ZM1125.1 1126.44C1123.2 1126.44 1121.66 1127.98 1121.66 1129.88C1121.66 1131.78 1123.2 1133.32 1125.1 1133.32C1127 1133.32 1128.54 1131.78 1128.54 1129.88C1128.54 1127.98 1127 1126.44 1125.1 1126.44ZM1138.87 1126.44C1136.97 1126.44 1135.43 1127.98 1135.43 1129.88C1135.43 1131.78 1136.97 1133.32 1138.87 1133.32C1140.77 1133.32 1142.31 1131.78 1142.31 1129.88C1142.31 1127.98 1140.77 1126.44 1138.87 1126.44ZM942.761 1126.44C940.861 1126.44 939.321 1127.98 939.321 1129.88C939.321 1131.78 940.861 1133.32 942.761 1133.32C944.661 1133.32 946.202 1131.78 946.202 1129.88C946.202 1127.98 944.661 1126.44 942.761 1126.44ZM956.523 1126.44C954.623 1126.44 953.083 1127.98 953.083 1129.88C953.083 1131.78 954.623 1133.32 956.523 1133.32C958.423 1133.32 959.963 1131.78 959.963 1129.88C959.963 1127.98 958.423 1126.44 956.523 1126.44ZM970.285 1126.44C968.385 1126.44 966.844 1127.98 966.844 1129.88C966.844 1131.78 968.385 1133.32 970.285 1133.32C972.185 1133.32 973.725 1131.78 973.725 1129.88C973.725 1127.98 972.185 1126.44 970.285 1126.44ZM984.046 1126.44C982.146 1126.44 980.606 1127.98 980.606 1129.88C980.606 1131.78 982.146 1133.32 984.046 1133.32C985.947 1133.32 987.487 1131.78 987.487 1129.88C987.487 1127.98 985.947 1126.44 984.046 1126.44ZM959.963 1195.25C958.063 1195.25 956.523 1196.79 956.523 1198.69C956.523 1200.59 958.063 1202.13 959.963 1202.13C961.864 1202.13 963.404 1200.59 963.404 1198.69C963.404 1196.79 961.864 1195.25 959.963 1195.25Z" fill="#000000" fill-rule="nonzero" opacity="1" stroke="#ffffff" stroke-linecap="round" stroke-linejoin="round" stroke-width="6.88085"/>
<path d="M945.062 1176.33C944.112 1177.97 944.675 1180.08 946.321 1181.03C947.966 1181.98 950.071 1181.41 951.021 1179.77C951.971 1178.12 951.407 1176.02 949.761 1175.07C948.116 1174.12 946.012 1174.68 945.062 1176.33Z" fill="#000000" fill-rule="nonzero" opacity="1" stroke="#ffffff" stroke-linecap="round" stroke-linejoin="round" stroke-width="6.88085"/>
<path d="M968.896 1190.09C967.946 1191.74 968.509 1193.84 970.155 1194.79C971.8 1195.74 973.905 1195.18 974.855 1193.53C975.805 1191.89 975.241 1189.78 973.595 1188.83C971.95 1187.88 969.846 1188.45 968.896 1190.09Z" fill="#000000" fill-rule="nonzero" opacity="1" stroke="#ffffff" stroke-linecap="round" stroke-linejoin="round" stroke-width="6.88085"/>
<path d="M946.324 1188.83C944.679 1189.78 944.115 1191.88 945.065 1193.53C946.015 1195.17 948.119 1195.73 949.765 1194.78C951.41 1193.83 951.974 1191.73 951.024 1190.08C950.074 1188.44 947.97 1187.88 946.324 1188.83Z" fill="#000000" fill-rule="nonzero" opacity="1" stroke="#ffffff" stroke-linecap="round" stroke-linejoin="round" stroke-width="6.88085"/>
<path d="M970.159 1175.06C968.514 1176.01 967.95 1178.12 968.9 1179.76C969.85 1181.41 971.954 1181.97 973.6 1181.02C975.245 1180.07 975.809 1177.97 974.859 1176.32C973.909 1174.68 971.805 1174.11 970.159 1175.06Z" fill="#000000" fill-rule="nonzero" opacity="1" stroke="#ffffff" stroke-linecap="round" stroke-linejoin="round" stroke-width="6.88085"/>
<path d="M959.963 1157.41C944.763 1157.41 932.44 1169.73 932.44 1184.93C932.44 1200.13 944.763 1212.45 959.963 1212.45C975.164 1212.45 987.487 1200.13 987.487 1184.93C987.487 1169.73 975.164 1157.41 959.963 1157.41Z" fill="#000000" fill-rule="nonzero" opacity="1" stroke="#ffffff" stroke-linecap="butt" stroke-linejoin="miter" stroke-width="6.88085"/>
<path d="M1008.13 1184.93L987.487 1143.64L922.119 1143.64C922.119 1143.64 929 1109.24 939.321 1109.24C949.642 1109.24 994.368 1109.24 994.368 1109.24L1018.45 1157.41L1070.06 1157.41L1070.06 1126.44L1080.38 1102.36L1133.11 1113.46C1140.84 1115.09 1146.96 1120.99 1148.88 1128.65L1152.63 1143.64L1094.14 1143.64L1080.38 1184.93L1008.13 1184.93Z" fill="#000000" fill-rule="nonzero" opacity="1" stroke="#ffffff" stroke-linecap="round" stroke-linejoin="round" stroke-width="6.88085"/>
<path d="M994.368 1109.24L973.725 1067.95L1004.69 1040.43L1063.18 1054.19L1097.58 1105.8M953.083 1157.41L953.083 1143.64M966.844 1157.41L966.844 1143.64M1121.66 1157.41L1121.66 1143.64M1135.43 1157.41L1135.43 1143.64M1089.1 1164.29L1109.89 1164.29M1083.67 1178.05L1101.64 1178.05M978.421 1164.29L997.557 1164.29M986.819 1178.05L1004.48 1178.05" fill="#000000" fill-rule="nonzero" opacity="1" stroke="#ffffff" stroke-linecap="round" stroke-linejoin="round" stroke-width="6.88085"/>
<path d="M985.409 1098.41L985.409 1074.32C985.409 1070.52 988.488 1067.44 992.29 1067.44L992.29 1067.44C996.091 1067.44 999.17 1070.52 999.17 1074.32L999.17 1112.17L1023.25 1112.17C1027.06 1112.17 1030.13 1115.25 1030.13 1119.05L1030.13 1119.05C1030.13 1122.85 1027.06 1125.93 1023.25 1125.93L999.17 1125.93" fill="#000000" fill-rule="nonzero" opacity="1" stroke="#ffffff" stroke-linecap="round" stroke-linejoin="round" stroke-width="6.88085"/>
<g opacity="1">
<path d="M1660.54 1068.73C1658.64 1068.73 1657.1 1070.27 1657.1 1072.17C1657.1 1074.07 1658.64 1075.61 1660.54 1075.61C1662.44 1075.61 1663.98 1074.07 1663.98 1072.17C1663.98 1070.27 1662.44 1068.73 1660.54 1068.73ZM1660.54 1096.25C1658.64 1096.25 1657.1 1097.79 1657.1 1099.69C1657.1 1101.59 1658.64 1103.13 1660.54 1103.13C1662.44 1103.13 1663.98 1101.59 1663.98 1099.69C1663.98 1097.79 1662.44 1096.25 1660.54 1096.25Z" fill="#000000" fill-rule="nonzero" opacity="1" stroke="#ffffff" stroke-linecap="round" stroke-linejoin="round" stroke-width="6.88085"/>
<path d="M1645.64 1077.33C1644.69 1078.98 1645.26 1081.08 1646.9 1082.03C1648.55 1082.98 1650.65 1082.42 1651.6 1080.77C1652.55 1079.13 1651.99 1077.03 1650.34 1076.08C1648.7 1075.13 1646.59 1075.69 1645.64 1077.33Z" fill="#000000" fill-rule="nonzero" opacity="1" stroke="#ffffff" stroke-linecap="round" stroke-linejoin="round" stroke-width="6.88085"/>
<path d="M1669.48 1091.1C1668.53 1092.74 1669.09 1094.85 1670.74 1095.8C1672.38 1096.75 1674.49 1096.18 1675.44 1094.54C1676.39 1092.89 1675.82 1090.79 1674.18 1089.84C1672.53 1088.89 1670.43 1089.45 1669.48 1091.1Z" fill="#000000" fill-rule="nonzero" opacity="1" stroke="#ffffff" stroke-linecap="round" stroke-linejoin="round" stroke-width="6.88085"/>
<path d="M1646.9 1089.82C1645.26 1090.77 1644.69 1092.88 1645.64 1094.52C1646.59 1096.17 1648.7 1096.73 1650.34 1095.78C1651.99 1094.83 1652.55 1092.73 1651.6 1091.08C1650.65 1089.44 1648.55 1088.87 1646.9 1089.82Z" fill="#000000" fill-rule="nonzero" opacity="1" stroke="#ffffff" stroke-linecap="round" stroke-linejoin="round" stroke-width="6.88085"/>
<path d="M1670.73 1076.06C1669.09 1077.01 1668.53 1079.12 1669.48 1080.76C1670.43 1082.41 1672.53 1082.97 1674.18 1082.02C1675.82 1081.07 1676.38 1078.97 1675.43 1077.32C1674.48 1075.68 1672.38 1075.11 1670.73 1076.06Z" fill="#000000" fill-rule="nonzero" opacity="1" stroke="#ffffff" stroke-linecap="round" stroke-linejoin="round" stroke-width="6.88085"/>
<path d="M1660.54 1058.41C1645.34 1058.41 1633.02 1070.73 1633.02 1085.93C1633.02 1101.13 1645.34 1113.45 1660.54 1113.45C1675.75 1113.45 1688.07 1101.13 1688.07 1085.93C1688.07 1070.73 1675.75 1058.41 1660.54 1058.41Z" fill="#000000" fill-rule="nonzero" opacity="1" stroke="#ffffff" stroke-linecap="butt" stroke-linejoin="miter" stroke-width="6.88085"/>
<path d="M1491.96 1068.73C1490.06 1068.73 1488.52 1070.27 1488.52 1072.17C1488.52 1074.07 1490.06 1075.61 1491.96 1075.61C1493.86 1075.61 1495.4 1074.07 1495.4 1072.17C1495.4 1070.27 1493.86 1068.73 1491.96 1068.73ZM1629.58 1027.44C1627.68 1027.44 1626.14 1028.98 1626.14 1030.88C1626.14 1032.78 1627.68 1034.32 1629.58 1034.32C1631.48 1034.32 1633.02 1032.78 1633.02 1030.88C1633.02 1028.98 1631.48 1027.44 1629.58 1027.44ZM1643.34 1027.44C1641.44 1027.44 1639.9 1028.98 1639.9 1030.88C1639.9 1032.78 1641.44 1034.32 1643.34 1034.32C1645.24 1034.32 1646.78 1032.78 1646.78 1030.88C1646.78 1028.98 1645.24 1027.44 1643.34 1027.44ZM1657.1 1027.44C1655.2 1027.44 1653.66 1028.98 1653.66 1030.88C1653.66 1032.78 1655.2 1034.32 1657.1 1034.32C1659 1034.32 1660.54 1032.78 1660.54 1030.88C1660.54 1028.98 1659 1027.44 1657.1 1027.44ZM1670.87 1027.44C1668.97 1027.44 1667.43 1028.98 1667.43 1030.88C1667.43 1032.78 1668.97 1034.32 1670.87 1034.32C1672.77 1034.32 1674.31 1032.78 1674.31 1030.88C1674.31 1028.98 1672.77 1027.44 1670.87 1027.44ZM1474.76 1027.44C1472.86 1027.44 1471.32 1028.98 1471.32 1030.88C1471.32 1032.78 1472.86 1034.32 1474.76 1034.32C1476.66 1034.32 1478.2 1032.78 1478.2 1030.88C1478.2 1028.98 1476.66 1027.44 1474.76 1027.44ZM1488.52 1027.44C1486.62 1027.44 1485.08 1028.98 1485.08 1030.88C1485.08 1032.78 1486.62 1034.32 1488.52 1034.32C1490.42 1034.32 1491.96 1032.78 1491.96 1030.88C1491.96 1028.98 1490.42 1027.44 1488.52 1027.44ZM1502.28 1027.44C1500.38 1027.44 1498.84 1028.98 1498.84 1030.88C1498.84 1032.78 1500.38 1034.32 1502.28 1034.32C1504.18 1034.32 1505.73 1032.78 1505.73 1030.88C1505.73 1028.98 1504.18 1027.44 1502.28 1027.44ZM1516.05 1027.44C1514.15 1027.44 1512.61 1028.98 1512.61 1030.88C1512.61 1032.78 1514.15 1034.32 1516.05 1034.32C1517.95 1034.32 1519.49 1032.78 1519.49 1030.88C1519.49 1028.98 1517.95 1027.44 1516.05 1027.44ZM1491.96 1096.25C1490.06 1096.25 1488.52 1097.79 1488.52 1099.69C1488.52 1101.59 1490.06 1103.13 1491.96 1103.13C1493.86 1103.13 1495.4 1101.59 1495.4 1099.69C1495.4 1097.79 1493.86 1096.25 1491.96 1096.25Z" fill="#000000" fill-rule="nonzero" opacity="1" stroke="#ffffff" stroke-linecap="round" stroke-linejoin="round" stroke-width="6.88085"/>
<path d="M1477.06 1077.33C1476.11 1078.97 1476.68 1081.08 1478.32 1082.03C1479.97 1082.98 1482.07 1082.41 1483.02 1080.77C1483.97 1079.12 1483.41 1077.02 1481.76 1076.07C1480.12 1075.12 1478.01 1075.68 1477.06 1077.33Z" fill="#000000" fill-rule="nonzero" opacity="1" stroke="#ffffff" stroke-linecap="round" stroke-linejoin="round" stroke-width="6.88085"/>
<path d="M1500.9 1091.09C1499.95 1092.74 1500.51 1094.84 1502.15 1095.79C1503.8 1096.74 1505.9 1096.18 1506.85 1094.53C1507.8 1092.89 1507.24 1090.78 1505.6 1089.83C1503.95 1088.88 1501.85 1089.45 1500.9 1091.09Z" fill="#000000" fill-rule="nonzero" opacity="1" stroke="#ffffff" stroke-linecap="round" stroke-linejoin="round" stroke-width="6.88085"/>
<path d="M1478.32 1089.83C1476.68 1090.78 1476.11 1092.88 1477.06 1094.53C1478.01 1096.17 1480.12 1096.73 1481.76 1095.78C1483.41 1094.83 1483.97 1092.73 1483.02 1091.08C1482.07 1089.44 1479.97 1088.88 1478.32 1089.83Z" fill="#000000" fill-rule="nonzero" opacity="1" stroke="#ffffff" stroke-linecap="round" stroke-linejoin="round" stroke-width="6.88085"/>
<path d="M1502.16 1076.06C1500.51 1077.01 1499.95 1079.12 1500.9 1080.76C1501.85 1082.41 1503.95 1082.97 1505.6 1082.02C1507.25 1081.07 1507.81 1078.97 1506.86 1077.32C1505.91 1075.68 1503.81 1075.11 1502.16 1076.06Z" fill="#000000" fill-rule="nonzero" opacity="1" stroke="#ffffff" stroke-linecap="round" stroke-linejoin="round" stroke-width="6.88085"/>
<path d="M1491.96 1058.41C1476.76 1058.41 1464.44 1070.73 1464.44 1085.93C1464.44 1101.13 1476.76 1113.45 1491.96 1113.45C1507.16 1113.45 1519.49 1101.13 1519.49 1085.93C1519.49 1070.73 1507.16 1058.41 1491.96 1058.41Z" fill="#000000" fill-rule="nonzero" opacity="1" stroke="#ffffff" stroke-linecap="butt" stroke-linejoin="miter" stroke-width="6.88085"/>
<path d="M1540.13 1085.93L1519.49 1044.64L1454.12 1044.64C1454.12 1044.64 1461 1010.24 1471.32 1010.24C1481.64 1010.24 1526.37 1010.24 1526.37 1010.24L1550.45 1058.41L1602.06 1058.41L1602.06 1027.44L1612.38 1003.36L1665.11 1014.46C1672.84 1016.09 1678.96 1021.99 1680.88 1029.65L1684.63 1044.64L1626.14 1044.64L1612.38 1085.93L1540.13 1085.93Z" fill="#000000" fill-rule="nonzero" opacity="1" stroke="#ffffff" stroke-linecap="round" stroke-linejoin="round" stroke-width="6.88085"/>
<path d="M1526.37 1010.24L1505.73 968.955L1536.69 941.431L1595.18 955.193L1629.58 1006.8M1485.08 1058.41L1485.08 1044.64M1498.84 1058.41L1498.84 1044.64M1653.66 1058.41L1653.66 1044.64M1667.43 1058.41L1667.43 1044.64M1621.1 1065.29L1641.89 1065.29M1615.67 1079.05L1633.64 1079.05M1510.42 1065.29L1529.56 1065.29M1518.82 1079.05L1536.48 1079.05" fill="#000000" fill-rule="nonzero" opacity="1" stroke="#ffffff" stroke-linecap="round" stroke-linejoin="round" stroke-width="6.88085"/>
<path d="M1517.41 999.407L1517.41 975.324C1517.41 971.522 1520.49 968.443 1524.29 968.443L1524.29 968.443C1528.09 968.443 1531.17 971.522 1531.17 975.324L1531.17 1013.17L1555.25 1013.17C1559.06 1013.17 1562.13 1016.25 1562.13 1020.05L1562.13 1020.05C1562.13 1023.85 1559.06 1026.93 1555.25 1026.93L1531.17 1026.93" fill="#000000" fill-rule="nonzero" opacity="1" stroke="#ffffff" stroke-linecap="round" stroke-linejoin="round" stroke-width="6.88085"/>
</g>
<g opacity="1">
<path d="M1660.54 1068.73C1658.64 1068.73 1657.1 1070.27 1657.1 1072.17C1657.1 1074.07 1658.64 1075.61 1660.54 1075.61C1662.44 1075.61 1663.98 1074.07 1663.98 1072.17C1663.98 1070.27 1662.44 1068.73 1660.54 1068.73ZM1660.54 1096.25C1658.64 1096.25 1657.1 1097.79 1657.1 1099.69C1657.1 1101.59 1658.64 1103.13 1660.54 1103.13C1662.44 1103.13 1663.98 1101.59 1663.98 1099.69C1663.98 1097.79 1662.44 1096.25 1660.54 1096.25Z" fill="#000000" fill-rule="nonzero" opacity="1" stroke="#ffffff" stroke-linecap="round" stroke-linejoin="round" stroke-width="6.88085"/>
<path d="M1645.64 1077.33C1644.69 1078.98 1645.26 1081.08 1646.9 1082.03C1648.55 1082.98 1650.65 1082.42 1651.6 1080.77C1652.55 1079.13 1651.99 1077.03 1650.34 1076.08C1648.7 1075.13 1646.59 1075.69 1645.64 1077.33Z" fill="#000000" fill-rule="nonzero" opacity="1" stroke="#ffffff" stroke-linecap="round" stroke-linejoin="round" stroke-width="6.88085"/>
<path d="M1669.48 1091.1C1668.53 1092.74 1669.09 1094.85 1670.74 1095.8C1672.38 1096.75 1674.49 1096.18 1675.44 1094.54C1676.39 1092.89 1675.82 1090.79 1674.18 1089.84C1672.53 1088.89 1670.43 1089.45 1669.48 1091.1Z" fill="#000000" fill-rule="nonzero" opacity="1" stroke="#ffffff" stroke-linecap="round" stroke-linejoin="round" stroke-width="6.88085"/>
<path d="M1646.9 1089.82C1645.26 1090.77 1644.69 1092.88 1645.64 1094.52C1646.59 1096.17 1648.7 1096.73 1650.34 1095.78C1651.99 1094.83 1652.55 1092.73 1651.6 1091.08C1650.65 1089.44 1648.55 1088.87 1646.9 1089.82Z" fill="#000000" fill-rule="nonzero" opacity="1" stroke="#ffffff" stroke-linecap="round" stroke-linejoin="round" stroke-width="6.88085"/>
<path d="M1670.73 1076.06C1669.09 1077.01 1668.53 1079.12 1669.48 1080.76C1670.43 1082.41 1672.53 1082.97 1674.18 1082.02C1675.82 1081.07 1676.38 1078.97 1675.43 1077.32C1674.48 1075.68 1672.38 1075.11 1670.73 1076.06Z" fill="#000000" fill-rule="nonzero" opacity="1" stroke="#ffffff" stroke-linecap="round" stroke-linejoin="round" stroke-width="6.88085"/>
<path d="M1660.54 1058.41C1645.34 1058.41 1633.02 1070.73 1633.02 1085.93C1633.02 1101.13 1645.34 1113.45 1660.54 1113.45C1675.75 1113.45 1688.07 1101.13 1688.07 1085.93C1688.07 1070.73 1675.75 1058.41 1660.54 1058.41Z" fill="#000000" fill-rule="nonzero" opacity="1" stroke="#ffffff" stroke-linecap="butt" stroke-linejoin="miter" stroke-width="6.88085"/>
<path d="M1491.96 1068.73C1490.06 1068.73 1488.52 1070.27 1488.52 1072.17C1488.52 1074.07 1490.06 1075.61 1491.96 1075.61C1493.86 1075.61 1495.4 1074.07 1495.4 1072.17C1495.4 1070.27 1493.86 1068.73 1491.96 1068.73ZM1629.58 1027.44C1627.68 1027.44 1626.14 1028.98 1626.14 1030.88C1626.14 1032.78 1627.68 1034.32 1629.58 1034.32C1631.48 1034.32 1633.02 1032.78 1633.02 1030.88C1633.02 1028.98 1631.48 1027.44 1629.58 1027.44ZM1643.34 1027.44C1641.44 1027.44 1639.9 1028.98 1639.9 1030.88C1639.9 1032.78 1641.44 1034.32 1643.34 1034.32C1645.24 1034.32 1646.78 1032.78 1646.78 1030.88C1646.78 1028.98 1645.24 1027.44 1643.34 1027.44ZM1657.1 1027.44C1655.2 1027.44 1653.66 1028.98 1653.66 1030.88C1653.66 1032.78 1655.2 1034.32 1657.1 1034.32C1659 1034.32 1660.54 1032.78 1660.54 1030.88C1660.54 1028.98 1659 1027.44 1657.1 1027.44ZM1670.87 1027.44C1668.97 1027.44 1667.43 1028.98 1667.43 1030.88C1667.43 1032.78 1668.97 1034.32 1670.87 1034.32C1672.77 1034.32 1674.31 1032.78 1674.31 1030.88C1674.31 1028.98 1672.77 1027.44 1670.87 1027.44ZM1474.76 1027.44C1472.86 1027.44 1471.32 1028.98 1471.32 1030.88C1471.32 1032.78 1472.86 1034.32 1474.76 1034.32C1476.66 1034.32 1478.2 1032.78 1478.2 1030.88C1478.2 1028.98 1476.66 1027.44 1474.76 1027.44ZM1488.52 1027.44C1486.62 1027.44 1485.08 1028.98 1485.08 1030.88C1485.08 1032.78 1486.62 1034.32 1488.52 1034.32C1490.42 1034.32 1491.96 1032.78 1491.96 1030.88C1491.96 1028.98 1490.42 1027.44 1488.52 1027.44ZM1502.28 1027.44C1500.38 1027.44 1498.84 1028.98 1498.84 1030.88C1498.84 1032.78 1500.38 1034.32 1502.28 1034.32C1504.18 1034.32 1505.73 1032.78 1505.73 1030.88C1505.73 1028.98 1504.18 1027.44 1502.28 1027.44ZM1516.05 1027.44C1514.15 1027.44 1512.61 1028.98 1512.61 1030.88C1512.61 1032.78 1514.15 1034.32 1516.05 1034.32C1517.95 1034.32 1519.49 1032.78 1519.49 1030.88C1519.49 1028.98 1517.95 1027.44 1516.05 1027.44ZM1491.96 1096.25C1490.06 1096.25 1488.52 1097.79 1488.52 1099.69C1488.52 1101.59 1490.06 1103.13 1491.96 1103.13C1493.86 1103.13 1495.4 1101.59 1495.4 1099.69C1495.4 1097.79 1493.86 1096.25 1491.96 1096.25Z" fill="#000000" fill-rule="nonzero" opacity="1" stroke="#ffffff" stroke-linecap="round" stroke-linejoin="round" stroke-width="6.88085"/>
<path d="M1477.06 1077.33C1476.11 1078.97 1476.68 1081.08 1478.32 1082.03C1479.97 1082.98 1482.07 1082.41 1483.02 1080.77C1483.97 1079.12 1483.41 1077.02 1481.76 1076.07C1480.12 1075.12 1478.01 1075.68 1477.06 1077.33Z" fill="#000000" fill-rule="nonzero" opacity="1" stroke="#ffffff" stroke-linecap="round" stroke-linejoin="round" stroke-width="6.88085"/>
<path d="M1500.9 1091.09C1499.95 1092.74 1500.51 1094.84 1502.15 1095.79C1503.8 1096.74 1505.9 1096.18 1506.85 1094.53C1507.8 1092.89 1507.24 1090.78 1505.6 1089.83C1503.95 1088.88 1501.85 1089.45 1500.9 1091.09Z" fill="#000000" fill-rule="nonzero" opacity="1" stroke="#ffffff" stroke-linecap="round" stroke-linejoin="round" stroke-width="6.88085"/>
<path d="M1478.32 1089.83C1476.68 1090.78 1476.11 1092.88 1477.06 1094.53C1478.01 1096.17 1480.12 1096.73 1481.76 1095.78C1483.41 1094.83 1483.97 1092.73 1483.02 1091.08C1482.07 1089.44 1479.97 1088.88 1478.32 1089.83Z" fill="#000000" fill-rule="nonzero" opacity="1" stroke="#ffffff" stroke-linecap="round" stroke-linejoin="round" stroke-width="6.88085"/>
<path d="M1502.16 1076.06C1500.51 1077.01 1499.95 1079.12 1500.9 1080.76C1501.85 1082.41 1503.95 1082.97 1505.6 1082.02C1507.25 1081.07 1507.81 1078.97 1506.86 1077.32C1505.91 1075.68 1503.81 1075.11 1502.16 1076.06Z" fill="#000000" fill-rule="nonzero" opacity="1" stroke="#ffffff" stroke-linecap="round" stroke-linejoin="round" stroke-width="6.88085"/>
<path d="M1491.96 1058.41C1476.76 1058.41 1464.44 1070.73 1464.44 1085.93C1464.44 1101.13 1476.76 1113.45 1491.96 1113.45C1507.16 1113.45 1519.49 1101.13 1519.49 1085.93C1519.49 1070.73 1507.16 1058.41 1491.96 1058.41Z" fill="#000000" fill-rule="nonzero" opacity="1" stroke="#ffffff" stroke-linecap="butt" stroke-linejoin="miter" stroke-width="6.88085"/>
<path d="M1540.13 1085.93L1519.49 1044.64L1454.12 1044.64C1454.12 1044.64 1461 1010.24 1471.32 1010.24C1481.64 1010.24 1526.37 1010.24 1526.37 1010.24L1550.45 1058.41L1602.06 1058.41L1602.06 1027.44L1612.38 1003.36L1665.11 1014.46C1672.84 1016.09 1678.96 1021.99 1680.88 1029.65L1684.63 1044.64L1626.14 1044.64L1612.38 1085.93L1540.13 1085.93Z" fill="#000000" fill-rule="nonzero" opacity="1" stroke="#ffffff" stroke-linecap="round" stroke-linejoin="round" stroke-width="6.88085"/>
<path d="M1526.37 1010.24L1505.73 968.955L1536.69 941.431L1595.18 955.193L1629.58 1006.8M1485.08 1058.41L1485.08 1044.64M1498.84 1058.41L1498.84 1044.64M1653.66 1058.41L1653.66 1044.64M1667.43 1058.41L1667.43 1044.64M1621.1 1065.29L1641.89 1065.29M1615.67 1079.05L1633.64 1079.05M1510.42 1065.29L1529.56 1065.29M1518.82 1079.05L1536.48 1079.05" fill="#000000" fill-rule="nonzero" opacity="1" stroke="#ffffff" stroke-linecap="round" stroke-linejoin="round" stroke-width="6.88085"/>
<path d="M1517.41 999.407L1517.41 975.324C1517.41 971.522 1520.49 968.443 1524.29 968.443L1524.29 968.443C1528.09 968.443 1531.17 971.522 1531.17 975.324L1531.17 1013.17L1555.25 1013.17C1559.06 1013.17 1562.13 1016.25 1562.13 1020.05L1562.13 1020.05C1562.13 1023.85 1559.06 1026.93 1555.25 1026.93L1531.17 1026.93" fill="#000000" fill-rule="nonzero" opacity="1" stroke="#ffffff" stroke-linecap="round" stroke-linejoin="round" stroke-width="6.88085"/>
</g>
<g opacity="1">
<path d="M140.459 76.119C140.459 75.3116 140.459 74.6571 140.459 74.6571C140.459 74.6571 140.459 75.3116 140.459 76.119C140.459 76.9264 140.459 77.581 140.459 77.581C140.459 77.581 140.459 76.9264 140.459 76.119Z" fill="#d81414" fill-rule="nonzero" filter="url(#Filter)" opacity="1" stroke="#ffffff" stroke-linecap="butt" stroke-linejoin="miter" stroke-width="6.12184"/>
<g opacity="1">
<path d="M37.0906 48.3169C37.0906 23.3883 57.2992 3.17971 82.2278 3.17971C107.156 3.17971 127.365 23.3883 127.365 48.3169C127.365 73.2455 107.156 93.4541 82.2278 93.4541C57.2992 93.4541 37.0906 73.2455 37.0906 48.3169Z" fill="#db900c" fill-rule="nonzero" opacity="1" stroke="#ffffff" stroke-linecap="butt" stroke-linejoin="round" stroke-width="2.65265"/>
<path d="M179.476 150.229L50.7081 92.0813L62.1485 103.435L143.448 141.888L70.7303 146.135L188.85 151.221L180.196 150.577L188.997 150.544L165.504 108.63L157.966 120.025L103.492 15.9349L60.4622 90.9209L48.736 79.2838L11.0032 151.222L179.476 150.229Z" fill="#000000" fill-rule="nonzero" opacity="1" stroke="#ffffff" stroke-linecap="round" stroke-linejoin="miter" stroke-width="3.77924"/>
<path d="M129.511 75.6651L117.557 81.8488L107.102 67.5276L91.3503 75.6692L82.3116 63.2865" fill="#000000" fill-rule="nonzero" opacity="1" stroke="#ffffff" stroke-linecap="round" stroke-linejoin="miter" stroke-width="3.77924"/>
</g>
<g opacity="1">
<path d="M84.4862 140.372C83.9724 140.455 83.6115 140.867 83.6803 141.293C83.749 141.718 84.2213 141.995 84.7351 141.912C85.2489 141.829 85.6098 141.417 85.541 140.992C85.4723 140.567 85 140.289 84.4862 140.372ZM85.4818 146.532C84.968 146.615 84.6072 147.027 84.6759 147.453C84.7446 147.878 85.2169 148.155 85.7307 148.072C86.2446 147.989 86.6054 147.577 86.5367 147.152C86.4679 146.727 85.9957 146.449 85.4818 146.532Z" fill="#000000" fill-rule="nonzero" opacity="1" stroke="#ffffff" stroke-linecap="round" stroke-linejoin="round" stroke-width="1.88491"/>
<path d="M80.7678 142.95C80.5705 143.36 80.799 143.806 81.2784 143.947C81.7578 144.087 82.3064 143.869 82.5038 143.459C82.7012 143.05 82.4726 142.603 81.9932 142.463C81.5139 142.322 80.9652 142.54 80.7678 142.95Z" fill="#000000" fill-rule="nonzero" opacity="1" stroke="#ffffff" stroke-linecap="round" stroke-linejoin="round" stroke-width="1.88491"/>
<path d="M87.7113 144.988C87.5139 145.398 87.7425 145.844 88.2219 145.985C88.7012 146.126 89.2499 145.907 89.4473 145.498C89.6446 145.088 89.4161 144.642 88.9367 144.501C88.4573 144.36 87.9087 144.578 87.7113 144.988Z" fill="#000000" fill-rule="nonzero" opacity="1" stroke="#ffffff" stroke-linecap="round" stroke-linejoin="round" stroke-width="1.88491"/>
<path d="M81.5599 145.69C81.1493 145.975 81.0729 146.47 81.3894 146.797C81.7058 147.124 82.2952 147.158 82.7059 146.874C83.1165 146.589 83.1928 146.093 82.8764 145.767C82.56 145.44 81.9705 145.406 81.5599 145.69Z" fill="#000000" fill-rule="nonzero" opacity="1" stroke="#ffffff" stroke-linecap="round" stroke-linejoin="round" stroke-width="1.88491"/>
<path d="M87.5073 141.569C87.0967 141.853 87.0204 142.349 87.3368 142.676C87.6532 143.002 88.2426 143.037 88.6533 142.752C89.0639 142.467 89.1403 141.972 88.8238 141.645C88.5074 141.318 87.918 141.284 87.5073 141.569Z" fill="#000000" fill-rule="nonzero" opacity="1" stroke="#ffffff" stroke-linecap="round" stroke-linejoin="round" stroke-width="1.88491"/>
<path d="M84.1128 138.062C80.0022 138.727 77.1155 142.023 77.6654 145.425C78.2153 148.827 81.9934 151.047 86.1041 150.382C90.2148 149.718 93.1014 146.421 92.5515 143.019C92.0016 139.617 88.2235 137.398 84.1128 138.062Z" fill="#000000" fill-rule="nonzero" opacity="1" stroke="#ffffff" stroke-linecap="butt" stroke-linejoin="miter" stroke-width="1.88491"/>
<path d="M38.8976 147.741C38.3837 147.824 38.0229 148.236 38.0916 148.661C38.1604 149.086 38.6326 149.364 39.1465 149.281C39.6603 149.198 40.0211 148.786 39.9524 148.36C39.8837 147.935 39.4114 147.658 38.8976 147.741ZM74.6193 132.486C74.1055 132.569 73.7447 132.981 73.8134 133.406C73.8821 133.831 74.3544 134.109 74.8682 134.026C75.3821 133.943 75.7429 133.531 75.6742 133.105C75.6054 132.68 75.1332 132.403 74.6193 132.486ZM78.3409 131.884C77.827 131.967 77.4662 132.379 77.5349 132.805C77.6037 133.23 78.0759 133.507 78.5898 133.424C79.1036 133.341 79.4644 132.929 79.3957 132.504C79.327 132.079 78.8547 131.801 78.3409 131.884ZM82.0624 131.283C81.5485 131.366 81.1877 131.778 81.2564 132.203C81.3252 132.628 81.7974 132.906 82.3113 132.823C82.8251 132.74 83.1859 132.328 83.1172 131.902C83.0485 131.477 82.5762 131.2 82.0624 131.283ZM85.7839 130.681C85.2701 130.764 84.9092 131.176 84.978 131.602C85.0467 132.027 85.519 132.304 86.0328 132.221C86.5466 132.138 86.9075 131.726 86.8387 131.301C86.77 130.875 86.2977 130.598 85.7839 130.681ZM32.7522 139.253C32.2384 139.336 31.8775 139.748 31.9463 140.173C32.015 140.598 32.4873 140.876 33.0011 140.793C33.5149 140.71 33.8758 140.297 33.807 139.872C33.7383 139.447 33.266 139.17 32.7522 139.253ZM36.4737 138.651C35.9599 138.734 35.5991 139.146 35.6678 139.571C35.7365 139.997 36.2088 140.274 36.7226 140.191C37.2365 140.108 37.5973 139.696 37.5286 139.271C37.4598 138.845 36.9876 138.568 36.4737 138.651ZM40.1952 138.05C39.6814 138.133 39.3206 138.545 39.3893 138.97C39.4581 139.395 39.9303 139.673 40.4442 139.59C40.958 139.507 41.3188 139.094 41.2501 138.669C41.1813 138.244 40.7091 137.967 40.1952 138.05ZM43.9168 137.448C43.4029 137.531 43.0421 137.943 43.1108 138.368C43.1796 138.794 43.6518 139.071 44.1657 138.988C44.6795 138.905 45.0403 138.493 44.9716 138.068C44.9029 137.642 44.4306 137.365 43.9168 137.448ZM39.8932 153.901C39.3793 153.984 39.0185 154.396 39.0873 154.821C39.156 155.246 39.6283 155.524 40.1421 155.441C40.6559 155.358 41.0167 154.945 40.948 154.52C40.8793 154.095 40.407 153.818 39.8932 153.901Z" fill="#000000" fill-rule="nonzero" opacity="1" stroke="#ffffff" stroke-linecap="round" stroke-linejoin="round" stroke-width="1.88491"/>
<path d="M35.1788 150.317C34.9814 150.727 35.21 151.173 35.6893 151.313C36.1687 151.454 36.7173 151.236 36.9147 150.826C37.1121 150.416 36.8835 149.97 36.4042 149.829C35.9248 149.689 35.3762 149.907 35.1788 150.317Z" fill="#000000" fill-rule="nonzero" opacity="1" stroke="#ffffff" stroke-linecap="round" stroke-linejoin="round" stroke-width="1.88491"/>
<path d="M42.1221 152.356C41.9247 152.766 42.1533 153.212 42.6327 153.353C43.112 153.493 43.6606 153.275 43.858 152.866C44.0554 152.456 43.8268 152.009 43.3475 151.869C42.8681 151.728 42.3195 151.946 42.1221 152.356Z" fill="#000000" fill-rule="nonzero" opacity="1" stroke="#ffffff" stroke-linecap="round" stroke-linejoin="round" stroke-width="1.88491"/>
<path d="M35.9724 153.059C35.5617 153.343 35.4854 153.839 35.8018 154.166C36.1183 154.492 36.7077 154.527 37.1183 154.242C37.5289 153.958 37.6053 153.462 37.2888 153.135C36.9724 152.808 36.383 152.774 35.9724 153.059Z" fill="#000000" fill-rule="nonzero" opacity="1" stroke="#ffffff" stroke-linecap="round" stroke-linejoin="round" stroke-width="1.88491"/>
<path d="M41.9202 148.937C41.5096 149.222 41.4332 149.717 41.7497 150.044C42.0661 150.371 42.6555 150.405 43.0662 150.12C43.4768 149.836 43.5531 149.34 43.2367 149.013C42.9203 148.687 42.3308 148.652 41.9202 148.937Z" fill="#000000" fill-rule="nonzero" opacity="1" stroke="#ffffff" stroke-linecap="round" stroke-linejoin="round" stroke-width="1.88491"/>
<path d="M38.5242 145.431C34.4135 146.095 31.5269 149.392 32.0768 152.794C32.6266 156.196 36.4048 158.415 40.5154 157.751C44.6261 157.086 47.5127 153.79 46.9629 150.388C46.413 146.986 42.6349 144.766 38.5242 145.431Z" fill="#000000" fill-rule="nonzero" opacity="1" stroke="#ffffff" stroke-linecap="butt" stroke-linejoin="miter" stroke-width="1.88491"/>
<path d="M52.5451 149.485L45.4694 141.148L27.7922 144.005C27.7922 144.005 28.4084 136.004 31.1996 135.553C33.9907 135.102 46.0856 133.147 46.0856 133.147L54.3407 142.874L68.2964 140.619L67.1763 133.689L69.0963 127.848L83.7567 128.027C85.9071 128.053 87.7766 129.106 88.5721 130.738L90.1277 133.93L74.3112 136.486L72.0831 146.327L52.5451 149.485Z" fill="#000000" fill-rule="nonzero" opacity="1" stroke="#ffffff" stroke-linecap="round" stroke-linejoin="round" stroke-width="1.88491"/>
<path d="M46.0856 133.147L39.0099 124.809L46.3877 117.296L62.702 117.82L73.8726 127.866M36.6634 145.731L36.1656 142.651M40.385 145.13L39.8871 142.05M82.2521 138.363L81.7543 135.283M85.9736 137.761L85.4758 134.681M73.6949 141.326L79.3181 140.417M72.7255 144.643L77.5849 143.858M43.7646 146.164L48.9394 145.327M46.5335 148.877L51.31 148.105" fill="#000000" fill-rule="nonzero" opacity="1" stroke="#ffffff" stroke-linecap="round" stroke-linejoin="round" stroke-width="1.88491"/>
<path d="M43.271 131.114L42.3999 125.724C42.2623 124.873 42.9836 124.05 44.0117 123.883L44.0117 123.883C45.0398 123.717 45.9839 124.272 46.1214 125.123L47.4904 133.593L54.003 132.54C55.0311 132.374 55.9752 132.928 56.1127 133.779L56.1127 133.779C56.2502 134.63 55.5289 135.454 54.5008 135.62L47.9882 136.673" fill="#000000" fill-rule="nonzero" opacity="1" stroke="#ffffff" stroke-linecap="round" stroke-linejoin="round" stroke-width="1.88491"/>
</g>
</g>
</g>
</svg>
