
<svg height="100.0px" stroke-miterlimit="10" style="fill-rule:nonzero;clip-rule:evenodd;stroke-linecap:round;stroke-linejoin:round;" version="1.1" viewBox="0 0 100 100" width="100.0px" xml:space="preserve" xmlns="http://www.w3.org/2000/svg" xmlns:xlink="http://www.w3.org/1999/xlink">
<defs/>
<g id="Camada-1">
<g opacity="1">
<g opacity="1">
<path d="M83.7904 46.4576L85.7295 46.4576C85.3345 42.5609 84.2572 38.8768 82.6772 35.476L81.0613 36.3971L77.4704 30.2687L79.0863 29.3476C76.824 26.2303 74.059 23.5381 70.935 21.3063L70.0013 22.9004L63.7532 19.358L64.7227 17.7285C61.2395 16.2052 57.505 15.1425 53.5909 14.7528L53.5909 16.6658L46.4091 16.6658L46.4091 14.7528C42.4591 15.1425 38.7246 16.2052 35.2773 17.7639L36.2109 19.358L29.9628 22.9004L29.065 21.3063C25.9051 23.5381 23.176 26.2657 20.9137 29.3476L22.4937 30.2687L18.9028 36.3971L17.2869 35.476C15.7428 38.8768 14.6655 42.5609 14.2705 46.4576L16.1737 46.4576L16.1737 53.5424L14.2705 53.5424C14.6655 57.4391 15.7428 61.1232 17.2869 64.524L18.9028 63.6029L22.4937 69.7313L20.9137 70.6524C23.176 73.7343 25.9051 76.4619 29.065 78.6937L29.9628 77.0996L36.2109 80.642L35.2773 82.2361C38.7246 83.7948 42.4591 84.8575 46.4091 85.2472L46.4091 83.3342L53.5909 83.3342L53.5909 85.2472C57.505 84.8575 61.2395 83.7948 64.7227 82.2715L63.7532 80.642L70.0013 77.0996L70.935 78.6937C74.059 76.4619 76.824 73.7697 79.0863 70.6524L77.4704 69.7313L81.0613 63.6029L82.6772 64.524C84.2572 61.1232 85.3345 57.4391 85.7295 53.5424L83.7904 53.5424L83.7904 46.4576ZM50 67.1099C40.4123 67.1099 32.6559 59.4583 32.6559 50C32.6559 40.5417 40.4123 32.8901 50 32.8901C59.5877 32.8901 67.3441 40.5417 67.3441 50C67.3441 59.4583 59.5877 67.1099 50 67.1099Z" fill="#000000" fill-rule="nonzero" opacity="1" stroke="none"/>
<path d="M31.8088 50.7383C31.8088 40.4586 40.1422 32.1253 50.4219 32.1253C60.7016 32.1253 69.0349 40.4586 69.0349 50.7383C69.0349 61.018 60.7016 69.3513 50.4219 69.3513C40.1422 69.3513 31.8088 61.018 31.8088 50.7383Z" fill="#000000" fill-rule="nonzero" opacity="1" stroke="#000000" stroke-linecap="butt" stroke-linejoin="round" stroke-width="6.72762"/>
<g opacity="1">
<g opacity="1">
<path d="M48.2651 43.7083L40.3294 43.7083L40.3294 40.9518C40.3294 39.2142 40.254 38.1267 40.1032 37.6891C39.9524 37.2516 39.5943 37.0328 39.0288 37.0328C38.5387 37.0328 38.2057 37.2204 38.0298 37.5954C37.8538 37.9704 37.7659 38.933 37.7659 40.4831L37.7659 55.0527C37.7659 56.4153 37.8538 57.3122 38.0298 57.7435C38.2057 58.1748 38.5576 58.3904 39.0853 58.3904C39.6634 58.3904 40.0561 58.1466 40.2634 57.6591C40.4708 57.1716 40.5745 56.2215 40.5745 54.8089L40.5745 51.2087L38.9722 51.2087L38.9722 46.5959L48.2651 46.5959L47.4144 73.9156L43.3408 74.105L42.5348 60.7156C41.9945 61.6531 41.3127 62.3563 40.4896 62.8251C39.6665 63.2938 38.6958 63.5282 37.5774 63.5282C36.2453 63.5282 34.9981 63.2063 33.8357 62.5625C32.6734 61.9187 31.7906 61.1218 31.1874 60.1718C30.5842 59.2217 30.2072 58.2248 30.0564 57.181C29.9056 56.1371 29.8302 54.5714 29.8302 52.4838L29.8302 43.4645C29.8302 40.5643 29.9873 38.4579 30.3015 37.1454C30.6156 35.8328 31.5172 34.6296 33.0064 33.5358C34.4955 32.4419 36.4213 31.895 38.7837 31.895C41.1085 31.895 43.0375 32.3701 44.5706 33.3201C46.1037 34.2702 47.1027 35.3984 47.5676 36.7047C48.0326 38.011 48.2651 39.908 48.2651 42.3957L48.2651 43.7083Z" fill="#ffffff" fill-rule="nonzero" opacity="1" stroke="none"/>
</g>
<path d="M51.6972 33.0645L59.614 33.0645C62.1147 33.0645 64.0091 33.2582 65.2972 33.6458C66.5852 34.0333 67.6251 34.8177 68.4168 35.999C69.2085 37.1804 69.6043 39.0836 69.6043 41.7088C69.6043 43.4839 69.3247 44.7215 68.7655 45.4215C68.2063 46.1215 67.1036 46.6591 65.4574 47.0341C67.2921 47.4466 68.5362 48.131 69.1896 49.0873C69.8431 50.0437 70.1698 51.5094 70.1698 53.4845L70.1698 56.2972C70.1698 58.3473 69.9342 59.8661 69.4629 60.8537C68.9917 61.8413 68.2408 62.5163 67.2104 62.8788C66.18 63.2413 64.0688 63.4226 60.877 63.4226L51.6972 63.4226L51.6972 33.0645ZM59.6329 38.2586L59.6329 45.009C59.9722 44.9965 60.2361 44.9902 60.4246 44.9902C61.2037 44.9902 61.7001 44.7996 61.9137 44.4183C62.1273 44.037 62.2341 42.9463 62.2341 41.1462C62.2341 40.1962 62.1462 39.5305 61.9702 39.1492C61.7943 38.768 61.565 38.5273 61.2822 38.4273C60.9995 38.3273 60.4497 38.2711 59.6329 38.2586ZM59.6329 49.7343L59.6329 58.2285C60.7513 58.191 61.4644 58.016 61.7723 57.7035C62.0802 57.391 62.2341 56.6222 62.2341 55.3971L62.2341 52.5657C62.2341 51.2656 62.0959 50.4781 61.8194 50.203C61.543 49.928 60.8141 49.7718 59.6329 49.7343Z" fill="#ffffff" fill-rule="nonzero" opacity="1" stroke="none"/>
</g>
</g>
</g>
</g>
</svg>
