
<svg height="100.0px" stroke-miterlimit="10" style="fill-rule:nonzero;clip-rule:evenodd;stroke-linecap:round;stroke-linejoin:round;" version="1.1" viewBox="0 0 100 100" width="100.0px" xml:space="preserve" xmlns="http://www.w3.org/2000/svg" xmlns:xlink="http://www.w3.org/1999/xlink">
<defs/>
<g id="Camada-1">
<g opacity="1">
<g opacity="1">
<path d="M83.7904 46.4576L85.7295 46.4576C85.3345 42.5609 84.2572 38.8768 82.6772 35.476L81.0613 36.3971L77.4704 30.2687L79.0863 29.3476C76.824 26.2303 74.059 23.5381 70.935 21.3063L70.0013 22.9004L63.7532 19.358L64.7227 17.7285C61.2395 16.2052 57.505 15.1425 53.5909 14.7528L53.5909 16.6658L46.4091 16.6658L46.4091 14.7528C42.4591 15.1425 38.7246 16.2052 35.2773 17.7639L36.2109 19.358L29.9628 22.9004L29.065 21.3063C25.9051 23.5381 23.176 26.2657 20.9137 29.3476L22.4937 30.2687L18.9028 36.3971L17.2869 35.476C15.7428 38.8768 14.6655 42.5609 14.2705 46.4576L16.1737 46.4576L16.1737 53.5424L14.2705 53.5424C14.6655 57.4391 15.7428 61.1232 17.2869 64.524L18.9028 63.6029L22.4937 69.7313L20.9137 70.6524C23.176 73.7343 25.9051 76.4619 29.065 78.6937L29.9628 77.0996L36.2109 80.642L35.2773 82.2361C38.7246 83.7948 42.4591 84.8575 46.4091 85.2472L46.4091 83.3342L53.5909 83.3342L53.5909 85.2472C57.505 84.8575 61.2395 83.7948 64.7227 82.2715L63.7532 80.642L70.0013 77.0996L70.935 78.6937C74.059 76.4619 76.824 73.7697 79.0863 70.6524L77.4704 69.7313L81.0613 63.6029L82.6772 64.524C84.2572 61.1232 85.3345 57.4391 85.7295 53.5424L83.7904 53.5424L83.7904 46.4576ZM50 67.1099C40.4123 67.1099 32.6559 59.4583 32.6559 50C32.6559 40.5417 40.4123 32.8901 50 32.8901C59.5877 32.8901 67.3441 40.5417 67.3441 50C67.3441 59.4583 59.5877 67.1099 50 67.1099Z" fill="#000000" fillRule="nonzero" opacity="1" stroke="none"/>
<path d="M28.4443 50.7383C28.4443 38.6004 38.284 28.7607 50.4219 28.7607C62.5597 28.7607 72.3994 38.6004 72.3994 50.7383C72.3994 62.8761 62.5597 72.7158 50.4219 72.7158C38.284 72.7158 28.4443 62.8761 28.4443 50.7383Z" fill="#ffffff" fillRule="nonzero" opacity="1" stroke="#ffffff" stroke-linecap="butt" stroke-linejoin="round" stroke-width="7.94372"/>
<g opacity="1">
<g opacity="1">
<path d="M48.8895 46.4011L42.4498 46.4011L42.4498 44.1829C42.4498 42.7845 42.3886 41.9093 42.2662 41.5572C42.1439 41.2051 41.8532 41.0291 41.3943 41.0291C40.9966 41.0291 40.7264 41.18 40.5836 41.4818C40.4409 41.7836 40.3695 42.5582 40.3695 43.8056L40.3695 55.5304C40.3695 56.627 40.4409 57.3488 40.5836 57.6958C40.7264 58.0429 41.0119 58.2164 41.4402 58.2164C41.9093 58.2164 42.228 58.0203 42.3962 57.6279C42.5645 57.2356 42.6486 56.471 42.6486 55.3343L42.6486 52.437L41.3484 52.437L41.3484 48.7249L48.8895 48.7249L48.7266 78.6204L44.999 78.7727L44.2395 60.0876C43.801 60.8421 43.2477 61.4079 42.5798 61.7852C41.9119 62.1624 41.1241 62.3511 40.2165 62.3511C39.1356 62.3511 38.1235 62.092 37.1802 61.5739C36.2369 61.0558 35.5205 60.4145 35.0311 59.65C34.5416 58.8854 34.2356 58.0831 34.1133 57.2431C33.9909 56.4031 33.9297 55.1431 33.9297 53.4631L33.9297 46.2049C33.9297 43.871 34.0572 42.1759 34.3121 41.1196C34.5671 40.0633 35.2987 39.0951 36.5071 38.2148C37.7156 37.3346 39.2783 36.8945 41.1955 36.8945C43.082 36.8945 44.6474 37.2767 45.8915 38.0413C47.1356 38.8059 47.9463 39.7138 48.3236 40.765C48.7009 41.8163 48.8895 43.3429 48.8895 45.3448L48.8895 46.4011Z" fill="#000000" fillRule="nonzero" opacity="1" stroke="none"/>
</g>
<path d="M51.6747 37.8356L58.0992 37.8356C60.1285 37.8356 61.6658 37.9915 62.711 38.3034C63.7563 38.6152 64.6001 39.2465 65.2426 40.1971C65.885 41.1478 66.2062 42.6794 66.2062 44.792C66.2062 46.2205 65.9794 47.2164 65.5256 47.7798C65.0718 48.3432 64.1769 48.7757 62.8411 49.0775C64.3299 49.4095 65.3395 49.9603 65.8697 50.7299C66.4 51.4994 66.6651 52.679 66.6651 54.2684L66.6651 56.5319C66.6651 58.1817 66.4739 59.404 66.0915 60.1988C65.7091 60.9935 65.0998 61.5367 64.2636 61.8285C63.4274 62.1202 61.7142 62.2661 59.124 62.2661L51.6747 62.2661L51.6747 37.8356ZM58.1145 42.0155L58.1145 47.4478C58.3898 47.4378 58.604 47.4327 58.7569 47.4327C59.3892 47.4327 59.792 47.2793 59.9653 46.9725C60.1387 46.6657 60.2254 45.7879 60.2254 44.3393C60.2254 43.5748 60.154 43.0391 60.0112 42.7322C59.8685 42.4254 59.6824 42.2318 59.4529 42.1513C59.2235 42.0708 58.7773 42.0255 58.1145 42.0155ZM58.1145 51.2505L58.1145 58.0862C59.0221 58.056 59.6008 57.9152 59.8506 57.6637C60.1005 57.4122 60.2254 56.7935 60.2254 55.8076L60.2254 53.529C60.2254 52.4828 60.1132 51.849 59.8889 51.6277C59.6645 51.4064 59.0731 51.2806 58.1145 51.2505Z" fill="#000000" fillRule="nonzero" opacity="1" stroke="none"/>
</g>
</g>
</g>
</g>
</svg>
